G75*
%MOIN*%
%OFA0B0*%
%FSLAX25Y25*%
%IPPOS*%
%LPD*%
%AMOC8*
5,1,8,0,0,1.08239X$1,22.5*
%
%ADD10C,0.00000*%
%ADD11C,0.00400*%
%ADD12C,0.00500*%
%ADD13C,0.01200*%
%ADD14C,0.00800*%
%ADD15C,0.00600*%
%ADD16C,0.00200*%
%ADD17C,0.00300*%
%ADD18R,0.04035X0.00098*%
%ADD19R,0.05610X0.00098*%
%ADD20R,0.06890X0.00098*%
%ADD21R,0.07972X0.00098*%
%ADD22R,0.08858X0.00098*%
%ADD23R,0.09744X0.00098*%
%ADD24R,0.10531X0.00098*%
%ADD25R,0.11122X0.00098*%
%ADD26R,0.11909X0.00098*%
%ADD27R,0.12500X0.00098*%
%ADD28R,0.13091X0.00098*%
%ADD29R,0.13681X0.00098*%
%ADD30R,0.14075X0.00098*%
%ADD31R,0.14665X0.00098*%
%ADD32R,0.15059X0.00098*%
%ADD33R,0.15650X0.00098*%
%ADD34R,0.16043X0.00098*%
%ADD35R,0.16437X0.00098*%
%ADD36R,0.16831X0.00098*%
%ADD37R,0.06791X0.00098*%
%ADD38R,0.07087X0.00098*%
%ADD39R,0.06299X0.00098*%
%ADD40R,0.00689X0.00098*%
%ADD41R,0.05906X0.00098*%
%ADD42R,0.05807X0.00098*%
%ADD43R,0.05512X0.00098*%
%ADD44R,0.05217X0.00098*%
%ADD45R,0.05315X0.00098*%
%ADD46R,0.05020X0.00098*%
%ADD47R,0.05118X0.00098*%
%ADD48R,0.04921X0.00098*%
%ADD49R,0.04724X0.00098*%
%ADD50R,0.04626X0.00098*%
%ADD51R,0.04528X0.00098*%
%ADD52R,0.04331X0.00098*%
%ADD53R,0.04232X0.00098*%
%ADD54R,0.00984X0.00098*%
%ADD55R,0.04134X0.00098*%
%ADD56R,0.03937X0.00098*%
%ADD57R,0.00492X0.00098*%
%ADD58R,0.03839X0.00098*%
%ADD59R,0.01083X0.00098*%
%ADD60R,0.01378X0.00098*%
%ADD61R,0.01575X0.00098*%
%ADD62R,0.03740X0.00098*%
%ADD63R,0.01772X0.00098*%
%ADD64R,0.03642X0.00098*%
%ADD65R,0.01870X0.00098*%
%ADD66R,0.01969X0.00098*%
%ADD67R,0.03543X0.00098*%
%ADD68R,0.00886X0.00098*%
%ADD69R,0.03445X0.00098*%
%ADD70R,0.00787X0.00098*%
%ADD71R,0.03346X0.00098*%
%ADD72R,0.03248X0.00098*%
%ADD73R,0.03150X0.00098*%
%ADD74R,0.02067X0.00098*%
%ADD75R,0.03051X0.00098*%
%ADD76R,0.01673X0.00098*%
%ADD77R,0.01476X0.00098*%
%ADD78R,0.02953X0.00098*%
%ADD79R,0.01280X0.00098*%
%ADD80R,0.02854X0.00098*%
%ADD81R,0.02756X0.00098*%
%ADD82R,0.01181X0.00098*%
%ADD83R,0.02657X0.00098*%
%ADD84R,0.02559X0.00098*%
%ADD85R,0.02461X0.00098*%
%ADD86R,0.02362X0.00098*%
%ADD87R,0.02264X0.00098*%
%ADD88R,0.02165X0.00098*%
%ADD89R,0.12795X0.00098*%
%ADD90R,0.13287X0.00098*%
%ADD91R,0.13484X0.00098*%
%ADD92R,0.13976X0.00098*%
%ADD93R,0.14173X0.00098*%
%ADD94R,0.14370X0.00098*%
%ADD95R,0.14567X0.00098*%
%ADD96R,0.14862X0.00098*%
%ADD97R,0.15256X0.00098*%
%ADD98R,0.15354X0.00098*%
%ADD99R,0.15453X0.00098*%
%ADD100R,0.15748X0.00098*%
%ADD101R,0.15846X0.00098*%
%ADD102R,0.06004X0.00098*%
%ADD103R,0.06496X0.00098*%
%ADD104R,0.06102X0.00098*%
%ADD105R,0.05413X0.00098*%
%ADD106R,0.05709X0.00098*%
%ADD107R,0.06988X0.00098*%
%ADD108R,0.06398X0.00098*%
%ADD109R,0.09646X0.00098*%
%ADD110R,0.10630X0.00098*%
%ADD111R,0.09449X0.00098*%
%ADD112R,0.10433X0.00098*%
%ADD113R,0.09350X0.00098*%
%ADD114R,0.10335X0.00098*%
%ADD115R,0.09154X0.00098*%
%ADD116R,0.10138X0.00098*%
%ADD117R,0.09055X0.00098*%
%ADD118R,0.10039X0.00098*%
%ADD119R,0.09941X0.00098*%
%ADD120R,0.08760X0.00098*%
%ADD121R,0.04429X0.00098*%
%ADD122R,0.04823X0.00098*%
%ADD123R,0.10728X0.00098*%
%ADD124R,0.10236X0.00098*%
%ADD125R,0.29035X0.00098*%
%ADD126R,0.18996X0.00098*%
%ADD127R,0.07579X0.00098*%
%ADD128R,0.07677X0.00098*%
%ADD129R,0.07776X0.00098*%
%ADD130R,0.08465X0.00098*%
%ADD131R,0.18012X0.00098*%
%ADD132R,0.13386X0.00098*%
%ADD133R,0.18898X0.00098*%
%ADD134R,0.00394X0.00098*%
%ADD135R,0.19291X0.00098*%
%ADD136R,0.34055X0.00098*%
%ADD137R,0.34154X0.00098*%
%ADD138R,0.08169X0.00098*%
%ADD139R,0.08071X0.00098*%
%ADD140R,0.07480X0.00098*%
%ADD141R,0.07874X0.00098*%
%ADD142R,0.00591X0.00098*%
%ADD143R,0.07382X0.00098*%
%ADD144R,0.07283X0.00098*%
%ADD145R,0.08661X0.00098*%
%ADD146R,0.08563X0.00098*%
%ADD147R,0.19193X0.00098*%
%ADD148R,0.13878X0.00098*%
%ADD149R,0.19094X0.00098*%
%ADD150R,0.18701X0.00098*%
%ADD151R,0.08366X0.00098*%
%ADD152R,0.08268X0.00098*%
%ADD153R,0.06693X0.00098*%
%ADD154R,0.06201X0.00098*%
%ADD155R,0.06594X0.00098*%
%ADD156R,0.07185X0.00098*%
%ADD157R,0.11417X0.00098*%
%ADD158R,0.13189X0.00098*%
%ADD159R,0.11516X0.00098*%
%ADD160R,0.15551X0.00098*%
%ADD161R,0.14469X0.00098*%
%ADD162R,0.14272X0.00098*%
%ADD163R,0.12992X0.00098*%
%ADD164R,0.12598X0.00098*%
%ADD165R,0.12303X0.00098*%
%ADD166R,0.11713X0.00098*%
D10*
X0014319Y0022654D02*
X0060973Y0022654D01*
X0060973Y0022653D02*
X0061070Y0022654D01*
X0061168Y0022650D01*
X0061266Y0022643D01*
X0061363Y0022631D01*
X0061459Y0022616D01*
X0061555Y0022597D01*
X0061650Y0022574D01*
X0061744Y0022548D01*
X0061837Y0022517D01*
X0061929Y0022483D01*
X0062019Y0022446D01*
X0062108Y0022404D01*
X0062195Y0022360D01*
X0062280Y0022311D01*
X0062363Y0022260D01*
X0062444Y0022205D01*
X0062523Y0022147D01*
X0062599Y0022086D01*
X0062673Y0022022D01*
X0062744Y0021955D01*
X0062813Y0021885D01*
X0062878Y0021813D01*
X0062941Y0021738D01*
X0063001Y0021660D01*
X0063057Y0021581D01*
X0063111Y0021499D01*
X0063161Y0021415D01*
X0063207Y0021329D01*
X0063250Y0021241D01*
X0063290Y0021152D01*
X0063326Y0021061D01*
X0063358Y0020968D01*
X0063387Y0020875D01*
X0063412Y0020780D01*
X0063433Y0020685D01*
X0066484Y0020685D02*
X0066486Y0020810D01*
X0066492Y0020935D01*
X0066502Y0021059D01*
X0066516Y0021183D01*
X0066533Y0021307D01*
X0066555Y0021430D01*
X0066581Y0021552D01*
X0066610Y0021674D01*
X0066643Y0021794D01*
X0066681Y0021913D01*
X0066721Y0022032D01*
X0066766Y0022148D01*
X0066814Y0022263D01*
X0066866Y0022377D01*
X0066922Y0022489D01*
X0066981Y0022599D01*
X0067043Y0022707D01*
X0067109Y0022814D01*
X0067178Y0022918D01*
X0067251Y0023019D01*
X0067326Y0023119D01*
X0067405Y0023216D01*
X0067487Y0023310D01*
X0067572Y0023402D01*
X0067659Y0023491D01*
X0067750Y0023577D01*
X0067843Y0023660D01*
X0067939Y0023741D01*
X0068037Y0023818D01*
X0068137Y0023892D01*
X0068240Y0023963D01*
X0068345Y0024030D01*
X0068453Y0024095D01*
X0068562Y0024155D01*
X0068673Y0024213D01*
X0068786Y0024266D01*
X0068900Y0024316D01*
X0069016Y0024363D01*
X0069133Y0024405D01*
X0069252Y0024444D01*
X0069372Y0024480D01*
X0069493Y0024511D01*
X0069615Y0024539D01*
X0069737Y0024562D01*
X0069861Y0024582D01*
X0069985Y0024598D01*
X0070109Y0024610D01*
X0070234Y0024618D01*
X0070359Y0024622D01*
X0070483Y0024622D01*
X0070608Y0024618D01*
X0070733Y0024610D01*
X0070857Y0024598D01*
X0070981Y0024582D01*
X0071105Y0024562D01*
X0071227Y0024539D01*
X0071349Y0024511D01*
X0071470Y0024480D01*
X0071590Y0024444D01*
X0071709Y0024405D01*
X0071826Y0024363D01*
X0071942Y0024316D01*
X0072056Y0024266D01*
X0072169Y0024213D01*
X0072280Y0024155D01*
X0072390Y0024095D01*
X0072497Y0024030D01*
X0072602Y0023963D01*
X0072705Y0023892D01*
X0072805Y0023818D01*
X0072903Y0023741D01*
X0072999Y0023660D01*
X0073092Y0023577D01*
X0073183Y0023491D01*
X0073270Y0023402D01*
X0073355Y0023310D01*
X0073437Y0023216D01*
X0073516Y0023119D01*
X0073591Y0023019D01*
X0073664Y0022918D01*
X0073733Y0022814D01*
X0073799Y0022707D01*
X0073861Y0022599D01*
X0073920Y0022489D01*
X0073976Y0022377D01*
X0074028Y0022263D01*
X0074076Y0022148D01*
X0074121Y0022032D01*
X0074161Y0021913D01*
X0074199Y0021794D01*
X0074232Y0021674D01*
X0074261Y0021552D01*
X0074287Y0021430D01*
X0074309Y0021307D01*
X0074326Y0021183D01*
X0074340Y0021059D01*
X0074350Y0020935D01*
X0074356Y0020810D01*
X0074358Y0020685D01*
X0074356Y0020560D01*
X0074350Y0020435D01*
X0074340Y0020311D01*
X0074326Y0020187D01*
X0074309Y0020063D01*
X0074287Y0019940D01*
X0074261Y0019818D01*
X0074232Y0019696D01*
X0074199Y0019576D01*
X0074161Y0019457D01*
X0074121Y0019338D01*
X0074076Y0019222D01*
X0074028Y0019107D01*
X0073976Y0018993D01*
X0073920Y0018881D01*
X0073861Y0018771D01*
X0073799Y0018663D01*
X0073733Y0018556D01*
X0073664Y0018452D01*
X0073591Y0018351D01*
X0073516Y0018251D01*
X0073437Y0018154D01*
X0073355Y0018060D01*
X0073270Y0017968D01*
X0073183Y0017879D01*
X0073092Y0017793D01*
X0072999Y0017710D01*
X0072903Y0017629D01*
X0072805Y0017552D01*
X0072705Y0017478D01*
X0072602Y0017407D01*
X0072497Y0017340D01*
X0072389Y0017275D01*
X0072280Y0017215D01*
X0072169Y0017157D01*
X0072056Y0017104D01*
X0071942Y0017054D01*
X0071826Y0017007D01*
X0071709Y0016965D01*
X0071590Y0016926D01*
X0071470Y0016890D01*
X0071349Y0016859D01*
X0071227Y0016831D01*
X0071105Y0016808D01*
X0070981Y0016788D01*
X0070857Y0016772D01*
X0070733Y0016760D01*
X0070608Y0016752D01*
X0070483Y0016748D01*
X0070359Y0016748D01*
X0070234Y0016752D01*
X0070109Y0016760D01*
X0069985Y0016772D01*
X0069861Y0016788D01*
X0069737Y0016808D01*
X0069615Y0016831D01*
X0069493Y0016859D01*
X0069372Y0016890D01*
X0069252Y0016926D01*
X0069133Y0016965D01*
X0069016Y0017007D01*
X0068900Y0017054D01*
X0068786Y0017104D01*
X0068673Y0017157D01*
X0068562Y0017215D01*
X0068452Y0017275D01*
X0068345Y0017340D01*
X0068240Y0017407D01*
X0068137Y0017478D01*
X0068037Y0017552D01*
X0067939Y0017629D01*
X0067843Y0017710D01*
X0067750Y0017793D01*
X0067659Y0017879D01*
X0067572Y0017968D01*
X0067487Y0018060D01*
X0067405Y0018154D01*
X0067326Y0018251D01*
X0067251Y0018351D01*
X0067178Y0018452D01*
X0067109Y0018556D01*
X0067043Y0018663D01*
X0066981Y0018771D01*
X0066922Y0018881D01*
X0066866Y0018993D01*
X0066814Y0019107D01*
X0066766Y0019222D01*
X0066721Y0019338D01*
X0066681Y0019457D01*
X0066643Y0019576D01*
X0066610Y0019696D01*
X0066581Y0019818D01*
X0066555Y0019940D01*
X0066533Y0020063D01*
X0066516Y0020187D01*
X0066502Y0020311D01*
X0066492Y0020435D01*
X0066486Y0020560D01*
X0066484Y0020685D01*
X0063433Y0020685D02*
X0063426Y0020513D01*
X0063423Y0020340D01*
X0063424Y0020168D01*
X0063430Y0019995D01*
X0063440Y0019823D01*
X0063454Y0019651D01*
X0063472Y0019480D01*
X0063494Y0019309D01*
X0063521Y0019138D01*
X0063552Y0018969D01*
X0063587Y0018800D01*
X0063626Y0018632D01*
X0063669Y0018465D01*
X0063716Y0018299D01*
X0063767Y0018134D01*
X0063823Y0017971D01*
X0063882Y0017809D01*
X0063945Y0017648D01*
X0064012Y0017489D01*
X0064083Y0017332D01*
X0064158Y0017177D01*
X0064237Y0017023D01*
X0064319Y0016872D01*
X0064406Y0016722D01*
X0064495Y0016575D01*
X0064589Y0016430D01*
X0064685Y0016287D01*
X0064786Y0016147D01*
X0064890Y0016009D01*
X0064997Y0015874D01*
X0065107Y0015741D01*
X0065221Y0015611D01*
X0065337Y0015484D01*
X0065457Y0015360D01*
X0065580Y0015239D01*
X0065706Y0015121D01*
X0065834Y0015006D01*
X0065966Y0014894D01*
X0066100Y0014786D01*
X0066237Y0014680D01*
X0066376Y0014579D01*
X0066517Y0014480D01*
X0066662Y0014385D01*
X0066808Y0014294D01*
X0066956Y0014206D01*
X0067107Y0014122D01*
X0067260Y0014042D01*
X0067414Y0013965D01*
X0067571Y0013893D01*
X0067729Y0013824D01*
X0067889Y0013759D01*
X0068050Y0013698D01*
X0068213Y0013641D01*
X0068377Y0013588D01*
X0068542Y0013539D01*
X0068709Y0013494D01*
X0068877Y0013453D01*
X0069045Y0013416D01*
X0069215Y0013384D01*
X0069385Y0013355D01*
X0069555Y0013331D01*
X0069727Y0013311D01*
X0069899Y0013295D01*
X0070071Y0013284D01*
X0070243Y0013276D01*
X0070416Y0013273D01*
X0070588Y0013274D01*
X0070760Y0013280D01*
X0070933Y0013289D01*
X0071105Y0013303D01*
X0071276Y0013321D01*
X0071447Y0013343D01*
X0071618Y0013369D01*
X0071788Y0013400D01*
X0071957Y0013434D01*
X0072125Y0013473D01*
X0072292Y0013516D01*
X0072458Y0013563D01*
X0072622Y0013614D01*
X0072786Y0013669D01*
X0072948Y0013728D01*
X0073109Y0013791D01*
X0073268Y0013858D01*
X0073425Y0013929D01*
X0073580Y0014004D01*
X0073734Y0014082D01*
X0073886Y0014164D01*
X0074035Y0014250D01*
X0074183Y0014340D01*
X0074328Y0014433D01*
X0074471Y0014530D01*
X0074611Y0014630D01*
X0074749Y0014733D01*
X0074885Y0014840D01*
X0075017Y0014950D01*
X0075147Y0015064D01*
X0075274Y0015180D01*
X0075399Y0015300D01*
X0075520Y0015423D01*
X0075638Y0015548D01*
X0075753Y0015677D01*
X0075865Y0015808D01*
X0075974Y0015942D01*
X0076080Y0016078D01*
X0076182Y0016218D01*
X0076280Y0016359D01*
X0076375Y0016503D01*
X0076467Y0016649D01*
X0076555Y0016798D01*
X0076639Y0016948D01*
X0076719Y0017101D01*
X0076796Y0017255D01*
X0076869Y0017412D01*
X0076938Y0017570D01*
X0077003Y0017729D01*
X0077065Y0017891D01*
X0077122Y0018053D01*
X0077175Y0018217D01*
X0077224Y0018383D01*
X0077270Y0018549D01*
X0077311Y0018717D01*
X0094043Y0018717D01*
X0094043Y0001000D01*
X0126524Y0001000D01*
X0126524Y0004937D01*
X0171012Y0004937D01*
X0171012Y0028559D01*
X0356839Y0028559D01*
X0364713Y0036433D01*
X0364713Y0112220D01*
X0317469Y0112220D01*
X0317469Y0190961D01*
X0364713Y0190961D01*
X0364713Y0264780D01*
X0048768Y0264780D01*
X0014319Y0245094D01*
X0014319Y0022654D01*
X0120126Y0014346D02*
X0120128Y0014471D01*
X0120134Y0014596D01*
X0120144Y0014720D01*
X0120158Y0014844D01*
X0120175Y0014968D01*
X0120197Y0015091D01*
X0120223Y0015213D01*
X0120252Y0015335D01*
X0120285Y0015455D01*
X0120323Y0015574D01*
X0120363Y0015693D01*
X0120408Y0015809D01*
X0120456Y0015924D01*
X0120508Y0016038D01*
X0120564Y0016150D01*
X0120623Y0016260D01*
X0120685Y0016368D01*
X0120751Y0016475D01*
X0120820Y0016579D01*
X0120893Y0016680D01*
X0120968Y0016780D01*
X0121047Y0016877D01*
X0121129Y0016971D01*
X0121214Y0017063D01*
X0121301Y0017152D01*
X0121392Y0017238D01*
X0121485Y0017321D01*
X0121581Y0017402D01*
X0121679Y0017479D01*
X0121779Y0017553D01*
X0121882Y0017624D01*
X0121987Y0017691D01*
X0122095Y0017756D01*
X0122204Y0017816D01*
X0122315Y0017874D01*
X0122428Y0017927D01*
X0122542Y0017977D01*
X0122658Y0018024D01*
X0122775Y0018066D01*
X0122894Y0018105D01*
X0123014Y0018141D01*
X0123135Y0018172D01*
X0123257Y0018200D01*
X0123379Y0018223D01*
X0123503Y0018243D01*
X0123627Y0018259D01*
X0123751Y0018271D01*
X0123876Y0018279D01*
X0124001Y0018283D01*
X0124125Y0018283D01*
X0124250Y0018279D01*
X0124375Y0018271D01*
X0124499Y0018259D01*
X0124623Y0018243D01*
X0124747Y0018223D01*
X0124869Y0018200D01*
X0124991Y0018172D01*
X0125112Y0018141D01*
X0125232Y0018105D01*
X0125351Y0018066D01*
X0125468Y0018024D01*
X0125584Y0017977D01*
X0125698Y0017927D01*
X0125811Y0017874D01*
X0125922Y0017816D01*
X0126032Y0017756D01*
X0126139Y0017691D01*
X0126244Y0017624D01*
X0126347Y0017553D01*
X0126447Y0017479D01*
X0126545Y0017402D01*
X0126641Y0017321D01*
X0126734Y0017238D01*
X0126825Y0017152D01*
X0126912Y0017063D01*
X0126997Y0016971D01*
X0127079Y0016877D01*
X0127158Y0016780D01*
X0127233Y0016680D01*
X0127306Y0016579D01*
X0127375Y0016475D01*
X0127441Y0016368D01*
X0127503Y0016260D01*
X0127562Y0016150D01*
X0127618Y0016038D01*
X0127670Y0015924D01*
X0127718Y0015809D01*
X0127763Y0015693D01*
X0127803Y0015574D01*
X0127841Y0015455D01*
X0127874Y0015335D01*
X0127903Y0015213D01*
X0127929Y0015091D01*
X0127951Y0014968D01*
X0127968Y0014844D01*
X0127982Y0014720D01*
X0127992Y0014596D01*
X0127998Y0014471D01*
X0128000Y0014346D01*
X0127998Y0014221D01*
X0127992Y0014096D01*
X0127982Y0013972D01*
X0127968Y0013848D01*
X0127951Y0013724D01*
X0127929Y0013601D01*
X0127903Y0013479D01*
X0127874Y0013357D01*
X0127841Y0013237D01*
X0127803Y0013118D01*
X0127763Y0012999D01*
X0127718Y0012883D01*
X0127670Y0012768D01*
X0127618Y0012654D01*
X0127562Y0012542D01*
X0127503Y0012432D01*
X0127441Y0012324D01*
X0127375Y0012217D01*
X0127306Y0012113D01*
X0127233Y0012012D01*
X0127158Y0011912D01*
X0127079Y0011815D01*
X0126997Y0011721D01*
X0126912Y0011629D01*
X0126825Y0011540D01*
X0126734Y0011454D01*
X0126641Y0011371D01*
X0126545Y0011290D01*
X0126447Y0011213D01*
X0126347Y0011139D01*
X0126244Y0011068D01*
X0126139Y0011001D01*
X0126031Y0010936D01*
X0125922Y0010876D01*
X0125811Y0010818D01*
X0125698Y0010765D01*
X0125584Y0010715D01*
X0125468Y0010668D01*
X0125351Y0010626D01*
X0125232Y0010587D01*
X0125112Y0010551D01*
X0124991Y0010520D01*
X0124869Y0010492D01*
X0124747Y0010469D01*
X0124623Y0010449D01*
X0124499Y0010433D01*
X0124375Y0010421D01*
X0124250Y0010413D01*
X0124125Y0010409D01*
X0124001Y0010409D01*
X0123876Y0010413D01*
X0123751Y0010421D01*
X0123627Y0010433D01*
X0123503Y0010449D01*
X0123379Y0010469D01*
X0123257Y0010492D01*
X0123135Y0010520D01*
X0123014Y0010551D01*
X0122894Y0010587D01*
X0122775Y0010626D01*
X0122658Y0010668D01*
X0122542Y0010715D01*
X0122428Y0010765D01*
X0122315Y0010818D01*
X0122204Y0010876D01*
X0122094Y0010936D01*
X0121987Y0011001D01*
X0121882Y0011068D01*
X0121779Y0011139D01*
X0121679Y0011213D01*
X0121581Y0011290D01*
X0121485Y0011371D01*
X0121392Y0011454D01*
X0121301Y0011540D01*
X0121214Y0011629D01*
X0121129Y0011721D01*
X0121047Y0011815D01*
X0120968Y0011912D01*
X0120893Y0012012D01*
X0120820Y0012113D01*
X0120751Y0012217D01*
X0120685Y0012324D01*
X0120623Y0012432D01*
X0120564Y0012542D01*
X0120508Y0012654D01*
X0120456Y0012768D01*
X0120408Y0012883D01*
X0120363Y0012999D01*
X0120323Y0013118D01*
X0120285Y0013237D01*
X0120252Y0013357D01*
X0120223Y0013479D01*
X0120197Y0013601D01*
X0120175Y0013724D01*
X0120158Y0013848D01*
X0120144Y0013972D01*
X0120134Y0014096D01*
X0120128Y0014221D01*
X0120126Y0014346D01*
X0202055Y0131189D02*
X0202057Y0131288D01*
X0202063Y0131387D01*
X0202073Y0131486D01*
X0202087Y0131584D01*
X0202105Y0131681D01*
X0202127Y0131778D01*
X0202152Y0131874D01*
X0202182Y0131968D01*
X0202215Y0132062D01*
X0202252Y0132154D01*
X0202293Y0132244D01*
X0202337Y0132333D01*
X0202385Y0132419D01*
X0202436Y0132504D01*
X0202491Y0132587D01*
X0202549Y0132667D01*
X0202610Y0132745D01*
X0202674Y0132821D01*
X0202741Y0132894D01*
X0202811Y0132964D01*
X0202884Y0133031D01*
X0202960Y0133095D01*
X0203038Y0133156D01*
X0203118Y0133214D01*
X0203201Y0133269D01*
X0203285Y0133320D01*
X0203372Y0133368D01*
X0203461Y0133412D01*
X0203551Y0133453D01*
X0203643Y0133490D01*
X0203737Y0133523D01*
X0203831Y0133553D01*
X0203927Y0133578D01*
X0204024Y0133600D01*
X0204121Y0133618D01*
X0204219Y0133632D01*
X0204318Y0133642D01*
X0204417Y0133648D01*
X0204516Y0133650D01*
X0204615Y0133648D01*
X0204714Y0133642D01*
X0204813Y0133632D01*
X0204911Y0133618D01*
X0205008Y0133600D01*
X0205105Y0133578D01*
X0205201Y0133553D01*
X0205295Y0133523D01*
X0205389Y0133490D01*
X0205481Y0133453D01*
X0205571Y0133412D01*
X0205660Y0133368D01*
X0205746Y0133320D01*
X0205831Y0133269D01*
X0205914Y0133214D01*
X0205994Y0133156D01*
X0206072Y0133095D01*
X0206148Y0133031D01*
X0206221Y0132964D01*
X0206291Y0132894D01*
X0206358Y0132821D01*
X0206422Y0132745D01*
X0206483Y0132667D01*
X0206541Y0132587D01*
X0206596Y0132504D01*
X0206647Y0132420D01*
X0206695Y0132333D01*
X0206739Y0132244D01*
X0206780Y0132154D01*
X0206817Y0132062D01*
X0206850Y0131968D01*
X0206880Y0131874D01*
X0206905Y0131778D01*
X0206927Y0131681D01*
X0206945Y0131584D01*
X0206959Y0131486D01*
X0206969Y0131387D01*
X0206975Y0131288D01*
X0206977Y0131189D01*
X0206975Y0131090D01*
X0206969Y0130991D01*
X0206959Y0130892D01*
X0206945Y0130794D01*
X0206927Y0130697D01*
X0206905Y0130600D01*
X0206880Y0130504D01*
X0206850Y0130410D01*
X0206817Y0130316D01*
X0206780Y0130224D01*
X0206739Y0130134D01*
X0206695Y0130045D01*
X0206647Y0129959D01*
X0206596Y0129874D01*
X0206541Y0129791D01*
X0206483Y0129711D01*
X0206422Y0129633D01*
X0206358Y0129557D01*
X0206291Y0129484D01*
X0206221Y0129414D01*
X0206148Y0129347D01*
X0206072Y0129283D01*
X0205994Y0129222D01*
X0205914Y0129164D01*
X0205831Y0129109D01*
X0205747Y0129058D01*
X0205660Y0129010D01*
X0205571Y0128966D01*
X0205481Y0128925D01*
X0205389Y0128888D01*
X0205295Y0128855D01*
X0205201Y0128825D01*
X0205105Y0128800D01*
X0205008Y0128778D01*
X0204911Y0128760D01*
X0204813Y0128746D01*
X0204714Y0128736D01*
X0204615Y0128730D01*
X0204516Y0128728D01*
X0204417Y0128730D01*
X0204318Y0128736D01*
X0204219Y0128746D01*
X0204121Y0128760D01*
X0204024Y0128778D01*
X0203927Y0128800D01*
X0203831Y0128825D01*
X0203737Y0128855D01*
X0203643Y0128888D01*
X0203551Y0128925D01*
X0203461Y0128966D01*
X0203372Y0129010D01*
X0203286Y0129058D01*
X0203201Y0129109D01*
X0203118Y0129164D01*
X0203038Y0129222D01*
X0202960Y0129283D01*
X0202884Y0129347D01*
X0202811Y0129414D01*
X0202741Y0129484D01*
X0202674Y0129557D01*
X0202610Y0129633D01*
X0202549Y0129711D01*
X0202491Y0129791D01*
X0202436Y0129874D01*
X0202385Y0129958D01*
X0202337Y0130045D01*
X0202293Y0130134D01*
X0202252Y0130224D01*
X0202215Y0130316D01*
X0202182Y0130410D01*
X0202152Y0130504D01*
X0202127Y0130600D01*
X0202105Y0130697D01*
X0202087Y0130794D01*
X0202073Y0130892D01*
X0202063Y0130991D01*
X0202057Y0131090D01*
X0202055Y0131189D01*
X0233551Y0131189D02*
X0233553Y0131288D01*
X0233559Y0131387D01*
X0233569Y0131486D01*
X0233583Y0131584D01*
X0233601Y0131681D01*
X0233623Y0131778D01*
X0233648Y0131874D01*
X0233678Y0131968D01*
X0233711Y0132062D01*
X0233748Y0132154D01*
X0233789Y0132244D01*
X0233833Y0132333D01*
X0233881Y0132419D01*
X0233932Y0132504D01*
X0233987Y0132587D01*
X0234045Y0132667D01*
X0234106Y0132745D01*
X0234170Y0132821D01*
X0234237Y0132894D01*
X0234307Y0132964D01*
X0234380Y0133031D01*
X0234456Y0133095D01*
X0234534Y0133156D01*
X0234614Y0133214D01*
X0234697Y0133269D01*
X0234781Y0133320D01*
X0234868Y0133368D01*
X0234957Y0133412D01*
X0235047Y0133453D01*
X0235139Y0133490D01*
X0235233Y0133523D01*
X0235327Y0133553D01*
X0235423Y0133578D01*
X0235520Y0133600D01*
X0235617Y0133618D01*
X0235715Y0133632D01*
X0235814Y0133642D01*
X0235913Y0133648D01*
X0236012Y0133650D01*
X0236111Y0133648D01*
X0236210Y0133642D01*
X0236309Y0133632D01*
X0236407Y0133618D01*
X0236504Y0133600D01*
X0236601Y0133578D01*
X0236697Y0133553D01*
X0236791Y0133523D01*
X0236885Y0133490D01*
X0236977Y0133453D01*
X0237067Y0133412D01*
X0237156Y0133368D01*
X0237242Y0133320D01*
X0237327Y0133269D01*
X0237410Y0133214D01*
X0237490Y0133156D01*
X0237568Y0133095D01*
X0237644Y0133031D01*
X0237717Y0132964D01*
X0237787Y0132894D01*
X0237854Y0132821D01*
X0237918Y0132745D01*
X0237979Y0132667D01*
X0238037Y0132587D01*
X0238092Y0132504D01*
X0238143Y0132420D01*
X0238191Y0132333D01*
X0238235Y0132244D01*
X0238276Y0132154D01*
X0238313Y0132062D01*
X0238346Y0131968D01*
X0238376Y0131874D01*
X0238401Y0131778D01*
X0238423Y0131681D01*
X0238441Y0131584D01*
X0238455Y0131486D01*
X0238465Y0131387D01*
X0238471Y0131288D01*
X0238473Y0131189D01*
X0238471Y0131090D01*
X0238465Y0130991D01*
X0238455Y0130892D01*
X0238441Y0130794D01*
X0238423Y0130697D01*
X0238401Y0130600D01*
X0238376Y0130504D01*
X0238346Y0130410D01*
X0238313Y0130316D01*
X0238276Y0130224D01*
X0238235Y0130134D01*
X0238191Y0130045D01*
X0238143Y0129959D01*
X0238092Y0129874D01*
X0238037Y0129791D01*
X0237979Y0129711D01*
X0237918Y0129633D01*
X0237854Y0129557D01*
X0237787Y0129484D01*
X0237717Y0129414D01*
X0237644Y0129347D01*
X0237568Y0129283D01*
X0237490Y0129222D01*
X0237410Y0129164D01*
X0237327Y0129109D01*
X0237243Y0129058D01*
X0237156Y0129010D01*
X0237067Y0128966D01*
X0236977Y0128925D01*
X0236885Y0128888D01*
X0236791Y0128855D01*
X0236697Y0128825D01*
X0236601Y0128800D01*
X0236504Y0128778D01*
X0236407Y0128760D01*
X0236309Y0128746D01*
X0236210Y0128736D01*
X0236111Y0128730D01*
X0236012Y0128728D01*
X0235913Y0128730D01*
X0235814Y0128736D01*
X0235715Y0128746D01*
X0235617Y0128760D01*
X0235520Y0128778D01*
X0235423Y0128800D01*
X0235327Y0128825D01*
X0235233Y0128855D01*
X0235139Y0128888D01*
X0235047Y0128925D01*
X0234957Y0128966D01*
X0234868Y0129010D01*
X0234782Y0129058D01*
X0234697Y0129109D01*
X0234614Y0129164D01*
X0234534Y0129222D01*
X0234456Y0129283D01*
X0234380Y0129347D01*
X0234307Y0129414D01*
X0234237Y0129484D01*
X0234170Y0129557D01*
X0234106Y0129633D01*
X0234045Y0129711D01*
X0233987Y0129791D01*
X0233932Y0129874D01*
X0233881Y0129958D01*
X0233833Y0130045D01*
X0233789Y0130134D01*
X0233748Y0130224D01*
X0233711Y0130316D01*
X0233678Y0130410D01*
X0233648Y0130504D01*
X0233623Y0130600D01*
X0233601Y0130697D01*
X0233583Y0130794D01*
X0233569Y0130892D01*
X0233559Y0130991D01*
X0233553Y0131090D01*
X0233551Y0131189D01*
X0353886Y0044307D02*
X0353888Y0044432D01*
X0353894Y0044557D01*
X0353904Y0044681D01*
X0353918Y0044805D01*
X0353935Y0044929D01*
X0353957Y0045052D01*
X0353983Y0045174D01*
X0354012Y0045296D01*
X0354045Y0045416D01*
X0354083Y0045535D01*
X0354123Y0045654D01*
X0354168Y0045770D01*
X0354216Y0045885D01*
X0354268Y0045999D01*
X0354324Y0046111D01*
X0354383Y0046221D01*
X0354445Y0046329D01*
X0354511Y0046436D01*
X0354580Y0046540D01*
X0354653Y0046641D01*
X0354728Y0046741D01*
X0354807Y0046838D01*
X0354889Y0046932D01*
X0354974Y0047024D01*
X0355061Y0047113D01*
X0355152Y0047199D01*
X0355245Y0047282D01*
X0355341Y0047363D01*
X0355439Y0047440D01*
X0355539Y0047514D01*
X0355642Y0047585D01*
X0355747Y0047652D01*
X0355855Y0047717D01*
X0355964Y0047777D01*
X0356075Y0047835D01*
X0356188Y0047888D01*
X0356302Y0047938D01*
X0356418Y0047985D01*
X0356535Y0048027D01*
X0356654Y0048066D01*
X0356774Y0048102D01*
X0356895Y0048133D01*
X0357017Y0048161D01*
X0357139Y0048184D01*
X0357263Y0048204D01*
X0357387Y0048220D01*
X0357511Y0048232D01*
X0357636Y0048240D01*
X0357761Y0048244D01*
X0357885Y0048244D01*
X0358010Y0048240D01*
X0358135Y0048232D01*
X0358259Y0048220D01*
X0358383Y0048204D01*
X0358507Y0048184D01*
X0358629Y0048161D01*
X0358751Y0048133D01*
X0358872Y0048102D01*
X0358992Y0048066D01*
X0359111Y0048027D01*
X0359228Y0047985D01*
X0359344Y0047938D01*
X0359458Y0047888D01*
X0359571Y0047835D01*
X0359682Y0047777D01*
X0359792Y0047717D01*
X0359899Y0047652D01*
X0360004Y0047585D01*
X0360107Y0047514D01*
X0360207Y0047440D01*
X0360305Y0047363D01*
X0360401Y0047282D01*
X0360494Y0047199D01*
X0360585Y0047113D01*
X0360672Y0047024D01*
X0360757Y0046932D01*
X0360839Y0046838D01*
X0360918Y0046741D01*
X0360993Y0046641D01*
X0361066Y0046540D01*
X0361135Y0046436D01*
X0361201Y0046329D01*
X0361263Y0046221D01*
X0361322Y0046111D01*
X0361378Y0045999D01*
X0361430Y0045885D01*
X0361478Y0045770D01*
X0361523Y0045654D01*
X0361563Y0045535D01*
X0361601Y0045416D01*
X0361634Y0045296D01*
X0361663Y0045174D01*
X0361689Y0045052D01*
X0361711Y0044929D01*
X0361728Y0044805D01*
X0361742Y0044681D01*
X0361752Y0044557D01*
X0361758Y0044432D01*
X0361760Y0044307D01*
X0361758Y0044182D01*
X0361752Y0044057D01*
X0361742Y0043933D01*
X0361728Y0043809D01*
X0361711Y0043685D01*
X0361689Y0043562D01*
X0361663Y0043440D01*
X0361634Y0043318D01*
X0361601Y0043198D01*
X0361563Y0043079D01*
X0361523Y0042960D01*
X0361478Y0042844D01*
X0361430Y0042729D01*
X0361378Y0042615D01*
X0361322Y0042503D01*
X0361263Y0042393D01*
X0361201Y0042285D01*
X0361135Y0042178D01*
X0361066Y0042074D01*
X0360993Y0041973D01*
X0360918Y0041873D01*
X0360839Y0041776D01*
X0360757Y0041682D01*
X0360672Y0041590D01*
X0360585Y0041501D01*
X0360494Y0041415D01*
X0360401Y0041332D01*
X0360305Y0041251D01*
X0360207Y0041174D01*
X0360107Y0041100D01*
X0360004Y0041029D01*
X0359899Y0040962D01*
X0359791Y0040897D01*
X0359682Y0040837D01*
X0359571Y0040779D01*
X0359458Y0040726D01*
X0359344Y0040676D01*
X0359228Y0040629D01*
X0359111Y0040587D01*
X0358992Y0040548D01*
X0358872Y0040512D01*
X0358751Y0040481D01*
X0358629Y0040453D01*
X0358507Y0040430D01*
X0358383Y0040410D01*
X0358259Y0040394D01*
X0358135Y0040382D01*
X0358010Y0040374D01*
X0357885Y0040370D01*
X0357761Y0040370D01*
X0357636Y0040374D01*
X0357511Y0040382D01*
X0357387Y0040394D01*
X0357263Y0040410D01*
X0357139Y0040430D01*
X0357017Y0040453D01*
X0356895Y0040481D01*
X0356774Y0040512D01*
X0356654Y0040548D01*
X0356535Y0040587D01*
X0356418Y0040629D01*
X0356302Y0040676D01*
X0356188Y0040726D01*
X0356075Y0040779D01*
X0355964Y0040837D01*
X0355854Y0040897D01*
X0355747Y0040962D01*
X0355642Y0041029D01*
X0355539Y0041100D01*
X0355439Y0041174D01*
X0355341Y0041251D01*
X0355245Y0041332D01*
X0355152Y0041415D01*
X0355061Y0041501D01*
X0354974Y0041590D01*
X0354889Y0041682D01*
X0354807Y0041776D01*
X0354728Y0041873D01*
X0354653Y0041973D01*
X0354580Y0042074D01*
X0354511Y0042178D01*
X0354445Y0042285D01*
X0354383Y0042393D01*
X0354324Y0042503D01*
X0354268Y0042615D01*
X0354216Y0042729D01*
X0354168Y0042844D01*
X0354123Y0042960D01*
X0354083Y0043079D01*
X0354045Y0043198D01*
X0354012Y0043318D01*
X0353983Y0043440D01*
X0353957Y0043562D01*
X0353935Y0043685D01*
X0353918Y0043809D01*
X0353904Y0043933D01*
X0353894Y0044057D01*
X0353888Y0044182D01*
X0353886Y0044307D01*
X0350933Y0243126D02*
X0350935Y0243251D01*
X0350941Y0243376D01*
X0350951Y0243500D01*
X0350965Y0243624D01*
X0350982Y0243748D01*
X0351004Y0243871D01*
X0351030Y0243993D01*
X0351059Y0244115D01*
X0351092Y0244235D01*
X0351130Y0244354D01*
X0351170Y0244473D01*
X0351215Y0244589D01*
X0351263Y0244704D01*
X0351315Y0244818D01*
X0351371Y0244930D01*
X0351430Y0245040D01*
X0351492Y0245148D01*
X0351558Y0245255D01*
X0351627Y0245359D01*
X0351700Y0245460D01*
X0351775Y0245560D01*
X0351854Y0245657D01*
X0351936Y0245751D01*
X0352021Y0245843D01*
X0352108Y0245932D01*
X0352199Y0246018D01*
X0352292Y0246101D01*
X0352388Y0246182D01*
X0352486Y0246259D01*
X0352586Y0246333D01*
X0352689Y0246404D01*
X0352794Y0246471D01*
X0352902Y0246536D01*
X0353011Y0246596D01*
X0353122Y0246654D01*
X0353235Y0246707D01*
X0353349Y0246757D01*
X0353465Y0246804D01*
X0353582Y0246846D01*
X0353701Y0246885D01*
X0353821Y0246921D01*
X0353942Y0246952D01*
X0354064Y0246980D01*
X0354186Y0247003D01*
X0354310Y0247023D01*
X0354434Y0247039D01*
X0354558Y0247051D01*
X0354683Y0247059D01*
X0354808Y0247063D01*
X0354932Y0247063D01*
X0355057Y0247059D01*
X0355182Y0247051D01*
X0355306Y0247039D01*
X0355430Y0247023D01*
X0355554Y0247003D01*
X0355676Y0246980D01*
X0355798Y0246952D01*
X0355919Y0246921D01*
X0356039Y0246885D01*
X0356158Y0246846D01*
X0356275Y0246804D01*
X0356391Y0246757D01*
X0356505Y0246707D01*
X0356618Y0246654D01*
X0356729Y0246596D01*
X0356839Y0246536D01*
X0356946Y0246471D01*
X0357051Y0246404D01*
X0357154Y0246333D01*
X0357254Y0246259D01*
X0357352Y0246182D01*
X0357448Y0246101D01*
X0357541Y0246018D01*
X0357632Y0245932D01*
X0357719Y0245843D01*
X0357804Y0245751D01*
X0357886Y0245657D01*
X0357965Y0245560D01*
X0358040Y0245460D01*
X0358113Y0245359D01*
X0358182Y0245255D01*
X0358248Y0245148D01*
X0358310Y0245040D01*
X0358369Y0244930D01*
X0358425Y0244818D01*
X0358477Y0244704D01*
X0358525Y0244589D01*
X0358570Y0244473D01*
X0358610Y0244354D01*
X0358648Y0244235D01*
X0358681Y0244115D01*
X0358710Y0243993D01*
X0358736Y0243871D01*
X0358758Y0243748D01*
X0358775Y0243624D01*
X0358789Y0243500D01*
X0358799Y0243376D01*
X0358805Y0243251D01*
X0358807Y0243126D01*
X0358805Y0243001D01*
X0358799Y0242876D01*
X0358789Y0242752D01*
X0358775Y0242628D01*
X0358758Y0242504D01*
X0358736Y0242381D01*
X0358710Y0242259D01*
X0358681Y0242137D01*
X0358648Y0242017D01*
X0358610Y0241898D01*
X0358570Y0241779D01*
X0358525Y0241663D01*
X0358477Y0241548D01*
X0358425Y0241434D01*
X0358369Y0241322D01*
X0358310Y0241212D01*
X0358248Y0241104D01*
X0358182Y0240997D01*
X0358113Y0240893D01*
X0358040Y0240792D01*
X0357965Y0240692D01*
X0357886Y0240595D01*
X0357804Y0240501D01*
X0357719Y0240409D01*
X0357632Y0240320D01*
X0357541Y0240234D01*
X0357448Y0240151D01*
X0357352Y0240070D01*
X0357254Y0239993D01*
X0357154Y0239919D01*
X0357051Y0239848D01*
X0356946Y0239781D01*
X0356838Y0239716D01*
X0356729Y0239656D01*
X0356618Y0239598D01*
X0356505Y0239545D01*
X0356391Y0239495D01*
X0356275Y0239448D01*
X0356158Y0239406D01*
X0356039Y0239367D01*
X0355919Y0239331D01*
X0355798Y0239300D01*
X0355676Y0239272D01*
X0355554Y0239249D01*
X0355430Y0239229D01*
X0355306Y0239213D01*
X0355182Y0239201D01*
X0355057Y0239193D01*
X0354932Y0239189D01*
X0354808Y0239189D01*
X0354683Y0239193D01*
X0354558Y0239201D01*
X0354434Y0239213D01*
X0354310Y0239229D01*
X0354186Y0239249D01*
X0354064Y0239272D01*
X0353942Y0239300D01*
X0353821Y0239331D01*
X0353701Y0239367D01*
X0353582Y0239406D01*
X0353465Y0239448D01*
X0353349Y0239495D01*
X0353235Y0239545D01*
X0353122Y0239598D01*
X0353011Y0239656D01*
X0352901Y0239716D01*
X0352794Y0239781D01*
X0352689Y0239848D01*
X0352586Y0239919D01*
X0352486Y0239993D01*
X0352388Y0240070D01*
X0352292Y0240151D01*
X0352199Y0240234D01*
X0352108Y0240320D01*
X0352021Y0240409D01*
X0351936Y0240501D01*
X0351854Y0240595D01*
X0351775Y0240692D01*
X0351700Y0240792D01*
X0351627Y0240893D01*
X0351558Y0240997D01*
X0351492Y0241104D01*
X0351430Y0241212D01*
X0351371Y0241322D01*
X0351315Y0241434D01*
X0351263Y0241548D01*
X0351215Y0241663D01*
X0351170Y0241779D01*
X0351130Y0241898D01*
X0351092Y0242017D01*
X0351059Y0242137D01*
X0351030Y0242259D01*
X0351004Y0242381D01*
X0350982Y0242504D01*
X0350965Y0242628D01*
X0350951Y0242752D01*
X0350941Y0242876D01*
X0350935Y0243001D01*
X0350933Y0243126D01*
X0329280Y0243126D02*
X0329282Y0243251D01*
X0329288Y0243376D01*
X0329298Y0243500D01*
X0329312Y0243624D01*
X0329329Y0243748D01*
X0329351Y0243871D01*
X0329377Y0243993D01*
X0329406Y0244115D01*
X0329439Y0244235D01*
X0329477Y0244354D01*
X0329517Y0244473D01*
X0329562Y0244589D01*
X0329610Y0244704D01*
X0329662Y0244818D01*
X0329718Y0244930D01*
X0329777Y0245040D01*
X0329839Y0245148D01*
X0329905Y0245255D01*
X0329974Y0245359D01*
X0330047Y0245460D01*
X0330122Y0245560D01*
X0330201Y0245657D01*
X0330283Y0245751D01*
X0330368Y0245843D01*
X0330455Y0245932D01*
X0330546Y0246018D01*
X0330639Y0246101D01*
X0330735Y0246182D01*
X0330833Y0246259D01*
X0330933Y0246333D01*
X0331036Y0246404D01*
X0331141Y0246471D01*
X0331249Y0246536D01*
X0331358Y0246596D01*
X0331469Y0246654D01*
X0331582Y0246707D01*
X0331696Y0246757D01*
X0331812Y0246804D01*
X0331929Y0246846D01*
X0332048Y0246885D01*
X0332168Y0246921D01*
X0332289Y0246952D01*
X0332411Y0246980D01*
X0332533Y0247003D01*
X0332657Y0247023D01*
X0332781Y0247039D01*
X0332905Y0247051D01*
X0333030Y0247059D01*
X0333155Y0247063D01*
X0333279Y0247063D01*
X0333404Y0247059D01*
X0333529Y0247051D01*
X0333653Y0247039D01*
X0333777Y0247023D01*
X0333901Y0247003D01*
X0334023Y0246980D01*
X0334145Y0246952D01*
X0334266Y0246921D01*
X0334386Y0246885D01*
X0334505Y0246846D01*
X0334622Y0246804D01*
X0334738Y0246757D01*
X0334852Y0246707D01*
X0334965Y0246654D01*
X0335076Y0246596D01*
X0335186Y0246536D01*
X0335293Y0246471D01*
X0335398Y0246404D01*
X0335501Y0246333D01*
X0335601Y0246259D01*
X0335699Y0246182D01*
X0335795Y0246101D01*
X0335888Y0246018D01*
X0335979Y0245932D01*
X0336066Y0245843D01*
X0336151Y0245751D01*
X0336233Y0245657D01*
X0336312Y0245560D01*
X0336387Y0245460D01*
X0336460Y0245359D01*
X0336529Y0245255D01*
X0336595Y0245148D01*
X0336657Y0245040D01*
X0336716Y0244930D01*
X0336772Y0244818D01*
X0336824Y0244704D01*
X0336872Y0244589D01*
X0336917Y0244473D01*
X0336957Y0244354D01*
X0336995Y0244235D01*
X0337028Y0244115D01*
X0337057Y0243993D01*
X0337083Y0243871D01*
X0337105Y0243748D01*
X0337122Y0243624D01*
X0337136Y0243500D01*
X0337146Y0243376D01*
X0337152Y0243251D01*
X0337154Y0243126D01*
X0337152Y0243001D01*
X0337146Y0242876D01*
X0337136Y0242752D01*
X0337122Y0242628D01*
X0337105Y0242504D01*
X0337083Y0242381D01*
X0337057Y0242259D01*
X0337028Y0242137D01*
X0336995Y0242017D01*
X0336957Y0241898D01*
X0336917Y0241779D01*
X0336872Y0241663D01*
X0336824Y0241548D01*
X0336772Y0241434D01*
X0336716Y0241322D01*
X0336657Y0241212D01*
X0336595Y0241104D01*
X0336529Y0240997D01*
X0336460Y0240893D01*
X0336387Y0240792D01*
X0336312Y0240692D01*
X0336233Y0240595D01*
X0336151Y0240501D01*
X0336066Y0240409D01*
X0335979Y0240320D01*
X0335888Y0240234D01*
X0335795Y0240151D01*
X0335699Y0240070D01*
X0335601Y0239993D01*
X0335501Y0239919D01*
X0335398Y0239848D01*
X0335293Y0239781D01*
X0335185Y0239716D01*
X0335076Y0239656D01*
X0334965Y0239598D01*
X0334852Y0239545D01*
X0334738Y0239495D01*
X0334622Y0239448D01*
X0334505Y0239406D01*
X0334386Y0239367D01*
X0334266Y0239331D01*
X0334145Y0239300D01*
X0334023Y0239272D01*
X0333901Y0239249D01*
X0333777Y0239229D01*
X0333653Y0239213D01*
X0333529Y0239201D01*
X0333404Y0239193D01*
X0333279Y0239189D01*
X0333155Y0239189D01*
X0333030Y0239193D01*
X0332905Y0239201D01*
X0332781Y0239213D01*
X0332657Y0239229D01*
X0332533Y0239249D01*
X0332411Y0239272D01*
X0332289Y0239300D01*
X0332168Y0239331D01*
X0332048Y0239367D01*
X0331929Y0239406D01*
X0331812Y0239448D01*
X0331696Y0239495D01*
X0331582Y0239545D01*
X0331469Y0239598D01*
X0331358Y0239656D01*
X0331248Y0239716D01*
X0331141Y0239781D01*
X0331036Y0239848D01*
X0330933Y0239919D01*
X0330833Y0239993D01*
X0330735Y0240070D01*
X0330639Y0240151D01*
X0330546Y0240234D01*
X0330455Y0240320D01*
X0330368Y0240409D01*
X0330283Y0240501D01*
X0330201Y0240595D01*
X0330122Y0240692D01*
X0330047Y0240792D01*
X0329974Y0240893D01*
X0329905Y0240997D01*
X0329839Y0241104D01*
X0329777Y0241212D01*
X0329718Y0241322D01*
X0329662Y0241434D01*
X0329610Y0241548D01*
X0329562Y0241663D01*
X0329517Y0241779D01*
X0329477Y0241898D01*
X0329439Y0242017D01*
X0329406Y0242137D01*
X0329377Y0242259D01*
X0329351Y0242381D01*
X0329329Y0242504D01*
X0329312Y0242628D01*
X0329298Y0242752D01*
X0329288Y0242876D01*
X0329282Y0243001D01*
X0329280Y0243126D01*
X0106839Y0243126D02*
X0106841Y0243251D01*
X0106847Y0243376D01*
X0106857Y0243500D01*
X0106871Y0243624D01*
X0106888Y0243748D01*
X0106910Y0243871D01*
X0106936Y0243993D01*
X0106965Y0244115D01*
X0106998Y0244235D01*
X0107036Y0244354D01*
X0107076Y0244473D01*
X0107121Y0244589D01*
X0107169Y0244704D01*
X0107221Y0244818D01*
X0107277Y0244930D01*
X0107336Y0245040D01*
X0107398Y0245148D01*
X0107464Y0245255D01*
X0107533Y0245359D01*
X0107606Y0245460D01*
X0107681Y0245560D01*
X0107760Y0245657D01*
X0107842Y0245751D01*
X0107927Y0245843D01*
X0108014Y0245932D01*
X0108105Y0246018D01*
X0108198Y0246101D01*
X0108294Y0246182D01*
X0108392Y0246259D01*
X0108492Y0246333D01*
X0108595Y0246404D01*
X0108700Y0246471D01*
X0108808Y0246536D01*
X0108917Y0246596D01*
X0109028Y0246654D01*
X0109141Y0246707D01*
X0109255Y0246757D01*
X0109371Y0246804D01*
X0109488Y0246846D01*
X0109607Y0246885D01*
X0109727Y0246921D01*
X0109848Y0246952D01*
X0109970Y0246980D01*
X0110092Y0247003D01*
X0110216Y0247023D01*
X0110340Y0247039D01*
X0110464Y0247051D01*
X0110589Y0247059D01*
X0110714Y0247063D01*
X0110838Y0247063D01*
X0110963Y0247059D01*
X0111088Y0247051D01*
X0111212Y0247039D01*
X0111336Y0247023D01*
X0111460Y0247003D01*
X0111582Y0246980D01*
X0111704Y0246952D01*
X0111825Y0246921D01*
X0111945Y0246885D01*
X0112064Y0246846D01*
X0112181Y0246804D01*
X0112297Y0246757D01*
X0112411Y0246707D01*
X0112524Y0246654D01*
X0112635Y0246596D01*
X0112745Y0246536D01*
X0112852Y0246471D01*
X0112957Y0246404D01*
X0113060Y0246333D01*
X0113160Y0246259D01*
X0113258Y0246182D01*
X0113354Y0246101D01*
X0113447Y0246018D01*
X0113538Y0245932D01*
X0113625Y0245843D01*
X0113710Y0245751D01*
X0113792Y0245657D01*
X0113871Y0245560D01*
X0113946Y0245460D01*
X0114019Y0245359D01*
X0114088Y0245255D01*
X0114154Y0245148D01*
X0114216Y0245040D01*
X0114275Y0244930D01*
X0114331Y0244818D01*
X0114383Y0244704D01*
X0114431Y0244589D01*
X0114476Y0244473D01*
X0114516Y0244354D01*
X0114554Y0244235D01*
X0114587Y0244115D01*
X0114616Y0243993D01*
X0114642Y0243871D01*
X0114664Y0243748D01*
X0114681Y0243624D01*
X0114695Y0243500D01*
X0114705Y0243376D01*
X0114711Y0243251D01*
X0114713Y0243126D01*
X0114711Y0243001D01*
X0114705Y0242876D01*
X0114695Y0242752D01*
X0114681Y0242628D01*
X0114664Y0242504D01*
X0114642Y0242381D01*
X0114616Y0242259D01*
X0114587Y0242137D01*
X0114554Y0242017D01*
X0114516Y0241898D01*
X0114476Y0241779D01*
X0114431Y0241663D01*
X0114383Y0241548D01*
X0114331Y0241434D01*
X0114275Y0241322D01*
X0114216Y0241212D01*
X0114154Y0241104D01*
X0114088Y0240997D01*
X0114019Y0240893D01*
X0113946Y0240792D01*
X0113871Y0240692D01*
X0113792Y0240595D01*
X0113710Y0240501D01*
X0113625Y0240409D01*
X0113538Y0240320D01*
X0113447Y0240234D01*
X0113354Y0240151D01*
X0113258Y0240070D01*
X0113160Y0239993D01*
X0113060Y0239919D01*
X0112957Y0239848D01*
X0112852Y0239781D01*
X0112744Y0239716D01*
X0112635Y0239656D01*
X0112524Y0239598D01*
X0112411Y0239545D01*
X0112297Y0239495D01*
X0112181Y0239448D01*
X0112064Y0239406D01*
X0111945Y0239367D01*
X0111825Y0239331D01*
X0111704Y0239300D01*
X0111582Y0239272D01*
X0111460Y0239249D01*
X0111336Y0239229D01*
X0111212Y0239213D01*
X0111088Y0239201D01*
X0110963Y0239193D01*
X0110838Y0239189D01*
X0110714Y0239189D01*
X0110589Y0239193D01*
X0110464Y0239201D01*
X0110340Y0239213D01*
X0110216Y0239229D01*
X0110092Y0239249D01*
X0109970Y0239272D01*
X0109848Y0239300D01*
X0109727Y0239331D01*
X0109607Y0239367D01*
X0109488Y0239406D01*
X0109371Y0239448D01*
X0109255Y0239495D01*
X0109141Y0239545D01*
X0109028Y0239598D01*
X0108917Y0239656D01*
X0108807Y0239716D01*
X0108700Y0239781D01*
X0108595Y0239848D01*
X0108492Y0239919D01*
X0108392Y0239993D01*
X0108294Y0240070D01*
X0108198Y0240151D01*
X0108105Y0240234D01*
X0108014Y0240320D01*
X0107927Y0240409D01*
X0107842Y0240501D01*
X0107760Y0240595D01*
X0107681Y0240692D01*
X0107606Y0240792D01*
X0107533Y0240893D01*
X0107464Y0240997D01*
X0107398Y0241104D01*
X0107336Y0241212D01*
X0107277Y0241322D01*
X0107221Y0241434D01*
X0107169Y0241548D01*
X0107121Y0241663D01*
X0107076Y0241779D01*
X0107036Y0241898D01*
X0106998Y0242017D01*
X0106965Y0242137D01*
X0106936Y0242259D01*
X0106910Y0242381D01*
X0106888Y0242504D01*
X0106871Y0242628D01*
X0106857Y0242752D01*
X0106847Y0242876D01*
X0106841Y0243001D01*
X0106839Y0243126D01*
X0085185Y0243126D02*
X0085187Y0243251D01*
X0085193Y0243376D01*
X0085203Y0243500D01*
X0085217Y0243624D01*
X0085234Y0243748D01*
X0085256Y0243871D01*
X0085282Y0243993D01*
X0085311Y0244115D01*
X0085344Y0244235D01*
X0085382Y0244354D01*
X0085422Y0244473D01*
X0085467Y0244589D01*
X0085515Y0244704D01*
X0085567Y0244818D01*
X0085623Y0244930D01*
X0085682Y0245040D01*
X0085744Y0245148D01*
X0085810Y0245255D01*
X0085879Y0245359D01*
X0085952Y0245460D01*
X0086027Y0245560D01*
X0086106Y0245657D01*
X0086188Y0245751D01*
X0086273Y0245843D01*
X0086360Y0245932D01*
X0086451Y0246018D01*
X0086544Y0246101D01*
X0086640Y0246182D01*
X0086738Y0246259D01*
X0086838Y0246333D01*
X0086941Y0246404D01*
X0087046Y0246471D01*
X0087154Y0246536D01*
X0087263Y0246596D01*
X0087374Y0246654D01*
X0087487Y0246707D01*
X0087601Y0246757D01*
X0087717Y0246804D01*
X0087834Y0246846D01*
X0087953Y0246885D01*
X0088073Y0246921D01*
X0088194Y0246952D01*
X0088316Y0246980D01*
X0088438Y0247003D01*
X0088562Y0247023D01*
X0088686Y0247039D01*
X0088810Y0247051D01*
X0088935Y0247059D01*
X0089060Y0247063D01*
X0089184Y0247063D01*
X0089309Y0247059D01*
X0089434Y0247051D01*
X0089558Y0247039D01*
X0089682Y0247023D01*
X0089806Y0247003D01*
X0089928Y0246980D01*
X0090050Y0246952D01*
X0090171Y0246921D01*
X0090291Y0246885D01*
X0090410Y0246846D01*
X0090527Y0246804D01*
X0090643Y0246757D01*
X0090757Y0246707D01*
X0090870Y0246654D01*
X0090981Y0246596D01*
X0091091Y0246536D01*
X0091198Y0246471D01*
X0091303Y0246404D01*
X0091406Y0246333D01*
X0091506Y0246259D01*
X0091604Y0246182D01*
X0091700Y0246101D01*
X0091793Y0246018D01*
X0091884Y0245932D01*
X0091971Y0245843D01*
X0092056Y0245751D01*
X0092138Y0245657D01*
X0092217Y0245560D01*
X0092292Y0245460D01*
X0092365Y0245359D01*
X0092434Y0245255D01*
X0092500Y0245148D01*
X0092562Y0245040D01*
X0092621Y0244930D01*
X0092677Y0244818D01*
X0092729Y0244704D01*
X0092777Y0244589D01*
X0092822Y0244473D01*
X0092862Y0244354D01*
X0092900Y0244235D01*
X0092933Y0244115D01*
X0092962Y0243993D01*
X0092988Y0243871D01*
X0093010Y0243748D01*
X0093027Y0243624D01*
X0093041Y0243500D01*
X0093051Y0243376D01*
X0093057Y0243251D01*
X0093059Y0243126D01*
X0093057Y0243001D01*
X0093051Y0242876D01*
X0093041Y0242752D01*
X0093027Y0242628D01*
X0093010Y0242504D01*
X0092988Y0242381D01*
X0092962Y0242259D01*
X0092933Y0242137D01*
X0092900Y0242017D01*
X0092862Y0241898D01*
X0092822Y0241779D01*
X0092777Y0241663D01*
X0092729Y0241548D01*
X0092677Y0241434D01*
X0092621Y0241322D01*
X0092562Y0241212D01*
X0092500Y0241104D01*
X0092434Y0240997D01*
X0092365Y0240893D01*
X0092292Y0240792D01*
X0092217Y0240692D01*
X0092138Y0240595D01*
X0092056Y0240501D01*
X0091971Y0240409D01*
X0091884Y0240320D01*
X0091793Y0240234D01*
X0091700Y0240151D01*
X0091604Y0240070D01*
X0091506Y0239993D01*
X0091406Y0239919D01*
X0091303Y0239848D01*
X0091198Y0239781D01*
X0091090Y0239716D01*
X0090981Y0239656D01*
X0090870Y0239598D01*
X0090757Y0239545D01*
X0090643Y0239495D01*
X0090527Y0239448D01*
X0090410Y0239406D01*
X0090291Y0239367D01*
X0090171Y0239331D01*
X0090050Y0239300D01*
X0089928Y0239272D01*
X0089806Y0239249D01*
X0089682Y0239229D01*
X0089558Y0239213D01*
X0089434Y0239201D01*
X0089309Y0239193D01*
X0089184Y0239189D01*
X0089060Y0239189D01*
X0088935Y0239193D01*
X0088810Y0239201D01*
X0088686Y0239213D01*
X0088562Y0239229D01*
X0088438Y0239249D01*
X0088316Y0239272D01*
X0088194Y0239300D01*
X0088073Y0239331D01*
X0087953Y0239367D01*
X0087834Y0239406D01*
X0087717Y0239448D01*
X0087601Y0239495D01*
X0087487Y0239545D01*
X0087374Y0239598D01*
X0087263Y0239656D01*
X0087153Y0239716D01*
X0087046Y0239781D01*
X0086941Y0239848D01*
X0086838Y0239919D01*
X0086738Y0239993D01*
X0086640Y0240070D01*
X0086544Y0240151D01*
X0086451Y0240234D01*
X0086360Y0240320D01*
X0086273Y0240409D01*
X0086188Y0240501D01*
X0086106Y0240595D01*
X0086027Y0240692D01*
X0085952Y0240792D01*
X0085879Y0240893D01*
X0085810Y0240997D01*
X0085744Y0241104D01*
X0085682Y0241212D01*
X0085623Y0241322D01*
X0085567Y0241434D01*
X0085515Y0241548D01*
X0085467Y0241663D01*
X0085422Y0241779D01*
X0085382Y0241898D01*
X0085344Y0242017D01*
X0085311Y0242137D01*
X0085282Y0242259D01*
X0085256Y0242381D01*
X0085234Y0242504D01*
X0085217Y0242628D01*
X0085203Y0242752D01*
X0085193Y0242876D01*
X0085187Y0243001D01*
X0085185Y0243126D01*
D11*
X0065276Y0204997D02*
X0063741Y0204997D01*
X0062974Y0204230D01*
X0062974Y0203462D01*
X0063741Y0202695D01*
X0065276Y0202695D01*
X0066043Y0201928D01*
X0066043Y0201160D01*
X0065276Y0200393D01*
X0063741Y0200393D01*
X0062974Y0201160D01*
X0061439Y0200393D02*
X0061439Y0204997D01*
X0058370Y0204997D02*
X0061439Y0200393D01*
X0058370Y0200393D02*
X0058370Y0204997D01*
X0056835Y0204230D02*
X0056835Y0201160D01*
X0056068Y0200393D01*
X0054533Y0200393D01*
X0053766Y0201160D01*
X0053766Y0204230D01*
X0054533Y0204997D01*
X0056068Y0204997D01*
X0056835Y0204230D01*
X0052232Y0204997D02*
X0049162Y0204997D01*
X0047628Y0204997D02*
X0044558Y0204997D01*
X0043024Y0204997D02*
X0043024Y0201160D01*
X0042256Y0200393D01*
X0040722Y0200393D01*
X0039954Y0201160D01*
X0039954Y0204997D01*
X0038420Y0204230D02*
X0038420Y0203462D01*
X0037652Y0202695D01*
X0035350Y0202695D01*
X0035350Y0204997D02*
X0037652Y0204997D01*
X0038420Y0204230D01*
X0037652Y0202695D02*
X0038420Y0201928D01*
X0038420Y0201160D01*
X0037652Y0200393D01*
X0035350Y0200393D01*
X0035350Y0204997D01*
X0033816Y0199626D02*
X0030747Y0199626D01*
X0029212Y0200393D02*
X0026143Y0200393D01*
X0026143Y0204997D01*
X0046093Y0204997D02*
X0046093Y0200393D01*
X0050697Y0200393D02*
X0050697Y0204997D01*
X0065276Y0204997D02*
X0066043Y0204230D01*
X0081140Y0188284D02*
X0081140Y0183680D01*
X0079606Y0183680D02*
X0082675Y0183680D01*
X0079606Y0186750D02*
X0081140Y0188284D01*
X0071716Y0164643D02*
X0071716Y0160039D01*
X0070181Y0161573D01*
X0068646Y0160039D01*
X0068646Y0164643D01*
X0067112Y0163875D02*
X0066345Y0164643D01*
X0064810Y0164643D01*
X0064043Y0163875D01*
X0064043Y0160806D01*
X0064810Y0160039D01*
X0066345Y0160039D01*
X0067112Y0160806D01*
X0067112Y0163875D01*
X0062508Y0163875D02*
X0062508Y0162341D01*
X0061741Y0161573D01*
X0059439Y0161573D01*
X0059439Y0160039D02*
X0059439Y0164643D01*
X0061741Y0164643D01*
X0062508Y0163875D01*
X0057904Y0159271D02*
X0054835Y0159271D01*
X0052533Y0161573D02*
X0050231Y0161573D01*
X0050231Y0160039D02*
X0050231Y0164643D01*
X0052533Y0164643D01*
X0053300Y0163875D01*
X0053300Y0162341D01*
X0052533Y0161573D01*
X0048696Y0161573D02*
X0048696Y0160806D01*
X0047929Y0160039D01*
X0046394Y0160039D01*
X0045627Y0160806D01*
X0046394Y0162341D02*
X0045627Y0163108D01*
X0045627Y0163875D01*
X0046394Y0164643D01*
X0047929Y0164643D01*
X0048696Y0163875D01*
X0047929Y0162341D02*
X0048696Y0161573D01*
X0047929Y0162341D02*
X0046394Y0162341D01*
X0044092Y0164643D02*
X0042558Y0164643D01*
X0043325Y0164643D02*
X0043325Y0160039D01*
X0042558Y0160039D02*
X0044092Y0160039D01*
X0041023Y0160806D02*
X0041023Y0163875D01*
X0040256Y0164643D01*
X0037954Y0164643D01*
X0037954Y0160039D01*
X0040256Y0160039D01*
X0041023Y0160806D01*
X0108623Y0158146D02*
X0108623Y0153543D01*
X0110925Y0153543D01*
X0111692Y0154310D01*
X0111692Y0157379D01*
X0110925Y0158146D01*
X0108623Y0158146D01*
X0113227Y0158146D02*
X0114761Y0158146D01*
X0113994Y0158146D02*
X0113994Y0153543D01*
X0113227Y0153543D02*
X0114761Y0153543D01*
X0116296Y0154310D02*
X0117063Y0153543D01*
X0118598Y0153543D01*
X0119365Y0154310D01*
X0119365Y0155077D01*
X0118598Y0155844D01*
X0117063Y0155844D01*
X0116296Y0156612D01*
X0116296Y0157379D01*
X0117063Y0158146D01*
X0118598Y0158146D01*
X0119365Y0157379D01*
X0120900Y0158146D02*
X0123202Y0158146D01*
X0123969Y0157379D01*
X0123969Y0155844D01*
X0123202Y0155077D01*
X0120900Y0155077D01*
X0120900Y0153543D02*
X0120900Y0158146D01*
X0125504Y0152775D02*
X0128573Y0152775D01*
X0130108Y0153543D02*
X0132410Y0153543D01*
X0133177Y0154310D01*
X0133177Y0157379D01*
X0132410Y0158146D01*
X0130108Y0158146D01*
X0130108Y0153543D01*
X0134712Y0153543D02*
X0134712Y0156612D01*
X0136246Y0158146D01*
X0137781Y0156612D01*
X0137781Y0153543D01*
X0137781Y0155844D02*
X0134712Y0155844D01*
X0139316Y0158146D02*
X0142385Y0158146D01*
X0140850Y0158146D02*
X0140850Y0153543D01*
X0143920Y0153543D02*
X0143920Y0156612D01*
X0145454Y0158146D01*
X0146989Y0156612D01*
X0146989Y0153543D01*
X0146989Y0155844D02*
X0143920Y0155844D01*
X0177923Y0182499D02*
X0177923Y0187103D01*
X0175621Y0184801D01*
X0178691Y0184801D01*
X0180225Y0183267D02*
X0183295Y0186336D01*
X0183295Y0183267D01*
X0182527Y0182499D01*
X0180993Y0182499D01*
X0180225Y0183267D01*
X0180225Y0186336D01*
X0180993Y0187103D01*
X0182527Y0187103D01*
X0183295Y0186336D01*
X0195432Y0192670D02*
X0195432Y0194538D01*
X0195899Y0195006D01*
X0196833Y0195006D01*
X0197300Y0194538D01*
X0198378Y0194538D02*
X0198378Y0194071D01*
X0198845Y0193604D01*
X0200246Y0193604D01*
X0200246Y0192670D02*
X0200246Y0194538D01*
X0199779Y0195006D01*
X0198845Y0195006D01*
X0198378Y0194538D01*
X0198378Y0192670D02*
X0198845Y0192203D01*
X0199779Y0192203D01*
X0200246Y0192670D01*
X0197300Y0192670D02*
X0196833Y0192203D01*
X0195899Y0192203D01*
X0195432Y0192670D01*
X0206090Y0213523D02*
X0206090Y0215825D01*
X0206857Y0216592D01*
X0208392Y0216592D01*
X0209159Y0215825D01*
X0209159Y0213523D01*
X0209159Y0215057D02*
X0210694Y0216592D01*
X0210694Y0218127D02*
X0210694Y0221196D01*
X0210694Y0219661D02*
X0206090Y0219661D01*
X0207625Y0218127D01*
X0206857Y0222731D02*
X0206090Y0223498D01*
X0206090Y0225033D01*
X0206857Y0225800D01*
X0209926Y0222731D01*
X0210694Y0223498D01*
X0210694Y0225033D01*
X0209926Y0225800D01*
X0206857Y0225800D01*
X0206857Y0222731D02*
X0209926Y0222731D01*
X0213767Y0220232D02*
X0213767Y0218697D01*
X0214534Y0217930D01*
X0215302Y0217930D01*
X0216069Y0218697D01*
X0216069Y0220999D01*
X0217604Y0220999D02*
X0214534Y0220999D01*
X0213767Y0220232D01*
X0217604Y0220999D02*
X0218371Y0220232D01*
X0218371Y0218697D01*
X0217604Y0217930D01*
X0218371Y0216395D02*
X0216836Y0214861D01*
X0216836Y0215628D02*
X0216836Y0213326D01*
X0218371Y0213326D02*
X0213767Y0213326D01*
X0213767Y0215628D01*
X0214534Y0216395D01*
X0216069Y0216395D01*
X0216836Y0215628D01*
X0221641Y0215431D02*
X0221641Y0213129D01*
X0226245Y0213129D01*
X0224710Y0213129D02*
X0224710Y0215431D01*
X0223943Y0216198D01*
X0222408Y0216198D01*
X0221641Y0215431D01*
X0222408Y0217733D02*
X0221641Y0218500D01*
X0221641Y0220035D01*
X0222408Y0220802D01*
X0223176Y0220802D01*
X0223943Y0220035D01*
X0224710Y0220802D01*
X0225478Y0220802D01*
X0226245Y0220035D01*
X0226245Y0218500D01*
X0225478Y0217733D01*
X0226245Y0216198D02*
X0224710Y0214664D01*
X0223943Y0219268D02*
X0223943Y0220035D01*
X0231484Y0219661D02*
X0233018Y0218127D01*
X0232251Y0216592D02*
X0233786Y0216592D01*
X0234553Y0215825D01*
X0234553Y0213523D01*
X0234553Y0215057D02*
X0236087Y0216592D01*
X0236087Y0218127D02*
X0236087Y0221196D01*
X0236087Y0219661D02*
X0231484Y0219661D01*
X0232251Y0216592D02*
X0231484Y0215825D01*
X0231484Y0213523D01*
X0236087Y0213523D01*
X0240342Y0213523D02*
X0240342Y0215825D01*
X0241109Y0216592D01*
X0242644Y0216592D01*
X0243411Y0215825D01*
X0243411Y0213523D01*
X0243411Y0215057D02*
X0244946Y0216592D01*
X0244946Y0218127D02*
X0244946Y0221196D01*
X0244946Y0219661D02*
X0240342Y0219661D01*
X0241876Y0218127D01*
X0240342Y0213523D02*
X0244946Y0213523D01*
X0251169Y0214113D02*
X0251169Y0216415D01*
X0251936Y0217183D01*
X0253471Y0217183D01*
X0254238Y0216415D01*
X0254238Y0214113D01*
X0255773Y0214113D02*
X0251169Y0214113D01*
X0254238Y0215648D02*
X0255773Y0217183D01*
X0255773Y0218717D02*
X0252703Y0221787D01*
X0251936Y0221787D01*
X0251169Y0221019D01*
X0251169Y0219485D01*
X0251936Y0218717D01*
X0255773Y0218717D02*
X0255773Y0221787D01*
X0236087Y0222731D02*
X0236087Y0225800D01*
X0236087Y0224265D02*
X0231484Y0224265D01*
X0233018Y0222731D01*
X0210694Y0213523D02*
X0206090Y0213523D01*
X0184520Y0235274D02*
X0184520Y0236042D01*
X0183752Y0236809D01*
X0181450Y0236809D01*
X0181450Y0235274D01*
X0182218Y0234507D01*
X0183752Y0234507D01*
X0184520Y0235274D01*
X0182985Y0238344D02*
X0181450Y0236809D01*
X0182985Y0238344D02*
X0184520Y0239111D01*
X0181647Y0242578D02*
X0181647Y0243345D01*
X0184717Y0246415D01*
X0184717Y0247182D01*
X0181647Y0247182D01*
X0178578Y0247182D02*
X0178578Y0242578D01*
X0177043Y0242578D02*
X0180113Y0242578D01*
X0178381Y0239111D02*
X0178381Y0234507D01*
X0176847Y0234507D02*
X0179916Y0234507D01*
X0176847Y0237576D02*
X0178381Y0239111D01*
X0175312Y0238344D02*
X0175312Y0236809D01*
X0174545Y0236042D01*
X0172243Y0236042D01*
X0173777Y0236042D02*
X0175312Y0234507D01*
X0172243Y0234507D02*
X0172243Y0239111D01*
X0174545Y0239111D01*
X0175312Y0238344D01*
X0175509Y0242578D02*
X0173974Y0244113D01*
X0174741Y0244113D02*
X0172439Y0244113D01*
X0172439Y0242578D02*
X0172439Y0247182D01*
X0174741Y0247182D01*
X0175509Y0246415D01*
X0175509Y0244880D01*
X0174741Y0244113D01*
X0177043Y0245647D02*
X0178578Y0247182D01*
X0178972Y0251043D02*
X0178972Y0255646D01*
X0177437Y0254112D01*
X0175902Y0254879D02*
X0175902Y0253344D01*
X0175135Y0252577D01*
X0172833Y0252577D01*
X0172833Y0251043D02*
X0172833Y0255646D01*
X0175135Y0255646D01*
X0175902Y0254879D01*
X0174368Y0252577D02*
X0175902Y0251043D01*
X0177437Y0251043D02*
X0180506Y0251043D01*
X0182041Y0251810D02*
X0182808Y0251043D01*
X0184343Y0251043D01*
X0185110Y0251810D01*
X0185110Y0253344D01*
X0184343Y0254112D01*
X0183576Y0254112D01*
X0182041Y0253344D01*
X0182041Y0255646D01*
X0185110Y0255646D01*
X0144015Y0206831D02*
X0142147Y0206831D01*
X0141069Y0206364D02*
X0140602Y0206831D01*
X0139668Y0206831D01*
X0139201Y0206364D01*
X0139201Y0204496D01*
X0139668Y0204029D01*
X0140602Y0204029D01*
X0141069Y0204496D01*
X0142147Y0204496D02*
X0142147Y0204029D01*
X0142147Y0204496D02*
X0144015Y0206364D01*
X0144015Y0206831D01*
X0143085Y0199200D02*
X0142151Y0199200D01*
X0141684Y0198733D01*
X0141684Y0196864D01*
X0143552Y0198733D01*
X0143552Y0196864D01*
X0143085Y0196397D01*
X0142151Y0196397D01*
X0141684Y0196864D01*
X0140606Y0196397D02*
X0138738Y0196397D01*
X0139672Y0196397D02*
X0139672Y0199200D01*
X0138738Y0198266D01*
X0137659Y0198733D02*
X0137192Y0199200D01*
X0136258Y0199200D01*
X0135791Y0198733D01*
X0135791Y0196864D01*
X0136258Y0196397D01*
X0137192Y0196397D01*
X0137659Y0196864D01*
X0143085Y0199200D02*
X0143552Y0198733D01*
X0256339Y0178777D02*
X0256339Y0175707D01*
X0257107Y0174940D01*
X0258641Y0174940D01*
X0259409Y0175707D01*
X0259409Y0177242D01*
X0257874Y0177242D01*
X0256339Y0178777D02*
X0257107Y0179544D01*
X0258641Y0179544D01*
X0259409Y0178777D01*
X0260943Y0179544D02*
X0264013Y0174940D01*
X0264013Y0179544D01*
X0265547Y0179544D02*
X0267849Y0179544D01*
X0268617Y0178777D01*
X0268617Y0175707D01*
X0267849Y0174940D01*
X0265547Y0174940D01*
X0265547Y0179544D01*
X0260943Y0179544D02*
X0260943Y0174940D01*
X0270151Y0177242D02*
X0273221Y0177242D01*
X0272453Y0174940D02*
X0272453Y0179544D01*
X0270151Y0177242D01*
X0269758Y0165371D02*
X0272827Y0165371D01*
X0271292Y0165371D02*
X0271292Y0160767D01*
X0268223Y0160767D02*
X0268223Y0163836D01*
X0266688Y0165371D01*
X0265154Y0163836D01*
X0265154Y0160767D01*
X0263619Y0161534D02*
X0262852Y0160767D01*
X0260550Y0160767D01*
X0260550Y0165371D01*
X0262852Y0165371D01*
X0263619Y0164604D01*
X0263619Y0163836D01*
X0262852Y0163069D01*
X0260550Y0163069D01*
X0262852Y0163069D02*
X0263619Y0162302D01*
X0263619Y0161534D01*
X0265154Y0163069D02*
X0268223Y0163069D01*
X0303702Y0223228D02*
X0303702Y0227831D01*
X0306004Y0227831D01*
X0306771Y0227064D01*
X0306771Y0225530D01*
X0306004Y0224762D01*
X0303702Y0224762D01*
X0305236Y0224762D02*
X0306771Y0223228D01*
X0308306Y0222460D02*
X0311375Y0222460D01*
X0312910Y0223228D02*
X0315211Y0223228D01*
X0315979Y0223995D01*
X0315979Y0224762D01*
X0315211Y0225530D01*
X0312910Y0225530D01*
X0315211Y0225530D02*
X0315979Y0226297D01*
X0315979Y0227064D01*
X0315211Y0227831D01*
X0312910Y0227831D01*
X0312910Y0223228D01*
X0317513Y0223995D02*
X0318281Y0223228D01*
X0319815Y0223228D01*
X0320583Y0223995D01*
X0320583Y0227831D01*
X0322117Y0227831D02*
X0325187Y0227831D01*
X0326721Y0227831D02*
X0329791Y0227831D01*
X0328256Y0227831D02*
X0328256Y0223228D01*
X0331325Y0223995D02*
X0331325Y0227064D01*
X0332093Y0227831D01*
X0333627Y0227831D01*
X0334395Y0227064D01*
X0334395Y0223995D01*
X0333627Y0223228D01*
X0332093Y0223228D01*
X0331325Y0223995D01*
X0335929Y0223228D02*
X0335929Y0227831D01*
X0338998Y0223228D01*
X0338998Y0227831D01*
X0340533Y0227064D02*
X0341300Y0227831D01*
X0342835Y0227831D01*
X0343602Y0227064D01*
X0342835Y0225530D02*
X0343602Y0224762D01*
X0343602Y0223995D01*
X0342835Y0223228D01*
X0341300Y0223228D01*
X0340533Y0223995D01*
X0341300Y0225530D02*
X0342835Y0225530D01*
X0341300Y0225530D02*
X0340533Y0226297D01*
X0340533Y0227064D01*
X0323652Y0227831D02*
X0323652Y0223228D01*
X0317513Y0223995D02*
X0317513Y0227831D01*
X0323052Y0090371D02*
X0322284Y0089604D01*
X0322284Y0086534D01*
X0323052Y0085767D01*
X0324586Y0085767D01*
X0325354Y0086534D01*
X0325354Y0088069D01*
X0323819Y0088069D01*
X0325354Y0089604D02*
X0324586Y0090371D01*
X0323052Y0090371D01*
X0326888Y0090371D02*
X0329958Y0085767D01*
X0329958Y0090371D01*
X0331492Y0090371D02*
X0333794Y0090371D01*
X0334561Y0089604D01*
X0334561Y0086534D01*
X0333794Y0085767D01*
X0331492Y0085767D01*
X0331492Y0090371D01*
X0336096Y0089604D02*
X0336863Y0090371D01*
X0338398Y0090371D01*
X0339165Y0089604D01*
X0339165Y0088836D01*
X0338398Y0088069D01*
X0339165Y0087302D01*
X0339165Y0086534D01*
X0338398Y0085767D01*
X0336863Y0085767D01*
X0336096Y0086534D01*
X0337631Y0088069D02*
X0338398Y0088069D01*
X0326888Y0085767D02*
X0326888Y0090371D01*
X0326495Y0073442D02*
X0323425Y0073442D01*
X0323425Y0068838D01*
X0326495Y0068838D01*
X0328029Y0068838D02*
X0328029Y0073442D01*
X0330331Y0073442D01*
X0331098Y0072674D01*
X0331098Y0071140D01*
X0330331Y0070372D01*
X0328029Y0070372D01*
X0329564Y0070372D02*
X0331098Y0068838D01*
X0332633Y0068838D02*
X0334168Y0068838D01*
X0333400Y0068838D02*
X0333400Y0073442D01*
X0332633Y0073442D02*
X0334168Y0073442D01*
X0335702Y0073442D02*
X0338772Y0068838D01*
X0338772Y0073442D01*
X0335702Y0073442D02*
X0335702Y0068838D01*
X0324960Y0071140D02*
X0323425Y0071140D01*
X0321891Y0068838D02*
X0321891Y0073442D01*
X0318821Y0073442D02*
X0318821Y0068838D01*
X0320356Y0070372D01*
X0321891Y0068838D01*
X0317287Y0069605D02*
X0317287Y0072674D01*
X0316519Y0073442D01*
X0314985Y0073442D01*
X0314217Y0072674D01*
X0314217Y0069605D01*
X0314985Y0068838D01*
X0316519Y0068838D01*
X0317287Y0069605D01*
X0312683Y0071140D02*
X0311915Y0070372D01*
X0309614Y0070372D01*
X0309614Y0068838D02*
X0309614Y0073442D01*
X0311915Y0073442D01*
X0312683Y0072674D01*
X0312683Y0071140D01*
D12*
X0132782Y0105041D02*
X0132032Y0104291D01*
X0129780Y0104291D01*
X0129780Y0102789D02*
X0129780Y0107293D01*
X0132032Y0107293D01*
X0132782Y0106543D01*
X0132782Y0105041D01*
X0128179Y0103540D02*
X0128179Y0106543D01*
X0127428Y0107293D01*
X0125927Y0107293D01*
X0125176Y0106543D01*
X0125176Y0103540D01*
X0125927Y0102789D01*
X0127428Y0102789D01*
X0128179Y0103540D01*
X0123575Y0102789D02*
X0123575Y0107293D01*
X0123575Y0105041D02*
X0120572Y0105041D01*
X0118971Y0104291D02*
X0118971Y0103540D01*
X0118220Y0102789D01*
X0116719Y0102789D01*
X0115968Y0103540D01*
X0116719Y0105041D02*
X0118220Y0105041D01*
X0118971Y0104291D01*
X0120572Y0102789D02*
X0120572Y0107293D01*
X0118971Y0106543D02*
X0118220Y0107293D01*
X0116719Y0107293D01*
X0115968Y0106543D01*
X0115968Y0105792D01*
X0116719Y0105041D01*
X0114367Y0105041D02*
X0113616Y0104291D01*
X0111364Y0104291D01*
X0111364Y0102789D02*
X0111364Y0107293D01*
X0113616Y0107293D01*
X0114367Y0106543D01*
X0114367Y0105041D01*
X0109796Y0102789D02*
X0108295Y0102789D01*
X0109046Y0102789D02*
X0109046Y0107293D01*
X0109796Y0107293D02*
X0108295Y0107293D01*
X0106694Y0106543D02*
X0105943Y0107293D01*
X0103691Y0107293D01*
X0103691Y0102789D01*
X0105943Y0102789D01*
X0106694Y0103540D01*
X0106694Y0106543D01*
X0102090Y0106543D02*
X0101339Y0107293D01*
X0099087Y0107293D01*
X0099087Y0102789D01*
X0099087Y0104291D02*
X0101339Y0104291D01*
X0102090Y0105041D01*
X0102090Y0106543D01*
X0097519Y0107293D02*
X0096018Y0107293D01*
X0096768Y0107293D02*
X0096768Y0102789D01*
X0096018Y0102789D02*
X0097519Y0102789D01*
X0094416Y0102789D02*
X0094416Y0107293D01*
X0094416Y0105041D02*
X0091414Y0105041D01*
X0089813Y0103540D02*
X0089062Y0102789D01*
X0087561Y0102789D01*
X0086810Y0103540D01*
X0086810Y0106543D01*
X0087561Y0107293D01*
X0089062Y0107293D01*
X0089813Y0106543D01*
X0091414Y0107293D02*
X0091414Y0102789D01*
D13*
X0090107Y0110631D02*
X0086173Y0110631D01*
X0084206Y0112599D01*
X0084206Y0120467D01*
X0086173Y0122434D01*
X0090107Y0122434D01*
X0092074Y0120467D01*
X0096169Y0120467D02*
X0096169Y0118500D01*
X0098136Y0116533D01*
X0102070Y0116533D01*
X0104037Y0114566D01*
X0104037Y0112599D01*
X0102070Y0110631D01*
X0098136Y0110631D01*
X0096169Y0112599D01*
X0092074Y0112599D02*
X0090107Y0110631D01*
X0096169Y0120467D02*
X0098136Y0122434D01*
X0102070Y0122434D01*
X0104037Y0120467D01*
X0108132Y0122434D02*
X0114033Y0122434D01*
X0116000Y0120467D01*
X0116000Y0116533D01*
X0114033Y0114566D01*
X0108132Y0114566D01*
X0108132Y0110631D02*
X0108132Y0122434D01*
X0132058Y0122434D02*
X0135992Y0122434D01*
X0134025Y0122434D02*
X0134025Y0110631D01*
X0132058Y0110631D02*
X0135992Y0110631D01*
D14*
X0173571Y0160055D02*
X0083413Y0160055D01*
X0083413Y0162811D01*
X0084595Y0162811D01*
X0084595Y0163992D01*
X0172390Y0163992D01*
X0173571Y0163992D01*
X0173571Y0165567D01*
X0172390Y0163992D02*
X0172390Y0162811D01*
X0173571Y0162811D01*
X0173571Y0160055D01*
X0173571Y0177378D02*
X0173571Y0181315D01*
X0168847Y0181315D01*
X0090894Y0162811D02*
X0089319Y0162811D01*
X0090106Y0161236D01*
X0090894Y0162811D01*
X0090638Y0162299D02*
X0089575Y0162299D01*
X0089974Y0161501D02*
X0090239Y0161501D01*
X0084595Y0163992D02*
X0083413Y0163992D01*
X0083413Y0165567D01*
X0083413Y0177378D02*
X0083413Y0181315D01*
X0088138Y0181315D01*
X0064122Y0184858D02*
X0064122Y0188795D01*
X0059398Y0188795D01*
X0049555Y0188795D02*
X0044831Y0188795D01*
X0044831Y0184858D01*
X0044831Y0173047D02*
X0044831Y0171472D01*
X0046012Y0171472D01*
X0062941Y0171472D01*
X0064122Y0171472D01*
X0064122Y0173047D01*
X0062941Y0171472D02*
X0062941Y0170291D01*
X0064122Y0170291D01*
X0064122Y0167535D01*
X0044831Y0167535D01*
X0044831Y0170291D01*
X0046012Y0170291D01*
X0046012Y0171472D01*
X0050736Y0170291D02*
X0052311Y0170291D01*
X0051524Y0168717D01*
X0050736Y0170291D01*
X0050740Y0170284D02*
X0052308Y0170284D01*
X0051908Y0169486D02*
X0051139Y0169486D01*
X0043256Y0211433D02*
X0040500Y0211433D01*
X0040500Y0212614D01*
X0039319Y0212614D01*
X0039319Y0241354D01*
X0039319Y0242535D01*
X0037744Y0242535D01*
X0039319Y0241354D02*
X0040500Y0241354D01*
X0040500Y0242535D01*
X0043256Y0242535D01*
X0043256Y0211433D01*
X0039319Y0211433D02*
X0037744Y0211433D01*
X0039319Y0211433D02*
X0039319Y0212614D01*
X0040500Y0217339D02*
X0040500Y0218913D01*
X0042075Y0218126D01*
X0040500Y0217339D01*
X0040500Y0217397D02*
X0040616Y0217397D01*
X0040500Y0218195D02*
X0041937Y0218195D01*
X0025933Y0211433D02*
X0021996Y0211433D01*
X0021996Y0216157D01*
X0021996Y0237811D02*
X0021996Y0242535D01*
X0025933Y0242535D01*
X0301917Y0214583D02*
X0301917Y0210646D01*
X0301917Y0214583D02*
X0306642Y0214583D01*
X0301917Y0198835D02*
X0301917Y0197260D01*
X0303099Y0197260D01*
X0359398Y0197260D01*
X0360579Y0197260D01*
X0360579Y0198835D01*
X0359398Y0197260D02*
X0359398Y0196079D01*
X0360579Y0196079D01*
X0360579Y0193323D01*
X0301917Y0193323D01*
X0301917Y0196079D01*
X0303099Y0196079D01*
X0303099Y0197260D01*
X0307823Y0196079D02*
X0309398Y0196079D01*
X0308610Y0194504D01*
X0307823Y0196079D01*
X0307944Y0195837D02*
X0309277Y0195837D01*
X0308877Y0195038D02*
X0308343Y0195038D01*
X0355854Y0214583D02*
X0360579Y0214583D01*
X0360579Y0210646D01*
D15*
X0241058Y0154642D02*
X0241058Y0117642D01*
X0241056Y0117566D01*
X0241050Y0117490D01*
X0241041Y0117415D01*
X0241027Y0117340D01*
X0241010Y0117266D01*
X0240989Y0117193D01*
X0240965Y0117121D01*
X0240936Y0117050D01*
X0240905Y0116981D01*
X0240870Y0116914D01*
X0240831Y0116849D01*
X0240789Y0116785D01*
X0240744Y0116724D01*
X0240696Y0116665D01*
X0240645Y0116609D01*
X0240591Y0116555D01*
X0240535Y0116504D01*
X0240476Y0116456D01*
X0240415Y0116411D01*
X0240351Y0116369D01*
X0240286Y0116330D01*
X0240219Y0116295D01*
X0240150Y0116264D01*
X0240079Y0116235D01*
X0240007Y0116211D01*
X0239934Y0116190D01*
X0239860Y0116173D01*
X0239785Y0116159D01*
X0239710Y0116150D01*
X0239634Y0116144D01*
X0239558Y0116142D01*
X0227158Y0116142D01*
X0227082Y0116144D01*
X0227006Y0116150D01*
X0226931Y0116159D01*
X0226856Y0116173D01*
X0226782Y0116190D01*
X0226709Y0116211D01*
X0226637Y0116235D01*
X0226566Y0116264D01*
X0226497Y0116295D01*
X0226430Y0116330D01*
X0226365Y0116369D01*
X0226301Y0116411D01*
X0226240Y0116456D01*
X0226181Y0116504D01*
X0226125Y0116555D01*
X0226071Y0116609D01*
X0226020Y0116665D01*
X0225972Y0116724D01*
X0225927Y0116785D01*
X0225885Y0116849D01*
X0225846Y0116914D01*
X0225811Y0116981D01*
X0225780Y0117050D01*
X0225751Y0117121D01*
X0225727Y0117193D01*
X0225706Y0117266D01*
X0225689Y0117340D01*
X0225675Y0117415D01*
X0225666Y0117490D01*
X0225660Y0117566D01*
X0225658Y0117642D01*
X0225658Y0154642D01*
X0225660Y0154718D01*
X0225666Y0154794D01*
X0225675Y0154869D01*
X0225689Y0154944D01*
X0225706Y0155018D01*
X0225727Y0155091D01*
X0225751Y0155163D01*
X0225780Y0155234D01*
X0225811Y0155303D01*
X0225846Y0155370D01*
X0225885Y0155435D01*
X0225927Y0155499D01*
X0225972Y0155560D01*
X0226020Y0155619D01*
X0226071Y0155675D01*
X0226125Y0155729D01*
X0226181Y0155780D01*
X0226240Y0155828D01*
X0226301Y0155873D01*
X0226365Y0155915D01*
X0226430Y0155954D01*
X0226497Y0155989D01*
X0226566Y0156020D01*
X0226637Y0156049D01*
X0226709Y0156073D01*
X0226782Y0156094D01*
X0226856Y0156111D01*
X0226931Y0156125D01*
X0227006Y0156134D01*
X0227082Y0156140D01*
X0227158Y0156142D01*
X0231358Y0156142D01*
X0235358Y0156142D01*
X0239558Y0156142D01*
X0239634Y0156140D01*
X0239710Y0156134D01*
X0239785Y0156125D01*
X0239860Y0156111D01*
X0239934Y0156094D01*
X0240007Y0156073D01*
X0240079Y0156049D01*
X0240150Y0156020D01*
X0240219Y0155989D01*
X0240286Y0155954D01*
X0240351Y0155915D01*
X0240415Y0155873D01*
X0240476Y0155828D01*
X0240535Y0155780D01*
X0240591Y0155729D01*
X0240645Y0155675D01*
X0240696Y0155619D01*
X0240744Y0155560D01*
X0240789Y0155499D01*
X0240831Y0155435D01*
X0240870Y0155370D01*
X0240905Y0155303D01*
X0240936Y0155234D01*
X0240965Y0155163D01*
X0240989Y0155091D01*
X0241010Y0155018D01*
X0241027Y0154944D01*
X0241041Y0154869D01*
X0241050Y0154794D01*
X0241056Y0154718D01*
X0241058Y0154642D01*
X0235358Y0156142D02*
X0235356Y0156054D01*
X0235350Y0155965D01*
X0235340Y0155877D01*
X0235327Y0155790D01*
X0235309Y0155703D01*
X0235288Y0155617D01*
X0235263Y0155532D01*
X0235234Y0155449D01*
X0235201Y0155366D01*
X0235165Y0155286D01*
X0235126Y0155207D01*
X0235083Y0155129D01*
X0235036Y0155054D01*
X0234986Y0154981D01*
X0234933Y0154910D01*
X0234877Y0154841D01*
X0234818Y0154775D01*
X0234756Y0154712D01*
X0234692Y0154652D01*
X0234625Y0154594D01*
X0234555Y0154540D01*
X0234483Y0154488D01*
X0234409Y0154440D01*
X0234332Y0154395D01*
X0234254Y0154354D01*
X0234174Y0154316D01*
X0234093Y0154282D01*
X0234010Y0154251D01*
X0233925Y0154224D01*
X0233840Y0154201D01*
X0233754Y0154182D01*
X0233666Y0154166D01*
X0233579Y0154154D01*
X0233491Y0154146D01*
X0233402Y0154142D01*
X0233314Y0154142D01*
X0233225Y0154146D01*
X0233137Y0154154D01*
X0233050Y0154166D01*
X0232962Y0154182D01*
X0232876Y0154201D01*
X0232791Y0154224D01*
X0232706Y0154251D01*
X0232623Y0154282D01*
X0232542Y0154316D01*
X0232462Y0154354D01*
X0232384Y0154395D01*
X0232307Y0154440D01*
X0232233Y0154488D01*
X0232161Y0154540D01*
X0232091Y0154594D01*
X0232024Y0154652D01*
X0231960Y0154712D01*
X0231898Y0154775D01*
X0231839Y0154841D01*
X0231783Y0154910D01*
X0231730Y0154981D01*
X0231680Y0155054D01*
X0231633Y0155129D01*
X0231590Y0155207D01*
X0231551Y0155286D01*
X0231515Y0155366D01*
X0231482Y0155449D01*
X0231453Y0155532D01*
X0231428Y0155617D01*
X0231407Y0155703D01*
X0231389Y0155790D01*
X0231376Y0155877D01*
X0231366Y0155965D01*
X0231360Y0156054D01*
X0231358Y0156142D01*
X0338445Y0059906D02*
X0338445Y0058906D01*
X0338445Y0059906D02*
X0339445Y0059906D01*
X0343445Y0059906D02*
X0344445Y0059906D01*
X0344445Y0058906D01*
X0344445Y0054906D02*
X0344445Y0053906D01*
X0343445Y0053906D01*
X0339445Y0053906D02*
X0338445Y0053906D01*
X0338445Y0054906D01*
X0338681Y0049472D02*
X0338681Y0048472D01*
X0338681Y0049472D02*
X0339681Y0049472D01*
X0343681Y0049472D02*
X0344681Y0049472D01*
X0344681Y0048472D01*
X0344681Y0044472D02*
X0344681Y0043472D01*
X0343681Y0043472D01*
X0339681Y0043472D02*
X0338681Y0043472D01*
X0338681Y0044472D01*
X0040232Y0040260D02*
X0040232Y0039260D01*
X0040232Y0040260D02*
X0039232Y0040260D01*
X0035232Y0040260D02*
X0034232Y0040260D01*
X0034232Y0039260D01*
X0034232Y0035260D02*
X0034232Y0034260D01*
X0035232Y0034260D01*
X0035232Y0032425D02*
X0034232Y0032425D01*
X0034232Y0031425D01*
X0034232Y0027425D02*
X0034232Y0026425D01*
X0035232Y0026425D01*
X0039232Y0026425D02*
X0040232Y0026425D01*
X0040232Y0027425D01*
X0040232Y0031425D02*
X0040232Y0032425D01*
X0039232Y0032425D01*
X0039232Y0034260D02*
X0040232Y0034260D01*
X0040232Y0035260D01*
X0024327Y0192921D02*
X0023327Y0192921D01*
X0024327Y0192921D02*
X0024327Y0193921D01*
X0024327Y0197921D02*
X0024327Y0198921D01*
X0023327Y0198921D01*
X0019327Y0198921D02*
X0018327Y0198921D01*
X0018327Y0197921D01*
X0018327Y0193921D02*
X0018327Y0192921D01*
X0019327Y0192921D01*
D16*
X0227058Y0156142D02*
X0227058Y0116142D01*
D17*
X0226414Y0114274D02*
X0226897Y0113790D01*
X0226897Y0112822D01*
X0226414Y0112339D01*
X0224962Y0112339D01*
X0224962Y0111371D02*
X0224962Y0114274D01*
X0226414Y0114274D01*
X0227909Y0113306D02*
X0227909Y0111371D01*
X0227909Y0112822D02*
X0229844Y0112822D01*
X0229844Y0113306D02*
X0229844Y0111371D01*
X0230855Y0111371D02*
X0230855Y0114274D01*
X0231823Y0113306D01*
X0232790Y0114274D01*
X0232790Y0111371D01*
X0233802Y0111371D02*
X0235737Y0111371D01*
X0234769Y0111371D02*
X0234769Y0114274D01*
X0233802Y0113306D01*
X0229844Y0113306D02*
X0228876Y0114274D01*
X0227909Y0113306D01*
X0215912Y0127067D02*
X0215912Y0129970D01*
X0214460Y0128519D01*
X0216395Y0128519D01*
X0213449Y0127067D02*
X0211514Y0127067D01*
X0212481Y0127067D02*
X0212481Y0129970D01*
X0211514Y0129002D01*
X0210502Y0129486D02*
X0210019Y0129970D01*
X0209051Y0129970D01*
X0208567Y0129486D01*
X0208567Y0127551D01*
X0209051Y0127067D01*
X0210019Y0127067D01*
X0210502Y0127551D01*
X0194174Y0133170D02*
X0194174Y0136072D01*
X0192723Y0134621D01*
X0194658Y0134621D01*
X0191711Y0134621D02*
X0191711Y0135588D01*
X0191227Y0136072D01*
X0189776Y0136072D01*
X0189776Y0133170D01*
X0189776Y0134137D02*
X0191227Y0134137D01*
X0191711Y0134621D01*
X0190744Y0134137D02*
X0191711Y0133170D01*
X0192045Y0140737D02*
X0193980Y0140737D01*
X0193013Y0140737D02*
X0193013Y0143639D01*
X0192045Y0142672D01*
X0191034Y0143155D02*
X0190550Y0143639D01*
X0189583Y0143639D01*
X0189099Y0143155D01*
X0189099Y0141220D01*
X0189583Y0140737D01*
X0190550Y0140737D01*
X0191034Y0141220D01*
X0194992Y0141220D02*
X0195476Y0140737D01*
X0196443Y0140737D01*
X0196927Y0141220D01*
X0196927Y0142188D01*
X0196443Y0142672D01*
X0195959Y0142672D01*
X0194992Y0142188D01*
X0194992Y0143639D01*
X0196927Y0143639D01*
X0196179Y0149402D02*
X0194244Y0149402D01*
X0196179Y0151337D01*
X0196179Y0151821D01*
X0195695Y0152304D01*
X0194728Y0152304D01*
X0194244Y0151821D01*
X0192265Y0152304D02*
X0192265Y0149402D01*
X0193232Y0149402D02*
X0191297Y0149402D01*
X0190286Y0149886D02*
X0189802Y0149402D01*
X0188835Y0149402D01*
X0188351Y0149886D01*
X0188351Y0151821D01*
X0188835Y0152304D01*
X0189802Y0152304D01*
X0190286Y0151821D01*
X0191297Y0151337D02*
X0192265Y0152304D01*
X0202480Y0109639D02*
X0201997Y0109155D01*
X0201997Y0107220D01*
X0202480Y0106737D01*
X0203448Y0106737D01*
X0203932Y0107220D01*
X0204943Y0107220D02*
X0205427Y0106737D01*
X0206394Y0106737D01*
X0206878Y0107220D01*
X0206878Y0107704D01*
X0206394Y0108188D01*
X0204943Y0108188D01*
X0204943Y0107220D01*
X0204943Y0108188D02*
X0205911Y0109155D01*
X0206878Y0109639D01*
X0203932Y0109155D02*
X0203448Y0109639D01*
X0202480Y0109639D01*
X0254346Y0116820D02*
X0254830Y0116336D01*
X0255797Y0116336D01*
X0256281Y0116820D01*
X0257292Y0116336D02*
X0259227Y0116336D01*
X0258260Y0116336D02*
X0258260Y0119238D01*
X0257292Y0118271D01*
X0256281Y0118755D02*
X0255797Y0119238D01*
X0254830Y0119238D01*
X0254346Y0118755D01*
X0254346Y0116820D01*
X0260239Y0116820D02*
X0260723Y0116336D01*
X0261690Y0116336D01*
X0262174Y0116820D01*
X0262174Y0117303D01*
X0261690Y0117787D01*
X0261206Y0117787D01*
X0261690Y0117787D02*
X0262174Y0118271D01*
X0262174Y0118755D01*
X0261690Y0119238D01*
X0260723Y0119238D01*
X0260239Y0118755D01*
X0268563Y0130559D02*
X0268563Y0133462D01*
X0270015Y0133462D01*
X0270498Y0132978D01*
X0270498Y0132011D01*
X0270015Y0131527D01*
X0268563Y0131527D01*
X0269531Y0131527D02*
X0270498Y0130559D01*
X0271510Y0131043D02*
X0271994Y0130559D01*
X0272961Y0130559D01*
X0273445Y0131043D01*
X0273445Y0131527D01*
X0272961Y0132011D01*
X0271510Y0132011D01*
X0271510Y0131043D01*
X0271510Y0132011D02*
X0272477Y0132978D01*
X0273445Y0133462D01*
X0284363Y0125234D02*
X0285814Y0125234D01*
X0286298Y0124750D01*
X0286298Y0123782D01*
X0285814Y0123299D01*
X0284363Y0123299D01*
X0285330Y0123299D02*
X0286298Y0122331D01*
X0287309Y0122815D02*
X0287793Y0122331D01*
X0288760Y0122331D01*
X0289244Y0122815D01*
X0289244Y0123782D01*
X0288760Y0124266D01*
X0288277Y0124266D01*
X0287309Y0123782D01*
X0287309Y0125234D01*
X0289244Y0125234D01*
X0284363Y0125234D02*
X0284363Y0122331D01*
X0277536Y0145761D02*
X0275601Y0145761D01*
X0276569Y0145761D02*
X0276569Y0148663D01*
X0275601Y0147696D01*
X0274590Y0145761D02*
X0272655Y0145761D01*
X0273622Y0145761D02*
X0273622Y0148663D01*
X0272655Y0147696D01*
X0271643Y0148180D02*
X0271159Y0148663D01*
X0270192Y0148663D01*
X0269708Y0148180D01*
X0269708Y0146245D01*
X0270192Y0145761D01*
X0271159Y0145761D01*
X0271643Y0146245D01*
X0331168Y0058279D02*
X0331168Y0055377D01*
X0333103Y0055377D01*
X0334115Y0056828D02*
X0336050Y0056828D01*
X0335082Y0057795D02*
X0335082Y0055861D01*
X0331011Y0047649D02*
X0331011Y0044747D01*
X0332946Y0044747D01*
X0333957Y0046198D02*
X0335892Y0046198D01*
X0031837Y0037182D02*
X0029902Y0037182D01*
X0028891Y0037182D02*
X0028407Y0036699D01*
X0026956Y0036699D01*
X0027923Y0036699D02*
X0028891Y0035731D01*
X0028891Y0037182D02*
X0028891Y0038150D01*
X0028407Y0038634D01*
X0026956Y0038634D01*
X0026956Y0035731D01*
X0030870Y0036215D02*
X0030870Y0038150D01*
X0028407Y0030405D02*
X0028891Y0029921D01*
X0028891Y0028954D01*
X0028407Y0028470D01*
X0026956Y0028470D01*
X0027923Y0028470D02*
X0028891Y0027503D01*
X0029902Y0028954D02*
X0031837Y0028954D01*
X0028407Y0030405D02*
X0026956Y0030405D01*
X0026956Y0027503D01*
X0021455Y0189471D02*
X0021939Y0189955D01*
X0021939Y0190922D01*
X0020971Y0190922D01*
X0020004Y0189955D02*
X0020487Y0189471D01*
X0021455Y0189471D01*
X0020004Y0189955D02*
X0020004Y0191890D01*
X0020487Y0192374D01*
X0021455Y0192374D01*
X0021939Y0191890D01*
D18*
X0215020Y0094350D03*
X0216201Y0090512D03*
X0216299Y0090413D03*
X0223878Y0097500D03*
X0232933Y0061181D03*
X0232736Y0061083D03*
X0223878Y0057933D03*
X0215020Y0061083D03*
D19*
X0223878Y0058031D03*
X0218662Y0072205D03*
X0229095Y0072500D03*
X0230571Y0074665D03*
X0223878Y0097402D03*
D20*
X0229045Y0095630D03*
X0218711Y0095630D03*
X0217825Y0081260D03*
X0229931Y0072697D03*
X0223829Y0058130D03*
D21*
X0223878Y0058228D03*
X0227913Y0078406D03*
X0223878Y0097205D03*
D22*
X0223829Y0097106D03*
X0215955Y0073484D03*
X0223829Y0058327D03*
D23*
X0223878Y0058425D03*
X0231850Y0073583D03*
X0223878Y0097008D03*
D24*
X0223878Y0096909D03*
X0223878Y0058524D03*
D25*
X0223878Y0058622D03*
X0223878Y0069449D03*
X0223878Y0096811D03*
D26*
X0223878Y0096713D03*
X0223878Y0069547D03*
X0223878Y0058720D03*
D27*
X0223878Y0058819D03*
X0223878Y0069646D03*
X0223878Y0096614D03*
D28*
X0223878Y0096516D03*
X0223878Y0058917D03*
D29*
X0223878Y0059016D03*
X0223878Y0070039D03*
X0223878Y0084803D03*
X0223878Y0096417D03*
D30*
X0223878Y0096319D03*
X0223878Y0084606D03*
X0215315Y0079882D03*
X0223878Y0059114D03*
D31*
X0223878Y0059213D03*
X0223878Y0070531D03*
X0223878Y0084311D03*
X0223878Y0096220D03*
D32*
X0223878Y0096122D03*
X0223878Y0084016D03*
X0223878Y0070827D03*
X0223878Y0070728D03*
X0223878Y0059311D03*
D33*
X0223878Y0059409D03*
X0223878Y0071319D03*
X0223878Y0071417D03*
X0223878Y0083425D03*
D34*
X0223878Y0072008D03*
X0223878Y0059508D03*
X0223878Y0095925D03*
D35*
X0223878Y0095827D03*
X0223878Y0059606D03*
D36*
X0223878Y0059705D03*
X0223878Y0095728D03*
D37*
X0229980Y0072894D03*
X0229980Y0072795D03*
X0218662Y0059803D03*
D38*
X0228947Y0059803D03*
X0217923Y0081063D03*
X0228258Y0083228D03*
D39*
X0228750Y0080669D03*
X0230226Y0075846D03*
X0219006Y0080177D03*
X0217530Y0082146D03*
X0217530Y0072894D03*
X0218120Y0059902D03*
X0229537Y0059902D03*
X0218120Y0095531D03*
D40*
X0220925Y0093760D03*
X0220827Y0093563D03*
X0220827Y0093465D03*
X0220925Y0093268D03*
X0221614Y0092480D03*
X0221614Y0092382D03*
X0221614Y0092283D03*
X0221614Y0092185D03*
X0221614Y0092087D03*
X0221614Y0091988D03*
X0221614Y0091890D03*
X0221614Y0091791D03*
X0221614Y0091693D03*
X0221614Y0091594D03*
X0221614Y0091496D03*
X0221614Y0091398D03*
X0221614Y0091299D03*
X0221614Y0091201D03*
X0221614Y0091102D03*
X0221614Y0091004D03*
X0221614Y0090906D03*
X0221614Y0090807D03*
X0221614Y0090709D03*
X0221614Y0090610D03*
X0221614Y0090512D03*
X0221614Y0090413D03*
X0221614Y0090315D03*
X0221614Y0090217D03*
X0221614Y0090118D03*
X0221614Y0090020D03*
X0221614Y0089921D03*
X0221614Y0089823D03*
X0221614Y0089724D03*
X0221614Y0089626D03*
X0221614Y0089528D03*
X0221614Y0089429D03*
X0221614Y0089331D03*
X0221614Y0089232D03*
X0221614Y0089134D03*
X0221614Y0089035D03*
X0221614Y0088937D03*
X0221614Y0088839D03*
X0221614Y0088740D03*
X0221614Y0088642D03*
X0221614Y0088543D03*
X0221614Y0088445D03*
X0221614Y0088346D03*
X0221614Y0088248D03*
X0221614Y0088150D03*
X0221614Y0088051D03*
X0221614Y0087953D03*
X0221614Y0087854D03*
X0221614Y0087756D03*
X0221614Y0087657D03*
X0221614Y0087559D03*
X0221614Y0087461D03*
X0221614Y0087362D03*
X0221614Y0087264D03*
X0223681Y0087264D03*
X0223681Y0087362D03*
X0223681Y0087461D03*
X0223681Y0087559D03*
X0223681Y0087657D03*
X0223681Y0087756D03*
X0223681Y0087854D03*
X0223681Y0087953D03*
X0223681Y0088051D03*
X0223681Y0088150D03*
X0223681Y0088248D03*
X0223681Y0088346D03*
X0223681Y0088445D03*
X0223681Y0088543D03*
X0223681Y0088642D03*
X0223681Y0088740D03*
X0223681Y0088839D03*
X0223681Y0088937D03*
X0223681Y0089035D03*
X0223681Y0089134D03*
X0223681Y0089232D03*
X0223681Y0089331D03*
X0223681Y0089429D03*
X0223681Y0089528D03*
X0223681Y0089626D03*
X0223681Y0089724D03*
X0223681Y0089823D03*
X0223681Y0089921D03*
X0223681Y0090020D03*
X0223681Y0090118D03*
X0223681Y0090217D03*
X0223681Y0090315D03*
X0223681Y0090413D03*
X0223681Y0090512D03*
X0223681Y0090610D03*
X0223681Y0090709D03*
X0223681Y0090807D03*
X0223681Y0090906D03*
X0223681Y0091004D03*
X0223681Y0091102D03*
X0223681Y0091201D03*
X0223681Y0091299D03*
X0223681Y0091398D03*
X0223681Y0091496D03*
X0223681Y0091594D03*
X0223681Y0091693D03*
X0223681Y0091791D03*
X0223681Y0091890D03*
X0223681Y0091988D03*
X0223681Y0092087D03*
X0223681Y0092185D03*
X0223681Y0092283D03*
X0223681Y0092382D03*
X0223681Y0092480D03*
X0223681Y0092579D03*
X0223681Y0092677D03*
X0223681Y0092776D03*
X0223681Y0092874D03*
X0223681Y0092972D03*
X0223681Y0093071D03*
X0223681Y0093169D03*
X0223681Y0093268D03*
X0223681Y0093366D03*
X0223681Y0093465D03*
X0223681Y0093563D03*
X0223681Y0093661D03*
X0223681Y0093760D03*
X0223681Y0093858D03*
X0223681Y0093957D03*
X0223681Y0094055D03*
X0223681Y0094154D03*
X0223681Y0094252D03*
X0223681Y0094350D03*
X0223681Y0094449D03*
X0223681Y0094547D03*
X0223681Y0094646D03*
X0223681Y0094744D03*
X0223681Y0094843D03*
X0223681Y0094941D03*
X0223681Y0095039D03*
X0223681Y0095138D03*
X0223681Y0095236D03*
X0223681Y0095335D03*
X0223681Y0095433D03*
X0223681Y0095531D03*
X0223681Y0095630D03*
X0222303Y0093661D03*
X0222303Y0093563D03*
X0222303Y0093465D03*
X0222303Y0093366D03*
X0225748Y0092480D03*
X0225748Y0092382D03*
X0225748Y0092283D03*
X0225748Y0092185D03*
X0225748Y0092087D03*
X0225748Y0091988D03*
X0225748Y0091890D03*
X0225748Y0091791D03*
X0225748Y0091693D03*
X0225748Y0091594D03*
X0225748Y0091496D03*
X0225748Y0091398D03*
X0225748Y0091299D03*
X0225748Y0091201D03*
X0225748Y0091102D03*
X0225748Y0091004D03*
X0225748Y0090906D03*
X0225748Y0090807D03*
X0225748Y0090709D03*
X0225748Y0090610D03*
X0225748Y0090512D03*
X0225748Y0090413D03*
X0225748Y0090315D03*
X0225748Y0090217D03*
X0225748Y0090118D03*
X0225748Y0090020D03*
X0225748Y0089921D03*
X0225748Y0089823D03*
X0225748Y0089724D03*
X0225748Y0089626D03*
X0225748Y0089528D03*
X0225748Y0089429D03*
X0225748Y0089331D03*
X0225748Y0089232D03*
X0225748Y0089134D03*
X0225748Y0089035D03*
X0225748Y0088937D03*
X0225748Y0088839D03*
X0225748Y0088740D03*
X0225748Y0088642D03*
X0225748Y0088543D03*
X0225748Y0088445D03*
X0225748Y0088346D03*
X0225748Y0088248D03*
X0225748Y0088150D03*
X0225748Y0088051D03*
X0225748Y0087953D03*
X0225748Y0087854D03*
X0225748Y0087756D03*
X0225748Y0087657D03*
X0225748Y0087559D03*
X0225748Y0087461D03*
X0225748Y0087362D03*
X0225748Y0087264D03*
X0227913Y0087264D03*
X0227913Y0087362D03*
X0227913Y0087461D03*
X0227913Y0087559D03*
X0227913Y0087657D03*
X0227913Y0087756D03*
X0227913Y0087854D03*
X0227913Y0087953D03*
X0227913Y0088051D03*
X0227913Y0088150D03*
X0227913Y0088248D03*
X0227913Y0088346D03*
X0227913Y0088445D03*
X0227913Y0088543D03*
X0227913Y0088642D03*
X0227913Y0088740D03*
X0227913Y0088839D03*
X0227913Y0088937D03*
X0227913Y0089035D03*
X0227913Y0089134D03*
X0227913Y0089232D03*
X0227913Y0089331D03*
X0227913Y0089429D03*
X0227913Y0089528D03*
X0227913Y0089626D03*
X0227913Y0089724D03*
X0227913Y0089823D03*
X0227913Y0089921D03*
X0227913Y0090020D03*
X0227913Y0090118D03*
X0227913Y0090217D03*
X0227913Y0090315D03*
X0227913Y0090413D03*
X0227913Y0090512D03*
X0227913Y0090610D03*
X0227913Y0090709D03*
X0227913Y0090807D03*
X0227913Y0090906D03*
X0227913Y0091004D03*
X0227913Y0091102D03*
X0227913Y0091201D03*
X0219449Y0088543D03*
X0219449Y0088445D03*
X0219449Y0088346D03*
X0219449Y0088248D03*
X0219449Y0088150D03*
X0219449Y0088051D03*
X0219449Y0087953D03*
X0219449Y0087854D03*
X0219449Y0087756D03*
X0219449Y0087657D03*
X0219449Y0087559D03*
X0219449Y0087461D03*
X0219449Y0087362D03*
X0219449Y0087264D03*
X0213937Y0089134D03*
X0213248Y0090020D03*
X0213248Y0090118D03*
X0213248Y0090217D03*
X0213248Y0090315D03*
X0207736Y0075256D03*
X0207736Y0075157D03*
X0208524Y0074173D03*
X0219449Y0068169D03*
X0219449Y0068071D03*
X0219449Y0067972D03*
X0219449Y0067874D03*
X0219449Y0067776D03*
X0219449Y0067677D03*
X0219449Y0067579D03*
X0219449Y0067480D03*
X0219449Y0067382D03*
X0219449Y0067283D03*
X0219449Y0067185D03*
X0219449Y0067087D03*
X0219449Y0066988D03*
X0219449Y0066890D03*
X0219449Y0066791D03*
X0219449Y0066693D03*
X0219449Y0066594D03*
X0219449Y0066496D03*
X0219449Y0066398D03*
X0219449Y0066299D03*
X0219449Y0066201D03*
X0219449Y0066102D03*
X0219449Y0066004D03*
X0219449Y0065906D03*
X0219449Y0065807D03*
X0219449Y0065709D03*
X0219449Y0065610D03*
X0219449Y0065512D03*
X0219449Y0065413D03*
X0219449Y0065315D03*
X0221614Y0065315D03*
X0221614Y0065413D03*
X0221614Y0065512D03*
X0221614Y0065610D03*
X0221614Y0065709D03*
X0221614Y0065807D03*
X0221614Y0065906D03*
X0221614Y0066004D03*
X0221614Y0066102D03*
X0221614Y0066201D03*
X0221614Y0066299D03*
X0221614Y0066398D03*
X0221614Y0066496D03*
X0221614Y0066594D03*
X0221614Y0066693D03*
X0221614Y0066791D03*
X0221614Y0066890D03*
X0221614Y0066988D03*
X0221614Y0067087D03*
X0221614Y0067185D03*
X0221614Y0067283D03*
X0221614Y0067382D03*
X0221614Y0067480D03*
X0221614Y0067579D03*
X0221614Y0067677D03*
X0221614Y0067776D03*
X0221614Y0067874D03*
X0221614Y0067972D03*
X0221614Y0068071D03*
X0221614Y0068169D03*
X0223681Y0068169D03*
X0223681Y0068071D03*
X0223681Y0067972D03*
X0223681Y0067874D03*
X0223681Y0067776D03*
X0223681Y0067677D03*
X0223681Y0067579D03*
X0223681Y0067480D03*
X0223681Y0067382D03*
X0223681Y0067283D03*
X0223681Y0067185D03*
X0223681Y0067087D03*
X0223681Y0066988D03*
X0223681Y0066890D03*
X0223681Y0066791D03*
X0223681Y0066693D03*
X0223681Y0066594D03*
X0223681Y0066496D03*
X0223681Y0066398D03*
X0223681Y0066299D03*
X0223681Y0066201D03*
X0223681Y0066102D03*
X0223681Y0066004D03*
X0223681Y0065906D03*
X0223681Y0065807D03*
X0223681Y0065709D03*
X0223681Y0065610D03*
X0223681Y0065512D03*
X0223681Y0065413D03*
X0223681Y0065315D03*
X0223681Y0065217D03*
X0223681Y0065118D03*
X0223681Y0065020D03*
X0223681Y0064921D03*
X0223681Y0064823D03*
X0223681Y0064724D03*
X0223681Y0064626D03*
X0223681Y0064528D03*
X0223681Y0064429D03*
X0223681Y0064331D03*
X0223681Y0064232D03*
X0223681Y0064134D03*
X0223681Y0064035D03*
X0223681Y0063937D03*
X0223681Y0063839D03*
X0223681Y0063740D03*
X0223681Y0063642D03*
X0223681Y0063543D03*
X0223681Y0063445D03*
X0223681Y0063346D03*
X0224370Y0062362D03*
X0224370Y0062264D03*
X0224370Y0062165D03*
X0224370Y0062067D03*
X0225748Y0062067D03*
X0225748Y0062165D03*
X0225748Y0062264D03*
X0225748Y0062362D03*
X0225748Y0062461D03*
X0225748Y0062559D03*
X0225748Y0062657D03*
X0225748Y0062756D03*
X0225748Y0062854D03*
X0225748Y0062953D03*
X0225748Y0063051D03*
X0225748Y0063150D03*
X0225748Y0063248D03*
X0225748Y0063346D03*
X0225748Y0063445D03*
X0225748Y0063543D03*
X0225748Y0063642D03*
X0225748Y0063740D03*
X0225748Y0063839D03*
X0225748Y0063937D03*
X0225748Y0064035D03*
X0225748Y0064134D03*
X0225748Y0064232D03*
X0225748Y0064331D03*
X0225748Y0064429D03*
X0225748Y0064528D03*
X0225748Y0064626D03*
X0225748Y0064724D03*
X0225748Y0064823D03*
X0225748Y0064921D03*
X0225748Y0065020D03*
X0225748Y0065118D03*
X0225748Y0065217D03*
X0225748Y0065315D03*
X0225748Y0065413D03*
X0225748Y0065512D03*
X0225748Y0065610D03*
X0225748Y0065709D03*
X0225748Y0065807D03*
X0225748Y0065906D03*
X0225748Y0066004D03*
X0225748Y0066102D03*
X0225748Y0066201D03*
X0225748Y0066299D03*
X0225748Y0066398D03*
X0225748Y0066496D03*
X0225748Y0066594D03*
X0225748Y0066693D03*
X0225748Y0066791D03*
X0225748Y0066890D03*
X0225748Y0066988D03*
X0225748Y0067087D03*
X0225748Y0067185D03*
X0225748Y0067283D03*
X0225748Y0067382D03*
X0225748Y0067480D03*
X0225748Y0067579D03*
X0225748Y0067677D03*
X0225748Y0067776D03*
X0225748Y0067874D03*
X0225748Y0067972D03*
X0225748Y0068071D03*
X0225748Y0068169D03*
X0227913Y0068169D03*
X0227913Y0068071D03*
X0227913Y0067972D03*
X0227913Y0067874D03*
X0227913Y0067776D03*
X0227913Y0067677D03*
X0227913Y0067579D03*
X0227913Y0067480D03*
X0227913Y0067382D03*
X0227913Y0067283D03*
X0227913Y0067185D03*
X0227913Y0067087D03*
X0227913Y0066988D03*
X0227913Y0066890D03*
X0227913Y0066791D03*
X0227913Y0066693D03*
X0227913Y0066594D03*
X0227913Y0066496D03*
X0225748Y0061969D03*
X0225748Y0061870D03*
X0225748Y0061772D03*
X0225748Y0061673D03*
X0225748Y0061575D03*
X0225748Y0061476D03*
X0225748Y0061378D03*
X0225748Y0061280D03*
X0225748Y0061181D03*
X0225748Y0061083D03*
X0225748Y0060984D03*
X0225748Y0060886D03*
X0225748Y0060787D03*
X0225748Y0060689D03*
X0225748Y0060591D03*
X0225748Y0060492D03*
X0225748Y0060394D03*
X0225748Y0060295D03*
X0225748Y0060197D03*
X0225748Y0060098D03*
X0225748Y0060000D03*
X0225748Y0059902D03*
X0222894Y0062165D03*
X0222894Y0062264D03*
X0221614Y0064331D03*
X0221614Y0064429D03*
X0221614Y0064528D03*
X0221614Y0064626D03*
X0221614Y0064724D03*
X0221614Y0064823D03*
X0221614Y0064921D03*
X0221614Y0065020D03*
X0221614Y0065118D03*
X0221614Y0065217D03*
X0233327Y0065020D03*
X0233327Y0064921D03*
X0233327Y0064823D03*
X0233327Y0064724D03*
X0239232Y0077323D03*
X0239232Y0077421D03*
X0239232Y0077520D03*
X0239232Y0077618D03*
D41*
X0228947Y0072303D03*
X0217333Y0073780D03*
X0217333Y0075846D03*
X0218809Y0080669D03*
X0218908Y0083031D03*
X0217726Y0095433D03*
X0217726Y0060000D03*
D42*
X0229980Y0060000D03*
X0218760Y0080768D03*
X0228898Y0082835D03*
X0229980Y0095433D03*
D43*
X0230325Y0095335D03*
X0217431Y0095335D03*
X0218612Y0082835D03*
X0229144Y0082638D03*
X0230620Y0074862D03*
X0230620Y0074764D03*
X0230325Y0060098D03*
X0217431Y0060098D03*
D44*
X0217087Y0060197D03*
X0216988Y0074665D03*
X0216988Y0074764D03*
X0229291Y0082441D03*
D45*
X0229242Y0082539D03*
X0229242Y0076437D03*
X0218514Y0072402D03*
X0218514Y0082736D03*
X0217136Y0095236D03*
X0216053Y0060787D03*
X0230620Y0060197D03*
D46*
X0216791Y0060295D03*
X0216102Y0060689D03*
X0229390Y0076240D03*
X0229390Y0082343D03*
X0218366Y0082539D03*
D47*
X0218415Y0082638D03*
X0218415Y0076732D03*
X0216939Y0074862D03*
X0218415Y0072500D03*
X0229341Y0076339D03*
X0229341Y0082244D03*
X0216841Y0095138D03*
X0230915Y0060295D03*
D48*
X0231211Y0060394D03*
X0216545Y0060394D03*
X0218317Y0076634D03*
X0229439Y0076142D03*
X0229439Y0076043D03*
X0232589Y0094154D03*
X0231211Y0095039D03*
X0216545Y0095039D03*
D49*
X0216250Y0094941D03*
X0218219Y0082244D03*
X0218219Y0076437D03*
X0229537Y0074469D03*
X0229537Y0074370D03*
X0229537Y0074272D03*
X0229537Y0074173D03*
X0231408Y0060492D03*
X0216250Y0060492D03*
X0216152Y0060591D03*
X0232589Y0094252D03*
X0231408Y0094941D03*
D50*
X0216102Y0094843D03*
X0218169Y0082343D03*
X0218169Y0076339D03*
X0218169Y0076240D03*
X0231654Y0060591D03*
D51*
X0231900Y0060689D03*
X0214282Y0061772D03*
X0218120Y0076043D03*
X0218120Y0076142D03*
X0216447Y0089921D03*
X0231703Y0094843D03*
X0231900Y0094744D03*
D52*
X0232097Y0094646D03*
X0216447Y0090020D03*
X0215561Y0094646D03*
X0218022Y0074370D03*
X0218022Y0074272D03*
X0218022Y0074173D03*
X0218022Y0074075D03*
X0229734Y0074567D03*
X0232097Y0060787D03*
X0214282Y0061673D03*
D53*
X0215413Y0060886D03*
X0217973Y0074469D03*
X0232343Y0060886D03*
X0216496Y0090118D03*
X0215413Y0094547D03*
X0232343Y0094547D03*
X0232539Y0094449D03*
D54*
X0228160Y0095039D03*
X0228061Y0094941D03*
X0227963Y0094843D03*
X0227864Y0094744D03*
X0227766Y0094646D03*
X0227667Y0094547D03*
X0227569Y0094449D03*
X0227471Y0094350D03*
X0227372Y0094252D03*
X0227274Y0094154D03*
X0227175Y0094055D03*
X0227077Y0093957D03*
X0226978Y0093858D03*
X0226880Y0093760D03*
X0226782Y0093661D03*
X0226683Y0093563D03*
X0226585Y0093465D03*
X0226486Y0093366D03*
X0226388Y0093268D03*
X0226289Y0093169D03*
X0226191Y0093071D03*
X0226093Y0092972D03*
X0225994Y0092874D03*
X0225896Y0092776D03*
X0228061Y0091496D03*
X0219301Y0088839D03*
X0219203Y0088937D03*
X0219104Y0089035D03*
X0219006Y0089134D03*
X0218908Y0089232D03*
X0218809Y0089331D03*
X0218711Y0089429D03*
X0218612Y0089528D03*
X0218514Y0089626D03*
X0218415Y0089724D03*
X0218317Y0089823D03*
X0213396Y0089823D03*
X0211427Y0072894D03*
X0211329Y0072795D03*
X0211230Y0072697D03*
X0211132Y0072598D03*
X0211034Y0072500D03*
X0210935Y0072402D03*
X0210837Y0072303D03*
X0210738Y0072205D03*
X0210640Y0072106D03*
X0210541Y0072008D03*
X0210443Y0071909D03*
X0210345Y0071811D03*
X0210246Y0071713D03*
X0210148Y0071614D03*
X0210049Y0071516D03*
X0209951Y0071417D03*
X0209852Y0071319D03*
X0209754Y0071220D03*
X0209656Y0071122D03*
X0209557Y0071024D03*
X0209459Y0070925D03*
X0209360Y0070827D03*
X0209262Y0070728D03*
X0209163Y0070630D03*
X0209065Y0070531D03*
X0208967Y0070433D03*
X0219006Y0064724D03*
X0218908Y0064626D03*
X0218809Y0064528D03*
X0218711Y0064429D03*
X0218612Y0064331D03*
X0218514Y0064232D03*
X0218415Y0064134D03*
X0218317Y0064035D03*
X0218219Y0063937D03*
X0218120Y0063839D03*
X0218022Y0063740D03*
X0217923Y0063642D03*
X0217825Y0063543D03*
X0217726Y0063445D03*
X0217628Y0063346D03*
X0217530Y0063248D03*
X0217431Y0063150D03*
X0217333Y0063051D03*
X0217234Y0062953D03*
X0217136Y0062854D03*
X0217037Y0062756D03*
X0216939Y0062657D03*
X0216841Y0062559D03*
X0216742Y0062461D03*
X0216644Y0062362D03*
X0216545Y0062264D03*
X0216447Y0062165D03*
X0216349Y0062067D03*
X0216250Y0061969D03*
X0216152Y0061870D03*
X0218317Y0060886D03*
X0218415Y0060984D03*
X0218514Y0061083D03*
X0218612Y0061181D03*
X0218711Y0061280D03*
X0218809Y0061378D03*
X0218908Y0061476D03*
X0219006Y0061575D03*
X0219104Y0061673D03*
X0219203Y0061772D03*
X0219301Y0061870D03*
X0219400Y0061969D03*
X0219498Y0062067D03*
X0219597Y0062165D03*
X0219695Y0062264D03*
X0219793Y0062362D03*
X0219892Y0062461D03*
X0219990Y0062559D03*
X0220089Y0062657D03*
X0220187Y0062756D03*
X0220286Y0062854D03*
X0220384Y0062953D03*
X0220482Y0063051D03*
X0220581Y0063150D03*
X0220679Y0063248D03*
X0220778Y0063346D03*
X0220876Y0063445D03*
X0220975Y0063543D03*
X0221073Y0063642D03*
X0221171Y0063740D03*
X0221270Y0063839D03*
X0221368Y0063937D03*
X0221467Y0064035D03*
X0219301Y0065020D03*
X0219203Y0064921D03*
X0219104Y0064823D03*
X0224223Y0061870D03*
X0228356Y0065906D03*
X0228258Y0066004D03*
X0228160Y0066102D03*
X0228061Y0066201D03*
X0228455Y0065807D03*
X0228553Y0065709D03*
X0228652Y0065610D03*
X0228750Y0065512D03*
X0228849Y0065413D03*
X0228947Y0065315D03*
X0236919Y0072894D03*
X0237018Y0072795D03*
X0237116Y0072697D03*
X0237215Y0072598D03*
X0237313Y0072500D03*
X0237412Y0072402D03*
X0237510Y0072303D03*
X0237608Y0072205D03*
X0237707Y0072106D03*
X0237805Y0072008D03*
X0237904Y0071909D03*
X0238002Y0071811D03*
X0238100Y0071713D03*
X0238199Y0071614D03*
X0238297Y0071516D03*
X0238396Y0071417D03*
X0238494Y0071319D03*
X0238593Y0071220D03*
X0238691Y0071122D03*
X0238789Y0071024D03*
X0238888Y0070925D03*
X0238986Y0070827D03*
X0239085Y0070728D03*
X0239183Y0070630D03*
X0239282Y0070531D03*
X0239380Y0070433D03*
X0239478Y0070335D03*
X0239577Y0070236D03*
X0240364Y0072402D03*
X0239577Y0073189D03*
X0239478Y0073287D03*
X0239380Y0073386D03*
X0239282Y0073484D03*
X0239183Y0073583D03*
X0239085Y0073681D03*
X0238986Y0073780D03*
X0238888Y0073878D03*
X0238789Y0073976D03*
X0238691Y0074075D03*
X0238593Y0074173D03*
X0238494Y0074272D03*
X0238396Y0074370D03*
X0238297Y0074469D03*
X0238199Y0074567D03*
X0238100Y0074665D03*
X0238002Y0074764D03*
X0237904Y0074862D03*
X0239085Y0077815D03*
X0239478Y0082047D03*
X0239577Y0082146D03*
X0239675Y0082244D03*
X0239774Y0082343D03*
X0239872Y0082441D03*
X0239971Y0082539D03*
X0240069Y0082638D03*
X0240167Y0082736D03*
X0240266Y0082835D03*
X0240364Y0082933D03*
X0240463Y0083031D03*
D55*
X0216447Y0090217D03*
X0216349Y0090315D03*
X0215167Y0094449D03*
X0214282Y0061575D03*
X0215167Y0060984D03*
X0232589Y0060984D03*
D56*
X0214774Y0061181D03*
X0217825Y0074567D03*
X0214774Y0094252D03*
D57*
X0223681Y0061181D03*
D58*
X0230473Y0065217D03*
X0233130Y0061280D03*
X0233327Y0061378D03*
X0214626Y0061280D03*
X0214429Y0061378D03*
X0214331Y0061476D03*
X0214429Y0094055D03*
X0214626Y0094154D03*
X0233327Y0094055D03*
D59*
X0230571Y0094055D03*
X0230473Y0093957D03*
X0230374Y0093858D03*
X0230276Y0093760D03*
X0230177Y0093661D03*
X0230079Y0093563D03*
X0229980Y0093465D03*
X0229882Y0093366D03*
X0229784Y0093268D03*
X0229685Y0093169D03*
X0229587Y0093071D03*
X0229488Y0092972D03*
X0229390Y0092874D03*
X0229291Y0092776D03*
X0229193Y0092677D03*
X0229095Y0092579D03*
X0228996Y0092480D03*
X0228898Y0092382D03*
X0228799Y0092283D03*
X0228701Y0092185D03*
X0228602Y0092087D03*
X0228504Y0091988D03*
X0228406Y0091890D03*
X0228307Y0091791D03*
X0228209Y0091693D03*
X0228110Y0091594D03*
X0221614Y0092579D03*
X0213937Y0089232D03*
X0208228Y0083524D03*
X0208130Y0083622D03*
X0208032Y0083720D03*
X0207933Y0083819D03*
X0207835Y0083917D03*
X0207736Y0084016D03*
X0208327Y0083425D03*
X0208425Y0083327D03*
X0208524Y0083228D03*
X0208622Y0083130D03*
X0208721Y0083031D03*
X0208819Y0082933D03*
X0208917Y0082835D03*
X0209016Y0082736D03*
X0209114Y0082638D03*
X0209213Y0082539D03*
X0209311Y0082441D03*
X0209410Y0082343D03*
X0209508Y0082244D03*
X0209606Y0082146D03*
X0209705Y0082047D03*
X0208228Y0080472D03*
X0208130Y0080571D03*
X0208032Y0080669D03*
X0207933Y0080768D03*
X0207835Y0080866D03*
X0207736Y0080965D03*
X0207638Y0081063D03*
X0207539Y0081161D03*
X0207441Y0081260D03*
X0207343Y0081358D03*
X0207244Y0081457D03*
X0207146Y0081555D03*
X0207047Y0081654D03*
X0206949Y0081752D03*
X0208327Y0080374D03*
X0208425Y0080276D03*
X0208524Y0080177D03*
X0208622Y0080079D03*
X0208721Y0079980D03*
X0208524Y0074272D03*
X0208917Y0070335D03*
X0208819Y0070236D03*
X0208721Y0070138D03*
X0208622Y0070039D03*
X0208524Y0069941D03*
X0208425Y0069843D03*
X0223681Y0061280D03*
X0239823Y0072992D03*
X0239921Y0072894D03*
X0240020Y0072795D03*
X0240118Y0072697D03*
X0240217Y0072598D03*
X0240315Y0072500D03*
X0239725Y0073091D03*
D60*
X0238494Y0076634D03*
X0238494Y0078307D03*
X0232589Y0065709D03*
X0232589Y0064035D03*
X0223632Y0061378D03*
X0208475Y0074370D03*
X0213986Y0089331D03*
D61*
X0213986Y0089429D03*
X0221565Y0092776D03*
X0238494Y0078209D03*
X0238494Y0076732D03*
X0232589Y0065610D03*
X0232589Y0064134D03*
X0223632Y0061476D03*
D62*
X0233475Y0061476D03*
X0233475Y0093957D03*
X0214282Y0093957D03*
X0214085Y0093858D03*
D63*
X0213986Y0090807D03*
X0213986Y0089528D03*
X0221565Y0092874D03*
X0221565Y0094154D03*
X0238494Y0078110D03*
X0238494Y0076831D03*
X0232589Y0065512D03*
X0232589Y0064232D03*
X0223632Y0061575D03*
X0208475Y0074567D03*
D64*
X0230473Y0065118D03*
X0233622Y0061575D03*
X0233819Y0061673D03*
X0233819Y0093760D03*
X0233622Y0093858D03*
X0213937Y0093760D03*
D65*
X0213937Y0089626D03*
X0221614Y0092972D03*
X0221614Y0094055D03*
X0205374Y0081752D03*
X0205276Y0081358D03*
X0205276Y0081260D03*
X0205177Y0080866D03*
X0205177Y0080768D03*
X0205177Y0080669D03*
X0205177Y0080571D03*
X0205079Y0080276D03*
X0205079Y0080177D03*
X0205079Y0080079D03*
X0205079Y0079980D03*
X0205079Y0079882D03*
X0205079Y0079783D03*
X0204980Y0079488D03*
X0204980Y0079390D03*
X0204980Y0079291D03*
X0204980Y0079193D03*
X0204980Y0079094D03*
X0204980Y0078996D03*
X0204980Y0078898D03*
X0204980Y0078799D03*
X0204980Y0078701D03*
X0204980Y0078602D03*
X0204980Y0078504D03*
X0204980Y0078406D03*
X0204980Y0078307D03*
X0204980Y0078209D03*
X0204980Y0078110D03*
X0204980Y0078012D03*
X0204980Y0077913D03*
X0204980Y0077815D03*
X0204980Y0077028D03*
X0204980Y0076929D03*
X0204980Y0076831D03*
X0204980Y0076732D03*
X0204980Y0076634D03*
X0204980Y0076535D03*
X0204980Y0076437D03*
X0204980Y0076339D03*
X0204980Y0076240D03*
X0204980Y0076142D03*
X0204980Y0076043D03*
X0205079Y0075650D03*
X0205079Y0075551D03*
X0205079Y0075453D03*
X0205079Y0075354D03*
X0205079Y0075256D03*
X0205177Y0074862D03*
X0205177Y0074764D03*
X0205177Y0074665D03*
X0205177Y0074567D03*
X0205276Y0074173D03*
X0205276Y0074075D03*
X0205374Y0073681D03*
X0208524Y0074665D03*
X0208524Y0075846D03*
X0223681Y0062854D03*
X0223681Y0061673D03*
X0242185Y0072894D03*
X0242284Y0073287D03*
X0242382Y0073681D03*
X0242382Y0073780D03*
X0242480Y0074075D03*
X0242480Y0074173D03*
X0242480Y0074272D03*
X0242579Y0074567D03*
X0242579Y0074665D03*
X0242579Y0074764D03*
X0242579Y0074862D03*
X0242677Y0075157D03*
X0242677Y0075256D03*
X0242677Y0075354D03*
X0242677Y0075453D03*
X0242677Y0075551D03*
X0242677Y0075650D03*
X0242677Y0075748D03*
X0242776Y0075945D03*
X0242776Y0076043D03*
X0242776Y0076142D03*
X0242776Y0076240D03*
X0242776Y0076339D03*
X0242776Y0076437D03*
X0242776Y0076535D03*
X0242776Y0076634D03*
X0242776Y0076732D03*
X0242776Y0076831D03*
X0242776Y0076929D03*
X0242776Y0077028D03*
X0242776Y0077126D03*
X0242776Y0077224D03*
X0242776Y0077323D03*
X0242776Y0077421D03*
X0242776Y0077520D03*
X0242776Y0077618D03*
X0242776Y0077717D03*
X0242776Y0077815D03*
X0242776Y0077913D03*
X0242776Y0078012D03*
X0242776Y0078110D03*
X0242776Y0078209D03*
X0242776Y0078307D03*
X0242776Y0078406D03*
X0242776Y0078504D03*
X0242776Y0078602D03*
X0242776Y0078701D03*
X0242776Y0078799D03*
X0242776Y0078898D03*
X0242776Y0078996D03*
X0242677Y0079783D03*
X0242677Y0079882D03*
X0242677Y0079980D03*
X0242677Y0080079D03*
X0242677Y0080177D03*
X0242677Y0080276D03*
X0242579Y0080571D03*
X0242579Y0080669D03*
X0242579Y0080768D03*
X0242579Y0080866D03*
X0242480Y0081161D03*
X0242480Y0081260D03*
X0242480Y0081358D03*
X0242382Y0081654D03*
X0242382Y0081752D03*
X0242284Y0082146D03*
X0242185Y0082539D03*
D66*
X0242234Y0082441D03*
X0242234Y0082343D03*
X0242234Y0082244D03*
X0242333Y0082047D03*
X0242333Y0081949D03*
X0242333Y0081850D03*
X0242431Y0081555D03*
X0242431Y0081457D03*
X0242530Y0081063D03*
X0242530Y0080965D03*
X0242628Y0080472D03*
X0242628Y0080374D03*
X0242136Y0082638D03*
X0242136Y0082736D03*
X0242136Y0082835D03*
X0242037Y0082933D03*
X0242037Y0083031D03*
X0241742Y0083917D03*
X0241742Y0084016D03*
X0241644Y0084213D03*
X0241644Y0084311D03*
X0241545Y0084508D03*
X0241447Y0084803D03*
X0241349Y0085000D03*
X0238494Y0078012D03*
X0238494Y0077913D03*
X0238494Y0077028D03*
X0238494Y0076929D03*
X0242431Y0073976D03*
X0242431Y0073878D03*
X0242333Y0073583D03*
X0242333Y0073484D03*
X0242333Y0073386D03*
X0242234Y0073189D03*
X0242234Y0073091D03*
X0242234Y0072992D03*
X0242136Y0072795D03*
X0242136Y0072697D03*
X0242136Y0072598D03*
X0242037Y0072500D03*
X0242037Y0072402D03*
X0241742Y0071516D03*
X0241742Y0071417D03*
X0241644Y0071220D03*
X0241644Y0071122D03*
X0241545Y0070925D03*
X0241349Y0070433D03*
X0242530Y0074370D03*
X0242530Y0074469D03*
X0242628Y0074961D03*
X0242628Y0075059D03*
X0242726Y0075846D03*
X0232589Y0065413D03*
X0232589Y0065315D03*
X0232589Y0064429D03*
X0232589Y0064331D03*
X0223632Y0062756D03*
X0223632Y0061772D03*
X0206112Y0071122D03*
X0206014Y0071417D03*
X0205915Y0071713D03*
X0205817Y0072008D03*
X0205817Y0072106D03*
X0205719Y0072205D03*
X0205719Y0072303D03*
X0205719Y0072402D03*
X0205620Y0072598D03*
X0205620Y0072697D03*
X0205620Y0072795D03*
X0205522Y0072894D03*
X0205522Y0072992D03*
X0205522Y0073091D03*
X0205522Y0073189D03*
X0205423Y0073287D03*
X0205423Y0073386D03*
X0205423Y0073484D03*
X0205423Y0073583D03*
X0205325Y0073780D03*
X0205325Y0073878D03*
X0205325Y0073976D03*
X0205226Y0074272D03*
X0205226Y0074370D03*
X0205226Y0074469D03*
X0205128Y0074961D03*
X0205128Y0075059D03*
X0205128Y0075157D03*
X0205030Y0075748D03*
X0205030Y0075846D03*
X0205030Y0075945D03*
X0208475Y0075748D03*
X0208475Y0075650D03*
X0208475Y0074764D03*
X0205030Y0079587D03*
X0205030Y0079685D03*
X0205128Y0080374D03*
X0205128Y0080472D03*
X0205226Y0080965D03*
X0205226Y0081063D03*
X0205226Y0081161D03*
X0205325Y0081457D03*
X0205325Y0081555D03*
X0205325Y0081654D03*
X0205620Y0082638D03*
X0205620Y0082736D03*
X0205620Y0082835D03*
X0205719Y0083031D03*
X0205719Y0083130D03*
X0205817Y0083327D03*
X0205817Y0083425D03*
X0205915Y0083720D03*
X0206014Y0084016D03*
X0213986Y0089724D03*
X0213986Y0090709D03*
X0221565Y0093071D03*
D67*
X0213789Y0093661D03*
X0213593Y0093563D03*
X0233967Y0093661D03*
X0213593Y0061870D03*
X0233967Y0061772D03*
D68*
X0233228Y0064528D03*
X0233228Y0065217D03*
X0228012Y0066299D03*
X0224272Y0062559D03*
X0223681Y0063248D03*
X0223091Y0061870D03*
X0221516Y0064134D03*
X0219350Y0065118D03*
X0209114Y0074862D03*
X0207933Y0074862D03*
X0207933Y0075551D03*
X0214528Y0089823D03*
X0213347Y0090512D03*
X0219350Y0088740D03*
X0221024Y0093169D03*
X0221024Y0093858D03*
X0222205Y0093858D03*
X0222205Y0093169D03*
X0225847Y0092677D03*
X0228012Y0091398D03*
X0239134Y0077126D03*
D69*
X0230473Y0065020D03*
X0234114Y0061870D03*
X0234311Y0061969D03*
X0234410Y0062067D03*
X0213445Y0061969D03*
X0213150Y0062165D03*
X0213150Y0093268D03*
X0213445Y0093465D03*
X0234114Y0093563D03*
X0234311Y0093465D03*
X0234410Y0093366D03*
D70*
X0227963Y0091299D03*
X0225797Y0092579D03*
X0222254Y0093268D03*
X0222254Y0093760D03*
X0221565Y0094547D03*
X0220876Y0093661D03*
X0220876Y0093366D03*
X0219400Y0088642D03*
X0213986Y0091201D03*
X0213297Y0090413D03*
X0213297Y0089921D03*
X0208475Y0076240D03*
X0207786Y0075453D03*
X0207786Y0075354D03*
X0207786Y0075059D03*
X0207884Y0074961D03*
X0219400Y0065217D03*
X0221565Y0064232D03*
X0223041Y0062559D03*
X0222943Y0062461D03*
X0222943Y0062362D03*
X0222943Y0062067D03*
X0223041Y0061969D03*
X0224321Y0061969D03*
X0224321Y0062461D03*
X0227963Y0066398D03*
X0231998Y0064528D03*
X0232589Y0063839D03*
X0233278Y0064626D03*
X0233278Y0065118D03*
X0232589Y0065906D03*
X0238494Y0076437D03*
X0239183Y0077224D03*
X0239183Y0077717D03*
X0237904Y0077815D03*
X0224223Y0077323D03*
D71*
X0230522Y0064921D03*
X0234557Y0062165D03*
X0213297Y0062067D03*
X0213002Y0062264D03*
X0213002Y0093169D03*
X0213297Y0093366D03*
X0234557Y0093268D03*
D72*
X0234705Y0093169D03*
X0234902Y0093071D03*
X0235000Y0092972D03*
X0212854Y0093071D03*
X0212756Y0092972D03*
X0207244Y0069744D03*
X0212756Y0062461D03*
X0212854Y0062362D03*
X0230571Y0064823D03*
X0234705Y0062264D03*
X0234902Y0062362D03*
X0235000Y0062461D03*
D73*
X0235148Y0062559D03*
X0235246Y0062657D03*
X0235541Y0062854D03*
X0230719Y0064626D03*
X0230620Y0064724D03*
X0212608Y0062559D03*
X0212412Y0062657D03*
X0212313Y0062756D03*
X0206604Y0084114D03*
X0212313Y0092677D03*
X0212412Y0092776D03*
X0212608Y0092874D03*
X0235148Y0092874D03*
X0235246Y0092776D03*
X0235541Y0092579D03*
D74*
X0240610Y0086575D03*
X0240709Y0086378D03*
X0240807Y0086181D03*
X0240906Y0085984D03*
X0241004Y0085787D03*
X0241004Y0085689D03*
X0241102Y0085591D03*
X0241102Y0085492D03*
X0241201Y0085394D03*
X0241201Y0085295D03*
X0241299Y0085197D03*
X0241299Y0085098D03*
X0241398Y0084902D03*
X0241496Y0084705D03*
X0241496Y0084606D03*
X0241595Y0084409D03*
X0241693Y0084114D03*
X0241791Y0083819D03*
X0241791Y0071614D03*
X0241693Y0071319D03*
X0241595Y0071024D03*
X0241496Y0070827D03*
X0241496Y0070728D03*
X0241398Y0070630D03*
X0241398Y0070531D03*
X0241299Y0070335D03*
X0241299Y0070236D03*
X0240906Y0069449D03*
X0240807Y0069252D03*
X0240709Y0069055D03*
X0223681Y0062657D03*
X0206654Y0069843D03*
X0206555Y0070039D03*
X0206555Y0070138D03*
X0206457Y0070236D03*
X0206457Y0070335D03*
X0206358Y0070433D03*
X0206358Y0070531D03*
X0206358Y0070630D03*
X0206260Y0070728D03*
X0206260Y0070827D03*
X0206162Y0070925D03*
X0206162Y0071024D03*
X0206063Y0071220D03*
X0206063Y0071319D03*
X0205965Y0071516D03*
X0205965Y0071614D03*
X0205866Y0071811D03*
X0205866Y0071909D03*
X0205669Y0072500D03*
X0205669Y0082933D03*
X0205768Y0083228D03*
X0205866Y0083524D03*
X0205866Y0083622D03*
X0205965Y0083819D03*
X0205965Y0083917D03*
X0206358Y0084902D03*
X0206358Y0085000D03*
X0206457Y0085098D03*
X0206457Y0085197D03*
X0206555Y0085295D03*
X0206555Y0085394D03*
X0206654Y0085591D03*
X0206752Y0085787D03*
X0206850Y0085984D03*
X0206949Y0086181D03*
X0207047Y0086378D03*
X0213937Y0090610D03*
X0221614Y0093957D03*
D75*
X0212165Y0092579D03*
X0212067Y0092480D03*
X0211969Y0092382D03*
X0206555Y0084213D03*
X0207244Y0069646D03*
X0211969Y0063051D03*
X0212067Y0062953D03*
X0212165Y0062854D03*
X0235394Y0062756D03*
X0235689Y0062953D03*
X0235787Y0063051D03*
X0240709Y0070138D03*
X0241496Y0072303D03*
X0235787Y0092382D03*
X0235689Y0092480D03*
X0235394Y0092677D03*
D76*
X0221614Y0094252D03*
X0213937Y0090906D03*
X0208524Y0075945D03*
X0208524Y0074469D03*
X0223681Y0062953D03*
D77*
X0223681Y0063051D03*
X0208524Y0076043D03*
X0213937Y0091004D03*
X0221614Y0092677D03*
X0221614Y0094350D03*
D78*
X0211821Y0092283D03*
X0211723Y0092185D03*
X0211624Y0092087D03*
X0205915Y0081850D03*
X0207195Y0069547D03*
X0211624Y0063346D03*
X0211723Y0063248D03*
X0211821Y0063150D03*
X0235935Y0063150D03*
X0236034Y0063248D03*
X0236132Y0063346D03*
X0240758Y0070039D03*
X0241545Y0072205D03*
X0241545Y0083130D03*
X0236132Y0092087D03*
X0236034Y0092185D03*
X0235935Y0092283D03*
D79*
X0227913Y0087165D03*
X0227913Y0087067D03*
X0227913Y0086969D03*
X0227913Y0086870D03*
X0227913Y0086772D03*
X0227913Y0086673D03*
X0227913Y0086575D03*
X0227913Y0086476D03*
X0227913Y0086378D03*
X0227913Y0086280D03*
X0227913Y0086181D03*
X0227913Y0086083D03*
X0227913Y0085984D03*
X0227913Y0085886D03*
X0227913Y0085787D03*
X0227913Y0085689D03*
X0227913Y0085591D03*
X0227913Y0085492D03*
X0225748Y0085492D03*
X0225748Y0085591D03*
X0225748Y0085689D03*
X0225748Y0085787D03*
X0225748Y0085886D03*
X0225748Y0085984D03*
X0225748Y0086083D03*
X0225748Y0086181D03*
X0225748Y0086280D03*
X0225748Y0086378D03*
X0225748Y0086476D03*
X0225748Y0086575D03*
X0225748Y0086673D03*
X0225748Y0086772D03*
X0225748Y0086870D03*
X0225748Y0086969D03*
X0225748Y0087067D03*
X0225748Y0087165D03*
X0223681Y0087165D03*
X0223681Y0087067D03*
X0223681Y0086969D03*
X0223681Y0086870D03*
X0223681Y0086772D03*
X0223681Y0086673D03*
X0223681Y0086575D03*
X0223681Y0086476D03*
X0223681Y0086378D03*
X0223681Y0086280D03*
X0223681Y0086181D03*
X0223681Y0086083D03*
X0223681Y0085984D03*
X0223681Y0085886D03*
X0223681Y0085787D03*
X0223681Y0085689D03*
X0223681Y0085591D03*
X0223681Y0085492D03*
X0221614Y0085492D03*
X0221614Y0085591D03*
X0221614Y0085689D03*
X0221614Y0085787D03*
X0221614Y0085886D03*
X0221614Y0085984D03*
X0221614Y0086083D03*
X0221614Y0086181D03*
X0221614Y0086280D03*
X0221614Y0086378D03*
X0221614Y0086476D03*
X0221614Y0086575D03*
X0221614Y0086673D03*
X0221614Y0086772D03*
X0221614Y0086870D03*
X0221614Y0086969D03*
X0221614Y0087067D03*
X0221614Y0087165D03*
X0219449Y0087165D03*
X0219449Y0087067D03*
X0219449Y0086969D03*
X0219449Y0086870D03*
X0219449Y0086772D03*
X0219449Y0086673D03*
X0219449Y0086575D03*
X0219449Y0086476D03*
X0219449Y0086378D03*
X0219449Y0086280D03*
X0219449Y0086181D03*
X0219449Y0086083D03*
X0219449Y0085984D03*
X0219449Y0085886D03*
X0219449Y0085787D03*
X0219449Y0085689D03*
X0219449Y0085591D03*
X0219449Y0085492D03*
X0221614Y0094449D03*
X0221614Y0069350D03*
X0221614Y0069252D03*
X0221614Y0069154D03*
X0221614Y0069055D03*
X0221614Y0068957D03*
X0221614Y0068858D03*
X0221614Y0068760D03*
X0221614Y0068661D03*
X0221614Y0068563D03*
X0221614Y0068465D03*
X0221614Y0068366D03*
X0221614Y0068268D03*
X0223681Y0068268D03*
X0223681Y0068366D03*
X0223681Y0068465D03*
X0223681Y0068563D03*
X0223681Y0068661D03*
X0223681Y0068760D03*
X0223681Y0068858D03*
X0223681Y0068957D03*
X0223681Y0069055D03*
X0223681Y0069154D03*
X0223681Y0069252D03*
X0223681Y0069350D03*
X0225748Y0069350D03*
X0225748Y0069252D03*
X0225748Y0069154D03*
X0225748Y0069055D03*
X0225748Y0068957D03*
X0225748Y0068858D03*
X0225748Y0068760D03*
X0225748Y0068661D03*
X0225748Y0068563D03*
X0225748Y0068465D03*
X0225748Y0068366D03*
X0225748Y0068268D03*
X0227913Y0068268D03*
X0227913Y0068366D03*
X0227913Y0068465D03*
X0227913Y0068563D03*
X0227913Y0068661D03*
X0227913Y0068760D03*
X0227913Y0068858D03*
X0227913Y0068957D03*
X0227913Y0069055D03*
X0227913Y0069154D03*
X0227913Y0069252D03*
X0227913Y0069350D03*
X0223681Y0063150D03*
X0219449Y0068268D03*
X0219449Y0068366D03*
X0219449Y0068465D03*
X0219449Y0068563D03*
X0219449Y0068661D03*
X0219449Y0068760D03*
X0219449Y0068858D03*
X0219449Y0068957D03*
X0219449Y0069055D03*
X0219449Y0069154D03*
X0219449Y0069252D03*
X0219449Y0069350D03*
D80*
X0211476Y0063445D03*
X0211378Y0063543D03*
X0211280Y0063642D03*
X0205866Y0081949D03*
X0206555Y0084311D03*
X0211280Y0091791D03*
X0211378Y0091890D03*
X0211476Y0091988D03*
X0236280Y0091988D03*
X0236378Y0091890D03*
X0236476Y0091791D03*
X0236575Y0091693D03*
X0241595Y0083228D03*
X0236575Y0063740D03*
X0236476Y0063642D03*
X0236378Y0063543D03*
X0236280Y0063445D03*
D81*
X0236723Y0063839D03*
X0236821Y0063937D03*
X0236919Y0064035D03*
X0237018Y0064134D03*
X0237116Y0064232D03*
X0237215Y0064331D03*
X0237313Y0064429D03*
X0240758Y0069941D03*
X0241545Y0072106D03*
X0237313Y0091004D03*
X0237215Y0091102D03*
X0237116Y0091201D03*
X0237018Y0091299D03*
X0236919Y0091398D03*
X0236821Y0091496D03*
X0236723Y0091594D03*
X0211132Y0091693D03*
X0211034Y0091594D03*
X0210935Y0091496D03*
X0210837Y0091398D03*
X0210738Y0091299D03*
X0210443Y0091004D03*
X0206506Y0084409D03*
X0205817Y0082047D03*
X0207195Y0069449D03*
X0210443Y0064429D03*
X0210738Y0064134D03*
X0210837Y0064035D03*
X0210935Y0063937D03*
X0211034Y0063839D03*
X0211132Y0063740D03*
D82*
X0208475Y0076142D03*
X0213986Y0091102D03*
X0238494Y0078406D03*
X0238494Y0076535D03*
X0232589Y0065807D03*
X0232589Y0063937D03*
D83*
X0237461Y0064528D03*
X0240807Y0069843D03*
X0241595Y0072008D03*
X0241595Y0083327D03*
X0237461Y0090906D03*
X0210591Y0091201D03*
X0210492Y0091102D03*
X0210295Y0090906D03*
X0210197Y0090807D03*
X0210099Y0090709D03*
X0206457Y0084508D03*
X0205768Y0082146D03*
X0207146Y0069350D03*
X0210099Y0064724D03*
X0210197Y0064626D03*
X0210295Y0064528D03*
X0210492Y0064331D03*
X0210591Y0064232D03*
D84*
X0210049Y0064823D03*
X0209951Y0064921D03*
X0209852Y0065020D03*
X0209754Y0065118D03*
X0209656Y0065217D03*
X0209557Y0065315D03*
X0237510Y0064626D03*
X0237608Y0064724D03*
X0237707Y0064823D03*
X0237805Y0064921D03*
X0237904Y0065020D03*
X0238002Y0065118D03*
X0238100Y0065217D03*
X0238396Y0065610D03*
X0241644Y0071909D03*
X0241644Y0083425D03*
X0238100Y0090217D03*
X0238002Y0090315D03*
X0237904Y0090413D03*
X0237805Y0090512D03*
X0237707Y0090610D03*
X0237608Y0090709D03*
X0237510Y0090807D03*
X0210049Y0090610D03*
X0209951Y0090512D03*
X0209852Y0090413D03*
X0209754Y0090315D03*
X0209656Y0090217D03*
X0209557Y0090118D03*
D85*
X0209508Y0090020D03*
X0209410Y0089921D03*
X0209311Y0089823D03*
X0209213Y0089724D03*
X0209114Y0089528D03*
X0209016Y0089429D03*
X0208917Y0089331D03*
X0206457Y0084606D03*
X0205768Y0082244D03*
X0207146Y0069252D03*
X0208917Y0066102D03*
X0209016Y0066004D03*
X0209114Y0065906D03*
X0209213Y0065709D03*
X0209311Y0065610D03*
X0209410Y0065512D03*
X0209508Y0065413D03*
X0238150Y0065315D03*
X0238248Y0065413D03*
X0238347Y0065512D03*
X0238445Y0065709D03*
X0238543Y0065807D03*
X0238642Y0065906D03*
X0238740Y0066004D03*
X0239036Y0066398D03*
X0240807Y0069744D03*
X0241693Y0083524D03*
X0239036Y0089035D03*
X0238740Y0089429D03*
X0238642Y0089528D03*
X0238543Y0089626D03*
X0238445Y0089724D03*
X0238445Y0089823D03*
X0238347Y0089921D03*
X0238248Y0090020D03*
X0238150Y0090118D03*
D86*
X0238789Y0089331D03*
X0238888Y0089232D03*
X0238986Y0089134D03*
X0239085Y0088937D03*
X0239183Y0088839D03*
X0239282Y0088740D03*
X0239380Y0088543D03*
X0239478Y0088445D03*
X0241644Y0071811D03*
X0240856Y0069646D03*
X0239478Y0066988D03*
X0239380Y0066890D03*
X0239282Y0066693D03*
X0239183Y0066594D03*
X0239085Y0066496D03*
X0238986Y0066299D03*
X0238888Y0066201D03*
X0238789Y0066102D03*
X0209163Y0065807D03*
X0208868Y0066201D03*
X0208770Y0066299D03*
X0208671Y0066398D03*
X0208671Y0066496D03*
X0208573Y0066594D03*
X0208475Y0066693D03*
X0208278Y0066988D03*
X0208081Y0067283D03*
X0207097Y0069154D03*
X0205719Y0082343D03*
X0206408Y0084705D03*
X0208081Y0088150D03*
X0208278Y0088445D03*
X0208475Y0088740D03*
X0208573Y0088839D03*
X0208671Y0088937D03*
X0208671Y0089035D03*
X0208770Y0089134D03*
X0208868Y0089232D03*
X0209163Y0089626D03*
D87*
X0208425Y0088642D03*
X0208327Y0088543D03*
X0208228Y0088346D03*
X0208130Y0088248D03*
X0208032Y0088051D03*
X0207933Y0087953D03*
X0207933Y0087854D03*
X0207835Y0087756D03*
X0207736Y0087657D03*
X0207736Y0087559D03*
X0207638Y0087461D03*
X0207539Y0087264D03*
X0207244Y0086772D03*
X0205669Y0082441D03*
X0207244Y0068661D03*
X0207539Y0068169D03*
X0207638Y0067972D03*
X0207736Y0067874D03*
X0207736Y0067776D03*
X0207835Y0067677D03*
X0207933Y0067579D03*
X0207933Y0067480D03*
X0208032Y0067382D03*
X0208130Y0067185D03*
X0208228Y0067087D03*
X0208327Y0066890D03*
X0208425Y0066791D03*
X0239331Y0066791D03*
X0239528Y0067087D03*
X0239626Y0067185D03*
X0239626Y0067283D03*
X0239725Y0067382D03*
X0239823Y0067480D03*
X0239823Y0067579D03*
X0239921Y0067677D03*
X0240020Y0067874D03*
X0240217Y0068169D03*
X0240906Y0069547D03*
X0241693Y0083622D03*
X0240217Y0087264D03*
X0240020Y0087559D03*
X0239921Y0087756D03*
X0239823Y0087854D03*
X0239823Y0087953D03*
X0239725Y0088051D03*
X0239626Y0088150D03*
X0239626Y0088248D03*
X0239528Y0088346D03*
X0239331Y0088642D03*
D88*
X0239971Y0087657D03*
X0240069Y0087461D03*
X0240167Y0087362D03*
X0240266Y0087165D03*
X0240364Y0087067D03*
X0240364Y0086969D03*
X0240463Y0086870D03*
X0240463Y0086772D03*
X0240561Y0086673D03*
X0240660Y0086476D03*
X0240758Y0086280D03*
X0240856Y0086083D03*
X0240955Y0085886D03*
X0241742Y0083720D03*
X0241742Y0071713D03*
X0240856Y0069350D03*
X0240758Y0069154D03*
X0240660Y0068957D03*
X0240561Y0068858D03*
X0240561Y0068760D03*
X0240463Y0068661D03*
X0240463Y0068563D03*
X0240364Y0068465D03*
X0240364Y0068366D03*
X0240266Y0068268D03*
X0240167Y0068071D03*
X0240069Y0067972D03*
X0239971Y0067776D03*
X0207589Y0068071D03*
X0207490Y0068268D03*
X0207392Y0068366D03*
X0207392Y0068465D03*
X0207293Y0068563D03*
X0207195Y0068760D03*
X0207097Y0068858D03*
X0207097Y0068957D03*
X0207097Y0069055D03*
X0206604Y0069941D03*
X0205620Y0082539D03*
X0206408Y0084803D03*
X0206604Y0085492D03*
X0206703Y0085689D03*
X0206801Y0085886D03*
X0206900Y0086083D03*
X0206998Y0086280D03*
X0207097Y0086476D03*
X0207097Y0086575D03*
X0207195Y0086673D03*
X0207293Y0086870D03*
X0207392Y0086969D03*
X0207392Y0087067D03*
X0207490Y0087165D03*
X0207589Y0087362D03*
D89*
X0223829Y0069744D03*
D90*
X0223878Y0069843D03*
X0231457Y0077323D03*
X0231555Y0077224D03*
X0233032Y0081752D03*
X0233130Y0081850D03*
X0233228Y0081949D03*
X0223878Y0084902D03*
D91*
X0223878Y0069941D03*
D92*
X0223829Y0070138D03*
X0215660Y0079488D03*
X0215561Y0079587D03*
X0215463Y0079685D03*
X0215364Y0079783D03*
D93*
X0223829Y0070236D03*
D94*
X0223829Y0070335D03*
D95*
X0223829Y0070433D03*
D96*
X0223878Y0070630D03*
X0223878Y0084114D03*
X0223878Y0084213D03*
D97*
X0223878Y0083917D03*
X0223878Y0083819D03*
X0223878Y0070925D03*
D98*
X0223829Y0071024D03*
D99*
X0223878Y0071122D03*
X0223878Y0071220D03*
X0223878Y0083622D03*
X0223878Y0083720D03*
D100*
X0223829Y0071516D03*
D101*
X0223878Y0071614D03*
X0223878Y0071713D03*
X0223878Y0071811D03*
X0223878Y0071909D03*
D102*
X0218858Y0072106D03*
X0217382Y0073681D03*
X0218858Y0080472D03*
X0218858Y0080571D03*
X0228898Y0076535D03*
D103*
X0228652Y0080374D03*
X0228652Y0072106D03*
X0217628Y0072598D03*
X0217628Y0072697D03*
D104*
X0218908Y0080374D03*
X0228849Y0080866D03*
X0228750Y0082933D03*
X0228849Y0076732D03*
X0228849Y0076634D03*
X0228849Y0072205D03*
D105*
X0218563Y0072303D03*
X0230571Y0095236D03*
D106*
X0230620Y0095138D03*
X0229045Y0082736D03*
X0218809Y0082933D03*
X0218711Y0080866D03*
X0229045Y0072402D03*
D107*
X0229882Y0072598D03*
X0217874Y0081161D03*
X0223878Y0097303D03*
D108*
X0228602Y0083031D03*
X0228701Y0080571D03*
X0228701Y0080472D03*
X0230177Y0073780D03*
X0230177Y0073681D03*
X0217579Y0072795D03*
X0217579Y0082047D03*
D109*
X0215856Y0072992D03*
D110*
X0214183Y0075059D03*
X0214183Y0075157D03*
X0231998Y0072992D03*
D111*
X0215856Y0073091D03*
D112*
X0223829Y0085394D03*
X0233081Y0074961D03*
X0231998Y0073091D03*
D113*
X0215906Y0073189D03*
D114*
X0231949Y0073189D03*
X0233032Y0075059D03*
D115*
X0215906Y0073287D03*
D116*
X0231949Y0073287D03*
X0232835Y0075354D03*
D117*
X0228849Y0078898D03*
X0228849Y0078996D03*
X0215955Y0073386D03*
D118*
X0231900Y0073386D03*
D119*
X0231850Y0073484D03*
D120*
X0216004Y0073583D03*
D121*
X0218071Y0073878D03*
X0218071Y0073976D03*
X0218071Y0075945D03*
X0215807Y0094744D03*
X0232539Y0094350D03*
D122*
X0218268Y0082441D03*
X0218268Y0076535D03*
X0229488Y0075945D03*
X0229488Y0074075D03*
X0229488Y0073976D03*
X0229488Y0073878D03*
D123*
X0214232Y0075256D03*
X0214232Y0075354D03*
X0214134Y0074961D03*
D124*
X0232884Y0075256D03*
X0232982Y0075157D03*
D125*
X0223287Y0075453D03*
X0223189Y0075551D03*
D126*
X0223878Y0075650D03*
X0223878Y0075748D03*
X0223878Y0077815D03*
X0223878Y0077913D03*
X0223878Y0078012D03*
X0234213Y0079488D03*
D127*
X0229587Y0080965D03*
X0227913Y0083327D03*
X0219646Y0078406D03*
X0218169Y0076929D03*
X0218169Y0076831D03*
D128*
X0218219Y0077028D03*
X0219695Y0078209D03*
X0219695Y0078307D03*
X0228061Y0078799D03*
X0229537Y0076831D03*
D129*
X0229488Y0076929D03*
X0228012Y0078701D03*
X0219744Y0078110D03*
X0218268Y0080079D03*
D130*
X0218612Y0079193D03*
X0229144Y0079783D03*
X0229144Y0077028D03*
D131*
X0213051Y0077126D03*
D132*
X0231604Y0077126D03*
D133*
X0234262Y0079587D03*
X0213494Y0077224D03*
D134*
X0224321Y0077224D03*
D135*
X0234065Y0079094D03*
X0213691Y0077323D03*
D136*
X0221073Y0077421D03*
X0221073Y0077520D03*
X0221073Y0077618D03*
D137*
X0221122Y0077717D03*
D138*
X0227815Y0078110D03*
X0227815Y0078209D03*
X0229291Y0080079D03*
D139*
X0227864Y0078307D03*
D140*
X0229636Y0081063D03*
X0219597Y0078504D03*
D141*
X0218317Y0079980D03*
X0227963Y0078602D03*
X0227963Y0078504D03*
D142*
X0238494Y0078504D03*
D143*
X0229685Y0081161D03*
X0219547Y0078701D03*
X0219547Y0078602D03*
D144*
X0219498Y0078799D03*
X0229734Y0081260D03*
D145*
X0218711Y0078898D03*
D146*
X0218662Y0078996D03*
X0218662Y0079094D03*
D147*
X0234114Y0079193D03*
D148*
X0223878Y0084705D03*
X0215807Y0079291D03*
X0215709Y0079390D03*
D149*
X0234163Y0079390D03*
X0234163Y0079291D03*
D150*
X0234262Y0079685D03*
D151*
X0229193Y0079882D03*
D152*
X0229242Y0079980D03*
D153*
X0228553Y0080177D03*
X0230030Y0082047D03*
X0230030Y0082146D03*
X0228455Y0083130D03*
D154*
X0228799Y0080768D03*
X0218957Y0080276D03*
X0219055Y0083130D03*
X0229587Y0095531D03*
D155*
X0219252Y0083228D03*
X0228602Y0080276D03*
D156*
X0219646Y0083327D03*
X0217973Y0080965D03*
D157*
X0215561Y0081358D03*
X0215463Y0081457D03*
X0215364Y0081555D03*
X0215266Y0081654D03*
D158*
X0232687Y0081358D03*
X0232786Y0081457D03*
X0232884Y0081555D03*
X0232982Y0081654D03*
D159*
X0215217Y0081752D03*
X0215118Y0081850D03*
X0215020Y0081949D03*
D160*
X0223829Y0083524D03*
X0223829Y0096024D03*
D161*
X0223878Y0084409D03*
D162*
X0223878Y0084508D03*
D163*
X0223829Y0085000D03*
D164*
X0223829Y0085098D03*
D165*
X0223878Y0085197D03*
D166*
X0223878Y0085295D03*
M02*
