%
M48
M72
T01C0.01200
T02C0.03200
T03C0.04921
T04C0.07874
%
T01
X32429Y44307
X67075Y70094
X70028Y67732
X73965Y67929
X73965Y71866
X73965Y57102
X104870Y80724
X108217Y77575
X115894Y72063
X114910Y66354
X115894Y61433
X115461Y56354
X111760Y48047
X116681Y47260
X125343Y51394
X125736Y63992
X123768Y70488
X136957Y86039
X127902Y91157
X122587Y96669
X120618Y101197
X118650Y105724
X116681Y111039
X139319Y127181
X141681Y124622
X144437Y115961
X135776Y135055
X132232Y136236
X188335Y143717
X188138Y148441
X192469Y137614
X208413Y163992
X203886Y170882
X187350Y170882
X177705Y196866
X171602Y206118
X174358Y215370
X179280Y221276
X203886Y205921
X210185Y220685
X229083Y214976
X232429Y217142
X237350Y224228
X233807Y225016
X234004Y229937
X241484Y224622
X245618Y224622
X251327Y211827
X249162Y200606
X241484Y191945
X233020Y191157
X234595Y201591
X235776Y178559
X239122Y174031
X255658Y163992
X264713Y155331
X261169Y140961
X238335Y143717
X238335Y153559
X236760Y123244
X239910Y111433
X262547Y116748
X287941Y136039
X299358Y136039
X295028Y126984
X291091Y156512
X306248Y186827
X321602Y203953
X328886Y203165
X330264Y207496
X340303Y208677
X351130Y223835
X345028Y228559
X339713Y228756
X326917Y224425
X323374Y228559
X317862Y240961
X313138Y244307
X307036Y247063
X299358Y252772
X298768Y258874
X343453Y256906
X291878Y218717
X291484Y211236
X314713Y209465
X248177Y240764
X244634Y244701
X247587Y247260
X222784Y255724
X212350Y250213
X207429Y250606
X153689Y254346
X125146Y201591
X122390Y194898
X56681Y198047
X49555Y216945
X47390Y221079
X46799Y226197
X51130Y233283
X52114Y238598
X70028Y143913
X76130Y140764
X25933Y113402
X48965Y95882
X53650Y94031
X67075Y95291
X102508Y91157
X106642Y86827
X148965Y84268
X150736Y71472
X163728Y56512
X174358Y51984
X190106Y58283
X211760Y76984
X219437Y76984
X234988Y56906
X261169Y43520
X239122Y38008
X230264Y36827
X174949Y82102
X154476Y21472
X263138Y94898
X320225Y98835
X325539Y47654
T02
X37232Y29425
X37232Y37260
X21327Y195921
X341445Y56906
X341681Y46472
T03
X236012Y131189
X204516Y131189
T04
X70421Y20685
X124063Y14346
X357823Y44307
X354870Y243126
X333217Y243126
X110776Y243126
X89122Y243126
M30
