G75*
%MOIN*%
%OFA0B0*%
%FSLAX25Y25*%
%IPPOS*%
%LPD*%
%AMOC8*
5,1,8,0,0,1.08239X$1,22.5*
%
%ADD10C,0.00000*%
D10*
X0014319Y0022654D02*
X0060973Y0022654D01*
X0060973Y0022653D02*
X0061070Y0022654D01*
X0061168Y0022650D01*
X0061266Y0022643D01*
X0061363Y0022631D01*
X0061459Y0022616D01*
X0061555Y0022597D01*
X0061650Y0022574D01*
X0061744Y0022548D01*
X0061837Y0022517D01*
X0061929Y0022483D01*
X0062019Y0022446D01*
X0062108Y0022404D01*
X0062195Y0022360D01*
X0062280Y0022311D01*
X0062363Y0022260D01*
X0062444Y0022205D01*
X0062523Y0022147D01*
X0062599Y0022086D01*
X0062673Y0022022D01*
X0062744Y0021955D01*
X0062813Y0021885D01*
X0062878Y0021813D01*
X0062941Y0021738D01*
X0063001Y0021660D01*
X0063057Y0021581D01*
X0063111Y0021499D01*
X0063161Y0021415D01*
X0063207Y0021329D01*
X0063250Y0021241D01*
X0063290Y0021152D01*
X0063326Y0021061D01*
X0063358Y0020968D01*
X0063387Y0020875D01*
X0063412Y0020780D01*
X0063433Y0020685D01*
X0066484Y0020685D02*
X0066486Y0020810D01*
X0066492Y0020935D01*
X0066502Y0021059D01*
X0066516Y0021183D01*
X0066533Y0021307D01*
X0066555Y0021430D01*
X0066581Y0021552D01*
X0066610Y0021674D01*
X0066643Y0021794D01*
X0066681Y0021913D01*
X0066721Y0022032D01*
X0066766Y0022148D01*
X0066814Y0022263D01*
X0066866Y0022377D01*
X0066922Y0022489D01*
X0066981Y0022599D01*
X0067043Y0022707D01*
X0067109Y0022814D01*
X0067178Y0022918D01*
X0067251Y0023019D01*
X0067326Y0023119D01*
X0067405Y0023216D01*
X0067487Y0023310D01*
X0067572Y0023402D01*
X0067659Y0023491D01*
X0067750Y0023577D01*
X0067843Y0023660D01*
X0067939Y0023741D01*
X0068037Y0023818D01*
X0068137Y0023892D01*
X0068240Y0023963D01*
X0068345Y0024030D01*
X0068453Y0024095D01*
X0068562Y0024155D01*
X0068673Y0024213D01*
X0068786Y0024266D01*
X0068900Y0024316D01*
X0069016Y0024363D01*
X0069133Y0024405D01*
X0069252Y0024444D01*
X0069372Y0024480D01*
X0069493Y0024511D01*
X0069615Y0024539D01*
X0069737Y0024562D01*
X0069861Y0024582D01*
X0069985Y0024598D01*
X0070109Y0024610D01*
X0070234Y0024618D01*
X0070359Y0024622D01*
X0070483Y0024622D01*
X0070608Y0024618D01*
X0070733Y0024610D01*
X0070857Y0024598D01*
X0070981Y0024582D01*
X0071105Y0024562D01*
X0071227Y0024539D01*
X0071349Y0024511D01*
X0071470Y0024480D01*
X0071590Y0024444D01*
X0071709Y0024405D01*
X0071826Y0024363D01*
X0071942Y0024316D01*
X0072056Y0024266D01*
X0072169Y0024213D01*
X0072280Y0024155D01*
X0072390Y0024095D01*
X0072497Y0024030D01*
X0072602Y0023963D01*
X0072705Y0023892D01*
X0072805Y0023818D01*
X0072903Y0023741D01*
X0072999Y0023660D01*
X0073092Y0023577D01*
X0073183Y0023491D01*
X0073270Y0023402D01*
X0073355Y0023310D01*
X0073437Y0023216D01*
X0073516Y0023119D01*
X0073591Y0023019D01*
X0073664Y0022918D01*
X0073733Y0022814D01*
X0073799Y0022707D01*
X0073861Y0022599D01*
X0073920Y0022489D01*
X0073976Y0022377D01*
X0074028Y0022263D01*
X0074076Y0022148D01*
X0074121Y0022032D01*
X0074161Y0021913D01*
X0074199Y0021794D01*
X0074232Y0021674D01*
X0074261Y0021552D01*
X0074287Y0021430D01*
X0074309Y0021307D01*
X0074326Y0021183D01*
X0074340Y0021059D01*
X0074350Y0020935D01*
X0074356Y0020810D01*
X0074358Y0020685D01*
X0074356Y0020560D01*
X0074350Y0020435D01*
X0074340Y0020311D01*
X0074326Y0020187D01*
X0074309Y0020063D01*
X0074287Y0019940D01*
X0074261Y0019818D01*
X0074232Y0019696D01*
X0074199Y0019576D01*
X0074161Y0019457D01*
X0074121Y0019338D01*
X0074076Y0019222D01*
X0074028Y0019107D01*
X0073976Y0018993D01*
X0073920Y0018881D01*
X0073861Y0018771D01*
X0073799Y0018663D01*
X0073733Y0018556D01*
X0073664Y0018452D01*
X0073591Y0018351D01*
X0073516Y0018251D01*
X0073437Y0018154D01*
X0073355Y0018060D01*
X0073270Y0017968D01*
X0073183Y0017879D01*
X0073092Y0017793D01*
X0072999Y0017710D01*
X0072903Y0017629D01*
X0072805Y0017552D01*
X0072705Y0017478D01*
X0072602Y0017407D01*
X0072497Y0017340D01*
X0072389Y0017275D01*
X0072280Y0017215D01*
X0072169Y0017157D01*
X0072056Y0017104D01*
X0071942Y0017054D01*
X0071826Y0017007D01*
X0071709Y0016965D01*
X0071590Y0016926D01*
X0071470Y0016890D01*
X0071349Y0016859D01*
X0071227Y0016831D01*
X0071105Y0016808D01*
X0070981Y0016788D01*
X0070857Y0016772D01*
X0070733Y0016760D01*
X0070608Y0016752D01*
X0070483Y0016748D01*
X0070359Y0016748D01*
X0070234Y0016752D01*
X0070109Y0016760D01*
X0069985Y0016772D01*
X0069861Y0016788D01*
X0069737Y0016808D01*
X0069615Y0016831D01*
X0069493Y0016859D01*
X0069372Y0016890D01*
X0069252Y0016926D01*
X0069133Y0016965D01*
X0069016Y0017007D01*
X0068900Y0017054D01*
X0068786Y0017104D01*
X0068673Y0017157D01*
X0068562Y0017215D01*
X0068452Y0017275D01*
X0068345Y0017340D01*
X0068240Y0017407D01*
X0068137Y0017478D01*
X0068037Y0017552D01*
X0067939Y0017629D01*
X0067843Y0017710D01*
X0067750Y0017793D01*
X0067659Y0017879D01*
X0067572Y0017968D01*
X0067487Y0018060D01*
X0067405Y0018154D01*
X0067326Y0018251D01*
X0067251Y0018351D01*
X0067178Y0018452D01*
X0067109Y0018556D01*
X0067043Y0018663D01*
X0066981Y0018771D01*
X0066922Y0018881D01*
X0066866Y0018993D01*
X0066814Y0019107D01*
X0066766Y0019222D01*
X0066721Y0019338D01*
X0066681Y0019457D01*
X0066643Y0019576D01*
X0066610Y0019696D01*
X0066581Y0019818D01*
X0066555Y0019940D01*
X0066533Y0020063D01*
X0066516Y0020187D01*
X0066502Y0020311D01*
X0066492Y0020435D01*
X0066486Y0020560D01*
X0066484Y0020685D01*
X0063433Y0020685D02*
X0063426Y0020513D01*
X0063423Y0020340D01*
X0063424Y0020168D01*
X0063430Y0019995D01*
X0063440Y0019823D01*
X0063454Y0019651D01*
X0063472Y0019480D01*
X0063494Y0019309D01*
X0063521Y0019138D01*
X0063552Y0018969D01*
X0063587Y0018800D01*
X0063626Y0018632D01*
X0063669Y0018465D01*
X0063716Y0018299D01*
X0063767Y0018134D01*
X0063823Y0017971D01*
X0063882Y0017809D01*
X0063945Y0017648D01*
X0064012Y0017489D01*
X0064083Y0017332D01*
X0064158Y0017177D01*
X0064237Y0017023D01*
X0064319Y0016872D01*
X0064406Y0016722D01*
X0064495Y0016575D01*
X0064589Y0016430D01*
X0064685Y0016287D01*
X0064786Y0016147D01*
X0064890Y0016009D01*
X0064997Y0015874D01*
X0065107Y0015741D01*
X0065221Y0015611D01*
X0065337Y0015484D01*
X0065457Y0015360D01*
X0065580Y0015239D01*
X0065706Y0015121D01*
X0065834Y0015006D01*
X0065966Y0014894D01*
X0066100Y0014786D01*
X0066237Y0014680D01*
X0066376Y0014579D01*
X0066517Y0014480D01*
X0066662Y0014385D01*
X0066808Y0014294D01*
X0066956Y0014206D01*
X0067107Y0014122D01*
X0067260Y0014042D01*
X0067414Y0013965D01*
X0067571Y0013893D01*
X0067729Y0013824D01*
X0067889Y0013759D01*
X0068050Y0013698D01*
X0068213Y0013641D01*
X0068377Y0013588D01*
X0068542Y0013539D01*
X0068709Y0013494D01*
X0068877Y0013453D01*
X0069045Y0013416D01*
X0069215Y0013384D01*
X0069385Y0013355D01*
X0069555Y0013331D01*
X0069727Y0013311D01*
X0069899Y0013295D01*
X0070071Y0013284D01*
X0070243Y0013276D01*
X0070416Y0013273D01*
X0070588Y0013274D01*
X0070760Y0013280D01*
X0070933Y0013289D01*
X0071105Y0013303D01*
X0071276Y0013321D01*
X0071447Y0013343D01*
X0071618Y0013369D01*
X0071788Y0013400D01*
X0071957Y0013434D01*
X0072125Y0013473D01*
X0072292Y0013516D01*
X0072458Y0013563D01*
X0072622Y0013614D01*
X0072786Y0013669D01*
X0072948Y0013728D01*
X0073109Y0013791D01*
X0073268Y0013858D01*
X0073425Y0013929D01*
X0073580Y0014004D01*
X0073734Y0014082D01*
X0073886Y0014164D01*
X0074035Y0014250D01*
X0074183Y0014340D01*
X0074328Y0014433D01*
X0074471Y0014530D01*
X0074611Y0014630D01*
X0074749Y0014733D01*
X0074885Y0014840D01*
X0075017Y0014950D01*
X0075147Y0015064D01*
X0075274Y0015180D01*
X0075399Y0015300D01*
X0075520Y0015423D01*
X0075638Y0015548D01*
X0075753Y0015677D01*
X0075865Y0015808D01*
X0075974Y0015942D01*
X0076080Y0016078D01*
X0076182Y0016218D01*
X0076280Y0016359D01*
X0076375Y0016503D01*
X0076467Y0016649D01*
X0076555Y0016798D01*
X0076639Y0016948D01*
X0076719Y0017101D01*
X0076796Y0017255D01*
X0076869Y0017412D01*
X0076938Y0017570D01*
X0077003Y0017729D01*
X0077065Y0017891D01*
X0077122Y0018053D01*
X0077175Y0018217D01*
X0077224Y0018383D01*
X0077270Y0018549D01*
X0077311Y0018717D01*
X0094043Y0018717D01*
X0094043Y0001000D01*
X0126524Y0001000D01*
X0126524Y0004937D01*
X0171012Y0004937D01*
X0171012Y0028559D01*
X0356839Y0028559D01*
X0364713Y0036433D01*
X0364713Y0112220D01*
X0317469Y0112220D01*
X0317469Y0190961D01*
X0364713Y0190961D01*
X0364713Y0264780D01*
X0048768Y0264780D01*
X0014319Y0245094D01*
X0014319Y0022654D01*
X0120126Y0014346D02*
X0120128Y0014471D01*
X0120134Y0014596D01*
X0120144Y0014720D01*
X0120158Y0014844D01*
X0120175Y0014968D01*
X0120197Y0015091D01*
X0120223Y0015213D01*
X0120252Y0015335D01*
X0120285Y0015455D01*
X0120323Y0015574D01*
X0120363Y0015693D01*
X0120408Y0015809D01*
X0120456Y0015924D01*
X0120508Y0016038D01*
X0120564Y0016150D01*
X0120623Y0016260D01*
X0120685Y0016368D01*
X0120751Y0016475D01*
X0120820Y0016579D01*
X0120893Y0016680D01*
X0120968Y0016780D01*
X0121047Y0016877D01*
X0121129Y0016971D01*
X0121214Y0017063D01*
X0121301Y0017152D01*
X0121392Y0017238D01*
X0121485Y0017321D01*
X0121581Y0017402D01*
X0121679Y0017479D01*
X0121779Y0017553D01*
X0121882Y0017624D01*
X0121987Y0017691D01*
X0122095Y0017756D01*
X0122204Y0017816D01*
X0122315Y0017874D01*
X0122428Y0017927D01*
X0122542Y0017977D01*
X0122658Y0018024D01*
X0122775Y0018066D01*
X0122894Y0018105D01*
X0123014Y0018141D01*
X0123135Y0018172D01*
X0123257Y0018200D01*
X0123379Y0018223D01*
X0123503Y0018243D01*
X0123627Y0018259D01*
X0123751Y0018271D01*
X0123876Y0018279D01*
X0124001Y0018283D01*
X0124125Y0018283D01*
X0124250Y0018279D01*
X0124375Y0018271D01*
X0124499Y0018259D01*
X0124623Y0018243D01*
X0124747Y0018223D01*
X0124869Y0018200D01*
X0124991Y0018172D01*
X0125112Y0018141D01*
X0125232Y0018105D01*
X0125351Y0018066D01*
X0125468Y0018024D01*
X0125584Y0017977D01*
X0125698Y0017927D01*
X0125811Y0017874D01*
X0125922Y0017816D01*
X0126032Y0017756D01*
X0126139Y0017691D01*
X0126244Y0017624D01*
X0126347Y0017553D01*
X0126447Y0017479D01*
X0126545Y0017402D01*
X0126641Y0017321D01*
X0126734Y0017238D01*
X0126825Y0017152D01*
X0126912Y0017063D01*
X0126997Y0016971D01*
X0127079Y0016877D01*
X0127158Y0016780D01*
X0127233Y0016680D01*
X0127306Y0016579D01*
X0127375Y0016475D01*
X0127441Y0016368D01*
X0127503Y0016260D01*
X0127562Y0016150D01*
X0127618Y0016038D01*
X0127670Y0015924D01*
X0127718Y0015809D01*
X0127763Y0015693D01*
X0127803Y0015574D01*
X0127841Y0015455D01*
X0127874Y0015335D01*
X0127903Y0015213D01*
X0127929Y0015091D01*
X0127951Y0014968D01*
X0127968Y0014844D01*
X0127982Y0014720D01*
X0127992Y0014596D01*
X0127998Y0014471D01*
X0128000Y0014346D01*
X0127998Y0014221D01*
X0127992Y0014096D01*
X0127982Y0013972D01*
X0127968Y0013848D01*
X0127951Y0013724D01*
X0127929Y0013601D01*
X0127903Y0013479D01*
X0127874Y0013357D01*
X0127841Y0013237D01*
X0127803Y0013118D01*
X0127763Y0012999D01*
X0127718Y0012883D01*
X0127670Y0012768D01*
X0127618Y0012654D01*
X0127562Y0012542D01*
X0127503Y0012432D01*
X0127441Y0012324D01*
X0127375Y0012217D01*
X0127306Y0012113D01*
X0127233Y0012012D01*
X0127158Y0011912D01*
X0127079Y0011815D01*
X0126997Y0011721D01*
X0126912Y0011629D01*
X0126825Y0011540D01*
X0126734Y0011454D01*
X0126641Y0011371D01*
X0126545Y0011290D01*
X0126447Y0011213D01*
X0126347Y0011139D01*
X0126244Y0011068D01*
X0126139Y0011001D01*
X0126031Y0010936D01*
X0125922Y0010876D01*
X0125811Y0010818D01*
X0125698Y0010765D01*
X0125584Y0010715D01*
X0125468Y0010668D01*
X0125351Y0010626D01*
X0125232Y0010587D01*
X0125112Y0010551D01*
X0124991Y0010520D01*
X0124869Y0010492D01*
X0124747Y0010469D01*
X0124623Y0010449D01*
X0124499Y0010433D01*
X0124375Y0010421D01*
X0124250Y0010413D01*
X0124125Y0010409D01*
X0124001Y0010409D01*
X0123876Y0010413D01*
X0123751Y0010421D01*
X0123627Y0010433D01*
X0123503Y0010449D01*
X0123379Y0010469D01*
X0123257Y0010492D01*
X0123135Y0010520D01*
X0123014Y0010551D01*
X0122894Y0010587D01*
X0122775Y0010626D01*
X0122658Y0010668D01*
X0122542Y0010715D01*
X0122428Y0010765D01*
X0122315Y0010818D01*
X0122204Y0010876D01*
X0122094Y0010936D01*
X0121987Y0011001D01*
X0121882Y0011068D01*
X0121779Y0011139D01*
X0121679Y0011213D01*
X0121581Y0011290D01*
X0121485Y0011371D01*
X0121392Y0011454D01*
X0121301Y0011540D01*
X0121214Y0011629D01*
X0121129Y0011721D01*
X0121047Y0011815D01*
X0120968Y0011912D01*
X0120893Y0012012D01*
X0120820Y0012113D01*
X0120751Y0012217D01*
X0120685Y0012324D01*
X0120623Y0012432D01*
X0120564Y0012542D01*
X0120508Y0012654D01*
X0120456Y0012768D01*
X0120408Y0012883D01*
X0120363Y0012999D01*
X0120323Y0013118D01*
X0120285Y0013237D01*
X0120252Y0013357D01*
X0120223Y0013479D01*
X0120197Y0013601D01*
X0120175Y0013724D01*
X0120158Y0013848D01*
X0120144Y0013972D01*
X0120134Y0014096D01*
X0120128Y0014221D01*
X0120126Y0014346D01*
X0202055Y0131189D02*
X0202057Y0131288D01*
X0202063Y0131387D01*
X0202073Y0131486D01*
X0202087Y0131584D01*
X0202105Y0131681D01*
X0202127Y0131778D01*
X0202152Y0131874D01*
X0202182Y0131968D01*
X0202215Y0132062D01*
X0202252Y0132154D01*
X0202293Y0132244D01*
X0202337Y0132333D01*
X0202385Y0132419D01*
X0202436Y0132504D01*
X0202491Y0132587D01*
X0202549Y0132667D01*
X0202610Y0132745D01*
X0202674Y0132821D01*
X0202741Y0132894D01*
X0202811Y0132964D01*
X0202884Y0133031D01*
X0202960Y0133095D01*
X0203038Y0133156D01*
X0203118Y0133214D01*
X0203201Y0133269D01*
X0203285Y0133320D01*
X0203372Y0133368D01*
X0203461Y0133412D01*
X0203551Y0133453D01*
X0203643Y0133490D01*
X0203737Y0133523D01*
X0203831Y0133553D01*
X0203927Y0133578D01*
X0204024Y0133600D01*
X0204121Y0133618D01*
X0204219Y0133632D01*
X0204318Y0133642D01*
X0204417Y0133648D01*
X0204516Y0133650D01*
X0204615Y0133648D01*
X0204714Y0133642D01*
X0204813Y0133632D01*
X0204911Y0133618D01*
X0205008Y0133600D01*
X0205105Y0133578D01*
X0205201Y0133553D01*
X0205295Y0133523D01*
X0205389Y0133490D01*
X0205481Y0133453D01*
X0205571Y0133412D01*
X0205660Y0133368D01*
X0205746Y0133320D01*
X0205831Y0133269D01*
X0205914Y0133214D01*
X0205994Y0133156D01*
X0206072Y0133095D01*
X0206148Y0133031D01*
X0206221Y0132964D01*
X0206291Y0132894D01*
X0206358Y0132821D01*
X0206422Y0132745D01*
X0206483Y0132667D01*
X0206541Y0132587D01*
X0206596Y0132504D01*
X0206647Y0132420D01*
X0206695Y0132333D01*
X0206739Y0132244D01*
X0206780Y0132154D01*
X0206817Y0132062D01*
X0206850Y0131968D01*
X0206880Y0131874D01*
X0206905Y0131778D01*
X0206927Y0131681D01*
X0206945Y0131584D01*
X0206959Y0131486D01*
X0206969Y0131387D01*
X0206975Y0131288D01*
X0206977Y0131189D01*
X0206975Y0131090D01*
X0206969Y0130991D01*
X0206959Y0130892D01*
X0206945Y0130794D01*
X0206927Y0130697D01*
X0206905Y0130600D01*
X0206880Y0130504D01*
X0206850Y0130410D01*
X0206817Y0130316D01*
X0206780Y0130224D01*
X0206739Y0130134D01*
X0206695Y0130045D01*
X0206647Y0129959D01*
X0206596Y0129874D01*
X0206541Y0129791D01*
X0206483Y0129711D01*
X0206422Y0129633D01*
X0206358Y0129557D01*
X0206291Y0129484D01*
X0206221Y0129414D01*
X0206148Y0129347D01*
X0206072Y0129283D01*
X0205994Y0129222D01*
X0205914Y0129164D01*
X0205831Y0129109D01*
X0205747Y0129058D01*
X0205660Y0129010D01*
X0205571Y0128966D01*
X0205481Y0128925D01*
X0205389Y0128888D01*
X0205295Y0128855D01*
X0205201Y0128825D01*
X0205105Y0128800D01*
X0205008Y0128778D01*
X0204911Y0128760D01*
X0204813Y0128746D01*
X0204714Y0128736D01*
X0204615Y0128730D01*
X0204516Y0128728D01*
X0204417Y0128730D01*
X0204318Y0128736D01*
X0204219Y0128746D01*
X0204121Y0128760D01*
X0204024Y0128778D01*
X0203927Y0128800D01*
X0203831Y0128825D01*
X0203737Y0128855D01*
X0203643Y0128888D01*
X0203551Y0128925D01*
X0203461Y0128966D01*
X0203372Y0129010D01*
X0203286Y0129058D01*
X0203201Y0129109D01*
X0203118Y0129164D01*
X0203038Y0129222D01*
X0202960Y0129283D01*
X0202884Y0129347D01*
X0202811Y0129414D01*
X0202741Y0129484D01*
X0202674Y0129557D01*
X0202610Y0129633D01*
X0202549Y0129711D01*
X0202491Y0129791D01*
X0202436Y0129874D01*
X0202385Y0129958D01*
X0202337Y0130045D01*
X0202293Y0130134D01*
X0202252Y0130224D01*
X0202215Y0130316D01*
X0202182Y0130410D01*
X0202152Y0130504D01*
X0202127Y0130600D01*
X0202105Y0130697D01*
X0202087Y0130794D01*
X0202073Y0130892D01*
X0202063Y0130991D01*
X0202057Y0131090D01*
X0202055Y0131189D01*
X0233551Y0131189D02*
X0233553Y0131288D01*
X0233559Y0131387D01*
X0233569Y0131486D01*
X0233583Y0131584D01*
X0233601Y0131681D01*
X0233623Y0131778D01*
X0233648Y0131874D01*
X0233678Y0131968D01*
X0233711Y0132062D01*
X0233748Y0132154D01*
X0233789Y0132244D01*
X0233833Y0132333D01*
X0233881Y0132419D01*
X0233932Y0132504D01*
X0233987Y0132587D01*
X0234045Y0132667D01*
X0234106Y0132745D01*
X0234170Y0132821D01*
X0234237Y0132894D01*
X0234307Y0132964D01*
X0234380Y0133031D01*
X0234456Y0133095D01*
X0234534Y0133156D01*
X0234614Y0133214D01*
X0234697Y0133269D01*
X0234781Y0133320D01*
X0234868Y0133368D01*
X0234957Y0133412D01*
X0235047Y0133453D01*
X0235139Y0133490D01*
X0235233Y0133523D01*
X0235327Y0133553D01*
X0235423Y0133578D01*
X0235520Y0133600D01*
X0235617Y0133618D01*
X0235715Y0133632D01*
X0235814Y0133642D01*
X0235913Y0133648D01*
X0236012Y0133650D01*
X0236111Y0133648D01*
X0236210Y0133642D01*
X0236309Y0133632D01*
X0236407Y0133618D01*
X0236504Y0133600D01*
X0236601Y0133578D01*
X0236697Y0133553D01*
X0236791Y0133523D01*
X0236885Y0133490D01*
X0236977Y0133453D01*
X0237067Y0133412D01*
X0237156Y0133368D01*
X0237242Y0133320D01*
X0237327Y0133269D01*
X0237410Y0133214D01*
X0237490Y0133156D01*
X0237568Y0133095D01*
X0237644Y0133031D01*
X0237717Y0132964D01*
X0237787Y0132894D01*
X0237854Y0132821D01*
X0237918Y0132745D01*
X0237979Y0132667D01*
X0238037Y0132587D01*
X0238092Y0132504D01*
X0238143Y0132420D01*
X0238191Y0132333D01*
X0238235Y0132244D01*
X0238276Y0132154D01*
X0238313Y0132062D01*
X0238346Y0131968D01*
X0238376Y0131874D01*
X0238401Y0131778D01*
X0238423Y0131681D01*
X0238441Y0131584D01*
X0238455Y0131486D01*
X0238465Y0131387D01*
X0238471Y0131288D01*
X0238473Y0131189D01*
X0238471Y0131090D01*
X0238465Y0130991D01*
X0238455Y0130892D01*
X0238441Y0130794D01*
X0238423Y0130697D01*
X0238401Y0130600D01*
X0238376Y0130504D01*
X0238346Y0130410D01*
X0238313Y0130316D01*
X0238276Y0130224D01*
X0238235Y0130134D01*
X0238191Y0130045D01*
X0238143Y0129959D01*
X0238092Y0129874D01*
X0238037Y0129791D01*
X0237979Y0129711D01*
X0237918Y0129633D01*
X0237854Y0129557D01*
X0237787Y0129484D01*
X0237717Y0129414D01*
X0237644Y0129347D01*
X0237568Y0129283D01*
X0237490Y0129222D01*
X0237410Y0129164D01*
X0237327Y0129109D01*
X0237243Y0129058D01*
X0237156Y0129010D01*
X0237067Y0128966D01*
X0236977Y0128925D01*
X0236885Y0128888D01*
X0236791Y0128855D01*
X0236697Y0128825D01*
X0236601Y0128800D01*
X0236504Y0128778D01*
X0236407Y0128760D01*
X0236309Y0128746D01*
X0236210Y0128736D01*
X0236111Y0128730D01*
X0236012Y0128728D01*
X0235913Y0128730D01*
X0235814Y0128736D01*
X0235715Y0128746D01*
X0235617Y0128760D01*
X0235520Y0128778D01*
X0235423Y0128800D01*
X0235327Y0128825D01*
X0235233Y0128855D01*
X0235139Y0128888D01*
X0235047Y0128925D01*
X0234957Y0128966D01*
X0234868Y0129010D01*
X0234782Y0129058D01*
X0234697Y0129109D01*
X0234614Y0129164D01*
X0234534Y0129222D01*
X0234456Y0129283D01*
X0234380Y0129347D01*
X0234307Y0129414D01*
X0234237Y0129484D01*
X0234170Y0129557D01*
X0234106Y0129633D01*
X0234045Y0129711D01*
X0233987Y0129791D01*
X0233932Y0129874D01*
X0233881Y0129958D01*
X0233833Y0130045D01*
X0233789Y0130134D01*
X0233748Y0130224D01*
X0233711Y0130316D01*
X0233678Y0130410D01*
X0233648Y0130504D01*
X0233623Y0130600D01*
X0233601Y0130697D01*
X0233583Y0130794D01*
X0233569Y0130892D01*
X0233559Y0130991D01*
X0233553Y0131090D01*
X0233551Y0131189D01*
X0353886Y0044307D02*
X0353888Y0044432D01*
X0353894Y0044557D01*
X0353904Y0044681D01*
X0353918Y0044805D01*
X0353935Y0044929D01*
X0353957Y0045052D01*
X0353983Y0045174D01*
X0354012Y0045296D01*
X0354045Y0045416D01*
X0354083Y0045535D01*
X0354123Y0045654D01*
X0354168Y0045770D01*
X0354216Y0045885D01*
X0354268Y0045999D01*
X0354324Y0046111D01*
X0354383Y0046221D01*
X0354445Y0046329D01*
X0354511Y0046436D01*
X0354580Y0046540D01*
X0354653Y0046641D01*
X0354728Y0046741D01*
X0354807Y0046838D01*
X0354889Y0046932D01*
X0354974Y0047024D01*
X0355061Y0047113D01*
X0355152Y0047199D01*
X0355245Y0047282D01*
X0355341Y0047363D01*
X0355439Y0047440D01*
X0355539Y0047514D01*
X0355642Y0047585D01*
X0355747Y0047652D01*
X0355855Y0047717D01*
X0355964Y0047777D01*
X0356075Y0047835D01*
X0356188Y0047888D01*
X0356302Y0047938D01*
X0356418Y0047985D01*
X0356535Y0048027D01*
X0356654Y0048066D01*
X0356774Y0048102D01*
X0356895Y0048133D01*
X0357017Y0048161D01*
X0357139Y0048184D01*
X0357263Y0048204D01*
X0357387Y0048220D01*
X0357511Y0048232D01*
X0357636Y0048240D01*
X0357761Y0048244D01*
X0357885Y0048244D01*
X0358010Y0048240D01*
X0358135Y0048232D01*
X0358259Y0048220D01*
X0358383Y0048204D01*
X0358507Y0048184D01*
X0358629Y0048161D01*
X0358751Y0048133D01*
X0358872Y0048102D01*
X0358992Y0048066D01*
X0359111Y0048027D01*
X0359228Y0047985D01*
X0359344Y0047938D01*
X0359458Y0047888D01*
X0359571Y0047835D01*
X0359682Y0047777D01*
X0359792Y0047717D01*
X0359899Y0047652D01*
X0360004Y0047585D01*
X0360107Y0047514D01*
X0360207Y0047440D01*
X0360305Y0047363D01*
X0360401Y0047282D01*
X0360494Y0047199D01*
X0360585Y0047113D01*
X0360672Y0047024D01*
X0360757Y0046932D01*
X0360839Y0046838D01*
X0360918Y0046741D01*
X0360993Y0046641D01*
X0361066Y0046540D01*
X0361135Y0046436D01*
X0361201Y0046329D01*
X0361263Y0046221D01*
X0361322Y0046111D01*
X0361378Y0045999D01*
X0361430Y0045885D01*
X0361478Y0045770D01*
X0361523Y0045654D01*
X0361563Y0045535D01*
X0361601Y0045416D01*
X0361634Y0045296D01*
X0361663Y0045174D01*
X0361689Y0045052D01*
X0361711Y0044929D01*
X0361728Y0044805D01*
X0361742Y0044681D01*
X0361752Y0044557D01*
X0361758Y0044432D01*
X0361760Y0044307D01*
X0361758Y0044182D01*
X0361752Y0044057D01*
X0361742Y0043933D01*
X0361728Y0043809D01*
X0361711Y0043685D01*
X0361689Y0043562D01*
X0361663Y0043440D01*
X0361634Y0043318D01*
X0361601Y0043198D01*
X0361563Y0043079D01*
X0361523Y0042960D01*
X0361478Y0042844D01*
X0361430Y0042729D01*
X0361378Y0042615D01*
X0361322Y0042503D01*
X0361263Y0042393D01*
X0361201Y0042285D01*
X0361135Y0042178D01*
X0361066Y0042074D01*
X0360993Y0041973D01*
X0360918Y0041873D01*
X0360839Y0041776D01*
X0360757Y0041682D01*
X0360672Y0041590D01*
X0360585Y0041501D01*
X0360494Y0041415D01*
X0360401Y0041332D01*
X0360305Y0041251D01*
X0360207Y0041174D01*
X0360107Y0041100D01*
X0360004Y0041029D01*
X0359899Y0040962D01*
X0359791Y0040897D01*
X0359682Y0040837D01*
X0359571Y0040779D01*
X0359458Y0040726D01*
X0359344Y0040676D01*
X0359228Y0040629D01*
X0359111Y0040587D01*
X0358992Y0040548D01*
X0358872Y0040512D01*
X0358751Y0040481D01*
X0358629Y0040453D01*
X0358507Y0040430D01*
X0358383Y0040410D01*
X0358259Y0040394D01*
X0358135Y0040382D01*
X0358010Y0040374D01*
X0357885Y0040370D01*
X0357761Y0040370D01*
X0357636Y0040374D01*
X0357511Y0040382D01*
X0357387Y0040394D01*
X0357263Y0040410D01*
X0357139Y0040430D01*
X0357017Y0040453D01*
X0356895Y0040481D01*
X0356774Y0040512D01*
X0356654Y0040548D01*
X0356535Y0040587D01*
X0356418Y0040629D01*
X0356302Y0040676D01*
X0356188Y0040726D01*
X0356075Y0040779D01*
X0355964Y0040837D01*
X0355854Y0040897D01*
X0355747Y0040962D01*
X0355642Y0041029D01*
X0355539Y0041100D01*
X0355439Y0041174D01*
X0355341Y0041251D01*
X0355245Y0041332D01*
X0355152Y0041415D01*
X0355061Y0041501D01*
X0354974Y0041590D01*
X0354889Y0041682D01*
X0354807Y0041776D01*
X0354728Y0041873D01*
X0354653Y0041973D01*
X0354580Y0042074D01*
X0354511Y0042178D01*
X0354445Y0042285D01*
X0354383Y0042393D01*
X0354324Y0042503D01*
X0354268Y0042615D01*
X0354216Y0042729D01*
X0354168Y0042844D01*
X0354123Y0042960D01*
X0354083Y0043079D01*
X0354045Y0043198D01*
X0354012Y0043318D01*
X0353983Y0043440D01*
X0353957Y0043562D01*
X0353935Y0043685D01*
X0353918Y0043809D01*
X0353904Y0043933D01*
X0353894Y0044057D01*
X0353888Y0044182D01*
X0353886Y0044307D01*
X0350933Y0243126D02*
X0350935Y0243251D01*
X0350941Y0243376D01*
X0350951Y0243500D01*
X0350965Y0243624D01*
X0350982Y0243748D01*
X0351004Y0243871D01*
X0351030Y0243993D01*
X0351059Y0244115D01*
X0351092Y0244235D01*
X0351130Y0244354D01*
X0351170Y0244473D01*
X0351215Y0244589D01*
X0351263Y0244704D01*
X0351315Y0244818D01*
X0351371Y0244930D01*
X0351430Y0245040D01*
X0351492Y0245148D01*
X0351558Y0245255D01*
X0351627Y0245359D01*
X0351700Y0245460D01*
X0351775Y0245560D01*
X0351854Y0245657D01*
X0351936Y0245751D01*
X0352021Y0245843D01*
X0352108Y0245932D01*
X0352199Y0246018D01*
X0352292Y0246101D01*
X0352388Y0246182D01*
X0352486Y0246259D01*
X0352586Y0246333D01*
X0352689Y0246404D01*
X0352794Y0246471D01*
X0352902Y0246536D01*
X0353011Y0246596D01*
X0353122Y0246654D01*
X0353235Y0246707D01*
X0353349Y0246757D01*
X0353465Y0246804D01*
X0353582Y0246846D01*
X0353701Y0246885D01*
X0353821Y0246921D01*
X0353942Y0246952D01*
X0354064Y0246980D01*
X0354186Y0247003D01*
X0354310Y0247023D01*
X0354434Y0247039D01*
X0354558Y0247051D01*
X0354683Y0247059D01*
X0354808Y0247063D01*
X0354932Y0247063D01*
X0355057Y0247059D01*
X0355182Y0247051D01*
X0355306Y0247039D01*
X0355430Y0247023D01*
X0355554Y0247003D01*
X0355676Y0246980D01*
X0355798Y0246952D01*
X0355919Y0246921D01*
X0356039Y0246885D01*
X0356158Y0246846D01*
X0356275Y0246804D01*
X0356391Y0246757D01*
X0356505Y0246707D01*
X0356618Y0246654D01*
X0356729Y0246596D01*
X0356839Y0246536D01*
X0356946Y0246471D01*
X0357051Y0246404D01*
X0357154Y0246333D01*
X0357254Y0246259D01*
X0357352Y0246182D01*
X0357448Y0246101D01*
X0357541Y0246018D01*
X0357632Y0245932D01*
X0357719Y0245843D01*
X0357804Y0245751D01*
X0357886Y0245657D01*
X0357965Y0245560D01*
X0358040Y0245460D01*
X0358113Y0245359D01*
X0358182Y0245255D01*
X0358248Y0245148D01*
X0358310Y0245040D01*
X0358369Y0244930D01*
X0358425Y0244818D01*
X0358477Y0244704D01*
X0358525Y0244589D01*
X0358570Y0244473D01*
X0358610Y0244354D01*
X0358648Y0244235D01*
X0358681Y0244115D01*
X0358710Y0243993D01*
X0358736Y0243871D01*
X0358758Y0243748D01*
X0358775Y0243624D01*
X0358789Y0243500D01*
X0358799Y0243376D01*
X0358805Y0243251D01*
X0358807Y0243126D01*
X0358805Y0243001D01*
X0358799Y0242876D01*
X0358789Y0242752D01*
X0358775Y0242628D01*
X0358758Y0242504D01*
X0358736Y0242381D01*
X0358710Y0242259D01*
X0358681Y0242137D01*
X0358648Y0242017D01*
X0358610Y0241898D01*
X0358570Y0241779D01*
X0358525Y0241663D01*
X0358477Y0241548D01*
X0358425Y0241434D01*
X0358369Y0241322D01*
X0358310Y0241212D01*
X0358248Y0241104D01*
X0358182Y0240997D01*
X0358113Y0240893D01*
X0358040Y0240792D01*
X0357965Y0240692D01*
X0357886Y0240595D01*
X0357804Y0240501D01*
X0357719Y0240409D01*
X0357632Y0240320D01*
X0357541Y0240234D01*
X0357448Y0240151D01*
X0357352Y0240070D01*
X0357254Y0239993D01*
X0357154Y0239919D01*
X0357051Y0239848D01*
X0356946Y0239781D01*
X0356838Y0239716D01*
X0356729Y0239656D01*
X0356618Y0239598D01*
X0356505Y0239545D01*
X0356391Y0239495D01*
X0356275Y0239448D01*
X0356158Y0239406D01*
X0356039Y0239367D01*
X0355919Y0239331D01*
X0355798Y0239300D01*
X0355676Y0239272D01*
X0355554Y0239249D01*
X0355430Y0239229D01*
X0355306Y0239213D01*
X0355182Y0239201D01*
X0355057Y0239193D01*
X0354932Y0239189D01*
X0354808Y0239189D01*
X0354683Y0239193D01*
X0354558Y0239201D01*
X0354434Y0239213D01*
X0354310Y0239229D01*
X0354186Y0239249D01*
X0354064Y0239272D01*
X0353942Y0239300D01*
X0353821Y0239331D01*
X0353701Y0239367D01*
X0353582Y0239406D01*
X0353465Y0239448D01*
X0353349Y0239495D01*
X0353235Y0239545D01*
X0353122Y0239598D01*
X0353011Y0239656D01*
X0352901Y0239716D01*
X0352794Y0239781D01*
X0352689Y0239848D01*
X0352586Y0239919D01*
X0352486Y0239993D01*
X0352388Y0240070D01*
X0352292Y0240151D01*
X0352199Y0240234D01*
X0352108Y0240320D01*
X0352021Y0240409D01*
X0351936Y0240501D01*
X0351854Y0240595D01*
X0351775Y0240692D01*
X0351700Y0240792D01*
X0351627Y0240893D01*
X0351558Y0240997D01*
X0351492Y0241104D01*
X0351430Y0241212D01*
X0351371Y0241322D01*
X0351315Y0241434D01*
X0351263Y0241548D01*
X0351215Y0241663D01*
X0351170Y0241779D01*
X0351130Y0241898D01*
X0351092Y0242017D01*
X0351059Y0242137D01*
X0351030Y0242259D01*
X0351004Y0242381D01*
X0350982Y0242504D01*
X0350965Y0242628D01*
X0350951Y0242752D01*
X0350941Y0242876D01*
X0350935Y0243001D01*
X0350933Y0243126D01*
X0329280Y0243126D02*
X0329282Y0243251D01*
X0329288Y0243376D01*
X0329298Y0243500D01*
X0329312Y0243624D01*
X0329329Y0243748D01*
X0329351Y0243871D01*
X0329377Y0243993D01*
X0329406Y0244115D01*
X0329439Y0244235D01*
X0329477Y0244354D01*
X0329517Y0244473D01*
X0329562Y0244589D01*
X0329610Y0244704D01*
X0329662Y0244818D01*
X0329718Y0244930D01*
X0329777Y0245040D01*
X0329839Y0245148D01*
X0329905Y0245255D01*
X0329974Y0245359D01*
X0330047Y0245460D01*
X0330122Y0245560D01*
X0330201Y0245657D01*
X0330283Y0245751D01*
X0330368Y0245843D01*
X0330455Y0245932D01*
X0330546Y0246018D01*
X0330639Y0246101D01*
X0330735Y0246182D01*
X0330833Y0246259D01*
X0330933Y0246333D01*
X0331036Y0246404D01*
X0331141Y0246471D01*
X0331249Y0246536D01*
X0331358Y0246596D01*
X0331469Y0246654D01*
X0331582Y0246707D01*
X0331696Y0246757D01*
X0331812Y0246804D01*
X0331929Y0246846D01*
X0332048Y0246885D01*
X0332168Y0246921D01*
X0332289Y0246952D01*
X0332411Y0246980D01*
X0332533Y0247003D01*
X0332657Y0247023D01*
X0332781Y0247039D01*
X0332905Y0247051D01*
X0333030Y0247059D01*
X0333155Y0247063D01*
X0333279Y0247063D01*
X0333404Y0247059D01*
X0333529Y0247051D01*
X0333653Y0247039D01*
X0333777Y0247023D01*
X0333901Y0247003D01*
X0334023Y0246980D01*
X0334145Y0246952D01*
X0334266Y0246921D01*
X0334386Y0246885D01*
X0334505Y0246846D01*
X0334622Y0246804D01*
X0334738Y0246757D01*
X0334852Y0246707D01*
X0334965Y0246654D01*
X0335076Y0246596D01*
X0335186Y0246536D01*
X0335293Y0246471D01*
X0335398Y0246404D01*
X0335501Y0246333D01*
X0335601Y0246259D01*
X0335699Y0246182D01*
X0335795Y0246101D01*
X0335888Y0246018D01*
X0335979Y0245932D01*
X0336066Y0245843D01*
X0336151Y0245751D01*
X0336233Y0245657D01*
X0336312Y0245560D01*
X0336387Y0245460D01*
X0336460Y0245359D01*
X0336529Y0245255D01*
X0336595Y0245148D01*
X0336657Y0245040D01*
X0336716Y0244930D01*
X0336772Y0244818D01*
X0336824Y0244704D01*
X0336872Y0244589D01*
X0336917Y0244473D01*
X0336957Y0244354D01*
X0336995Y0244235D01*
X0337028Y0244115D01*
X0337057Y0243993D01*
X0337083Y0243871D01*
X0337105Y0243748D01*
X0337122Y0243624D01*
X0337136Y0243500D01*
X0337146Y0243376D01*
X0337152Y0243251D01*
X0337154Y0243126D01*
X0337152Y0243001D01*
X0337146Y0242876D01*
X0337136Y0242752D01*
X0337122Y0242628D01*
X0337105Y0242504D01*
X0337083Y0242381D01*
X0337057Y0242259D01*
X0337028Y0242137D01*
X0336995Y0242017D01*
X0336957Y0241898D01*
X0336917Y0241779D01*
X0336872Y0241663D01*
X0336824Y0241548D01*
X0336772Y0241434D01*
X0336716Y0241322D01*
X0336657Y0241212D01*
X0336595Y0241104D01*
X0336529Y0240997D01*
X0336460Y0240893D01*
X0336387Y0240792D01*
X0336312Y0240692D01*
X0336233Y0240595D01*
X0336151Y0240501D01*
X0336066Y0240409D01*
X0335979Y0240320D01*
X0335888Y0240234D01*
X0335795Y0240151D01*
X0335699Y0240070D01*
X0335601Y0239993D01*
X0335501Y0239919D01*
X0335398Y0239848D01*
X0335293Y0239781D01*
X0335185Y0239716D01*
X0335076Y0239656D01*
X0334965Y0239598D01*
X0334852Y0239545D01*
X0334738Y0239495D01*
X0334622Y0239448D01*
X0334505Y0239406D01*
X0334386Y0239367D01*
X0334266Y0239331D01*
X0334145Y0239300D01*
X0334023Y0239272D01*
X0333901Y0239249D01*
X0333777Y0239229D01*
X0333653Y0239213D01*
X0333529Y0239201D01*
X0333404Y0239193D01*
X0333279Y0239189D01*
X0333155Y0239189D01*
X0333030Y0239193D01*
X0332905Y0239201D01*
X0332781Y0239213D01*
X0332657Y0239229D01*
X0332533Y0239249D01*
X0332411Y0239272D01*
X0332289Y0239300D01*
X0332168Y0239331D01*
X0332048Y0239367D01*
X0331929Y0239406D01*
X0331812Y0239448D01*
X0331696Y0239495D01*
X0331582Y0239545D01*
X0331469Y0239598D01*
X0331358Y0239656D01*
X0331248Y0239716D01*
X0331141Y0239781D01*
X0331036Y0239848D01*
X0330933Y0239919D01*
X0330833Y0239993D01*
X0330735Y0240070D01*
X0330639Y0240151D01*
X0330546Y0240234D01*
X0330455Y0240320D01*
X0330368Y0240409D01*
X0330283Y0240501D01*
X0330201Y0240595D01*
X0330122Y0240692D01*
X0330047Y0240792D01*
X0329974Y0240893D01*
X0329905Y0240997D01*
X0329839Y0241104D01*
X0329777Y0241212D01*
X0329718Y0241322D01*
X0329662Y0241434D01*
X0329610Y0241548D01*
X0329562Y0241663D01*
X0329517Y0241779D01*
X0329477Y0241898D01*
X0329439Y0242017D01*
X0329406Y0242137D01*
X0329377Y0242259D01*
X0329351Y0242381D01*
X0329329Y0242504D01*
X0329312Y0242628D01*
X0329298Y0242752D01*
X0329288Y0242876D01*
X0329282Y0243001D01*
X0329280Y0243126D01*
X0106839Y0243126D02*
X0106841Y0243251D01*
X0106847Y0243376D01*
X0106857Y0243500D01*
X0106871Y0243624D01*
X0106888Y0243748D01*
X0106910Y0243871D01*
X0106936Y0243993D01*
X0106965Y0244115D01*
X0106998Y0244235D01*
X0107036Y0244354D01*
X0107076Y0244473D01*
X0107121Y0244589D01*
X0107169Y0244704D01*
X0107221Y0244818D01*
X0107277Y0244930D01*
X0107336Y0245040D01*
X0107398Y0245148D01*
X0107464Y0245255D01*
X0107533Y0245359D01*
X0107606Y0245460D01*
X0107681Y0245560D01*
X0107760Y0245657D01*
X0107842Y0245751D01*
X0107927Y0245843D01*
X0108014Y0245932D01*
X0108105Y0246018D01*
X0108198Y0246101D01*
X0108294Y0246182D01*
X0108392Y0246259D01*
X0108492Y0246333D01*
X0108595Y0246404D01*
X0108700Y0246471D01*
X0108808Y0246536D01*
X0108917Y0246596D01*
X0109028Y0246654D01*
X0109141Y0246707D01*
X0109255Y0246757D01*
X0109371Y0246804D01*
X0109488Y0246846D01*
X0109607Y0246885D01*
X0109727Y0246921D01*
X0109848Y0246952D01*
X0109970Y0246980D01*
X0110092Y0247003D01*
X0110216Y0247023D01*
X0110340Y0247039D01*
X0110464Y0247051D01*
X0110589Y0247059D01*
X0110714Y0247063D01*
X0110838Y0247063D01*
X0110963Y0247059D01*
X0111088Y0247051D01*
X0111212Y0247039D01*
X0111336Y0247023D01*
X0111460Y0247003D01*
X0111582Y0246980D01*
X0111704Y0246952D01*
X0111825Y0246921D01*
X0111945Y0246885D01*
X0112064Y0246846D01*
X0112181Y0246804D01*
X0112297Y0246757D01*
X0112411Y0246707D01*
X0112524Y0246654D01*
X0112635Y0246596D01*
X0112745Y0246536D01*
X0112852Y0246471D01*
X0112957Y0246404D01*
X0113060Y0246333D01*
X0113160Y0246259D01*
X0113258Y0246182D01*
X0113354Y0246101D01*
X0113447Y0246018D01*
X0113538Y0245932D01*
X0113625Y0245843D01*
X0113710Y0245751D01*
X0113792Y0245657D01*
X0113871Y0245560D01*
X0113946Y0245460D01*
X0114019Y0245359D01*
X0114088Y0245255D01*
X0114154Y0245148D01*
X0114216Y0245040D01*
X0114275Y0244930D01*
X0114331Y0244818D01*
X0114383Y0244704D01*
X0114431Y0244589D01*
X0114476Y0244473D01*
X0114516Y0244354D01*
X0114554Y0244235D01*
X0114587Y0244115D01*
X0114616Y0243993D01*
X0114642Y0243871D01*
X0114664Y0243748D01*
X0114681Y0243624D01*
X0114695Y0243500D01*
X0114705Y0243376D01*
X0114711Y0243251D01*
X0114713Y0243126D01*
X0114711Y0243001D01*
X0114705Y0242876D01*
X0114695Y0242752D01*
X0114681Y0242628D01*
X0114664Y0242504D01*
X0114642Y0242381D01*
X0114616Y0242259D01*
X0114587Y0242137D01*
X0114554Y0242017D01*
X0114516Y0241898D01*
X0114476Y0241779D01*
X0114431Y0241663D01*
X0114383Y0241548D01*
X0114331Y0241434D01*
X0114275Y0241322D01*
X0114216Y0241212D01*
X0114154Y0241104D01*
X0114088Y0240997D01*
X0114019Y0240893D01*
X0113946Y0240792D01*
X0113871Y0240692D01*
X0113792Y0240595D01*
X0113710Y0240501D01*
X0113625Y0240409D01*
X0113538Y0240320D01*
X0113447Y0240234D01*
X0113354Y0240151D01*
X0113258Y0240070D01*
X0113160Y0239993D01*
X0113060Y0239919D01*
X0112957Y0239848D01*
X0112852Y0239781D01*
X0112744Y0239716D01*
X0112635Y0239656D01*
X0112524Y0239598D01*
X0112411Y0239545D01*
X0112297Y0239495D01*
X0112181Y0239448D01*
X0112064Y0239406D01*
X0111945Y0239367D01*
X0111825Y0239331D01*
X0111704Y0239300D01*
X0111582Y0239272D01*
X0111460Y0239249D01*
X0111336Y0239229D01*
X0111212Y0239213D01*
X0111088Y0239201D01*
X0110963Y0239193D01*
X0110838Y0239189D01*
X0110714Y0239189D01*
X0110589Y0239193D01*
X0110464Y0239201D01*
X0110340Y0239213D01*
X0110216Y0239229D01*
X0110092Y0239249D01*
X0109970Y0239272D01*
X0109848Y0239300D01*
X0109727Y0239331D01*
X0109607Y0239367D01*
X0109488Y0239406D01*
X0109371Y0239448D01*
X0109255Y0239495D01*
X0109141Y0239545D01*
X0109028Y0239598D01*
X0108917Y0239656D01*
X0108807Y0239716D01*
X0108700Y0239781D01*
X0108595Y0239848D01*
X0108492Y0239919D01*
X0108392Y0239993D01*
X0108294Y0240070D01*
X0108198Y0240151D01*
X0108105Y0240234D01*
X0108014Y0240320D01*
X0107927Y0240409D01*
X0107842Y0240501D01*
X0107760Y0240595D01*
X0107681Y0240692D01*
X0107606Y0240792D01*
X0107533Y0240893D01*
X0107464Y0240997D01*
X0107398Y0241104D01*
X0107336Y0241212D01*
X0107277Y0241322D01*
X0107221Y0241434D01*
X0107169Y0241548D01*
X0107121Y0241663D01*
X0107076Y0241779D01*
X0107036Y0241898D01*
X0106998Y0242017D01*
X0106965Y0242137D01*
X0106936Y0242259D01*
X0106910Y0242381D01*
X0106888Y0242504D01*
X0106871Y0242628D01*
X0106857Y0242752D01*
X0106847Y0242876D01*
X0106841Y0243001D01*
X0106839Y0243126D01*
X0085185Y0243126D02*
X0085187Y0243251D01*
X0085193Y0243376D01*
X0085203Y0243500D01*
X0085217Y0243624D01*
X0085234Y0243748D01*
X0085256Y0243871D01*
X0085282Y0243993D01*
X0085311Y0244115D01*
X0085344Y0244235D01*
X0085382Y0244354D01*
X0085422Y0244473D01*
X0085467Y0244589D01*
X0085515Y0244704D01*
X0085567Y0244818D01*
X0085623Y0244930D01*
X0085682Y0245040D01*
X0085744Y0245148D01*
X0085810Y0245255D01*
X0085879Y0245359D01*
X0085952Y0245460D01*
X0086027Y0245560D01*
X0086106Y0245657D01*
X0086188Y0245751D01*
X0086273Y0245843D01*
X0086360Y0245932D01*
X0086451Y0246018D01*
X0086544Y0246101D01*
X0086640Y0246182D01*
X0086738Y0246259D01*
X0086838Y0246333D01*
X0086941Y0246404D01*
X0087046Y0246471D01*
X0087154Y0246536D01*
X0087263Y0246596D01*
X0087374Y0246654D01*
X0087487Y0246707D01*
X0087601Y0246757D01*
X0087717Y0246804D01*
X0087834Y0246846D01*
X0087953Y0246885D01*
X0088073Y0246921D01*
X0088194Y0246952D01*
X0088316Y0246980D01*
X0088438Y0247003D01*
X0088562Y0247023D01*
X0088686Y0247039D01*
X0088810Y0247051D01*
X0088935Y0247059D01*
X0089060Y0247063D01*
X0089184Y0247063D01*
X0089309Y0247059D01*
X0089434Y0247051D01*
X0089558Y0247039D01*
X0089682Y0247023D01*
X0089806Y0247003D01*
X0089928Y0246980D01*
X0090050Y0246952D01*
X0090171Y0246921D01*
X0090291Y0246885D01*
X0090410Y0246846D01*
X0090527Y0246804D01*
X0090643Y0246757D01*
X0090757Y0246707D01*
X0090870Y0246654D01*
X0090981Y0246596D01*
X0091091Y0246536D01*
X0091198Y0246471D01*
X0091303Y0246404D01*
X0091406Y0246333D01*
X0091506Y0246259D01*
X0091604Y0246182D01*
X0091700Y0246101D01*
X0091793Y0246018D01*
X0091884Y0245932D01*
X0091971Y0245843D01*
X0092056Y0245751D01*
X0092138Y0245657D01*
X0092217Y0245560D01*
X0092292Y0245460D01*
X0092365Y0245359D01*
X0092434Y0245255D01*
X0092500Y0245148D01*
X0092562Y0245040D01*
X0092621Y0244930D01*
X0092677Y0244818D01*
X0092729Y0244704D01*
X0092777Y0244589D01*
X0092822Y0244473D01*
X0092862Y0244354D01*
X0092900Y0244235D01*
X0092933Y0244115D01*
X0092962Y0243993D01*
X0092988Y0243871D01*
X0093010Y0243748D01*
X0093027Y0243624D01*
X0093041Y0243500D01*
X0093051Y0243376D01*
X0093057Y0243251D01*
X0093059Y0243126D01*
X0093057Y0243001D01*
X0093051Y0242876D01*
X0093041Y0242752D01*
X0093027Y0242628D01*
X0093010Y0242504D01*
X0092988Y0242381D01*
X0092962Y0242259D01*
X0092933Y0242137D01*
X0092900Y0242017D01*
X0092862Y0241898D01*
X0092822Y0241779D01*
X0092777Y0241663D01*
X0092729Y0241548D01*
X0092677Y0241434D01*
X0092621Y0241322D01*
X0092562Y0241212D01*
X0092500Y0241104D01*
X0092434Y0240997D01*
X0092365Y0240893D01*
X0092292Y0240792D01*
X0092217Y0240692D01*
X0092138Y0240595D01*
X0092056Y0240501D01*
X0091971Y0240409D01*
X0091884Y0240320D01*
X0091793Y0240234D01*
X0091700Y0240151D01*
X0091604Y0240070D01*
X0091506Y0239993D01*
X0091406Y0239919D01*
X0091303Y0239848D01*
X0091198Y0239781D01*
X0091090Y0239716D01*
X0090981Y0239656D01*
X0090870Y0239598D01*
X0090757Y0239545D01*
X0090643Y0239495D01*
X0090527Y0239448D01*
X0090410Y0239406D01*
X0090291Y0239367D01*
X0090171Y0239331D01*
X0090050Y0239300D01*
X0089928Y0239272D01*
X0089806Y0239249D01*
X0089682Y0239229D01*
X0089558Y0239213D01*
X0089434Y0239201D01*
X0089309Y0239193D01*
X0089184Y0239189D01*
X0089060Y0239189D01*
X0088935Y0239193D01*
X0088810Y0239201D01*
X0088686Y0239213D01*
X0088562Y0239229D01*
X0088438Y0239249D01*
X0088316Y0239272D01*
X0088194Y0239300D01*
X0088073Y0239331D01*
X0087953Y0239367D01*
X0087834Y0239406D01*
X0087717Y0239448D01*
X0087601Y0239495D01*
X0087487Y0239545D01*
X0087374Y0239598D01*
X0087263Y0239656D01*
X0087153Y0239716D01*
X0087046Y0239781D01*
X0086941Y0239848D01*
X0086838Y0239919D01*
X0086738Y0239993D01*
X0086640Y0240070D01*
X0086544Y0240151D01*
X0086451Y0240234D01*
X0086360Y0240320D01*
X0086273Y0240409D01*
X0086188Y0240501D01*
X0086106Y0240595D01*
X0086027Y0240692D01*
X0085952Y0240792D01*
X0085879Y0240893D01*
X0085810Y0240997D01*
X0085744Y0241104D01*
X0085682Y0241212D01*
X0085623Y0241322D01*
X0085567Y0241434D01*
X0085515Y0241548D01*
X0085467Y0241663D01*
X0085422Y0241779D01*
X0085382Y0241898D01*
X0085344Y0242017D01*
X0085311Y0242137D01*
X0085282Y0242259D01*
X0085256Y0242381D01*
X0085234Y0242504D01*
X0085217Y0242628D01*
X0085203Y0242752D01*
X0085193Y0242876D01*
X0085187Y0243001D01*
X0085185Y0243126D01*
M02*
